<?xml version="1.0" encoding="UTF-8"?><svg id="b" xmlns="http://www.w3.org/2000/svg" viewBox="0 0 108 164.51"><g id="c"><path d="M79.41,88.66H29.29c-.93.01-1.74-.62-1.95-1.52L13.05,29.74c-.17-.61-.03-1.26.37-1.74.38-.49.96-.77,1.58-.78h78.69c.62,0,1.2.29,1.58.78.4.48.54,1.13.37,1.74l-14.29,57.39c-.21.9-1.03,1.54-1.95,1.52h0ZM30.84,84.64h47.01l13.38-53.51H17.57l13.27,53.51Z" style="fill:#6a4322;"/><path d="M18.78,48.01c-.53,0-1.05-.21-1.42-.59L.58,30.65c-.57-.57-.74-1.43-.43-2.17.31-.75,1.03-1.25,1.85-1.26h12.31c4.84-3.69,39.63-27.43,80.51.35.86.61,1.1,1.78.54,2.68-.6.87-1.78,1.12-2.68.56-41.55-28.15-74.92-1.28-76.28-.13-.37.29-.82.45-1.28.45H7.08l13.38,13.38c.78.78.78,2.05,0,2.84-.42.48-1.05.73-1.69.67h0Z" style="fill:#6a4322;"/><path d="M45.37,88.66c-.99-.01-1.82-.74-1.98-1.71l-8.56-57.39h0c-.16-1.1.59-2.12,1.69-2.3,1.09-.16,2.11.59,2.27,1.69l8.59,57.42c.16,1.09-.59,2.11-1.69,2.27l-.32.03Z" style="fill:#6a4322;"/><path d="M63.33,88.66h-.32,0c-1.09-.16-1.85-1.18-1.69-2.27l8.67-57.45c.16-1.09,1.18-1.85,2.27-1.69,1.1.18,1.85,1.2,1.69,2.3l-8.56,57.39h0c-.16,1.01-1.04,1.74-2.06,1.71h0Z" style="fill:#6a4322;"/><path d="M36.81,163.87h-.27c-.53-.07-1.01-.34-1.33-.76-.32-.42-.46-.96-.39-1.48l8.56-63.33c.15-1.1,1.16-1.87,2.26-1.73,1.1.15,1.87,1.16,1.73,2.26l-8.56,63.25h0c-.13,1.01-.99,1.77-2.01,1.79h0Z" style="fill:#6a4322;"/><path d="M54.36,164.51c-14.01,0-28-1.23-41.79-3.67-.61-.09-1.15-.47-1.44-1.02-.32-.46-.41-1.04-.24-1.58l16.05-60.28h0c.24-.88,1.04-1.48,1.95-1.47h52.1c.92,0,1.72.63,1.93,1.52l14.82,60.26c.13.54.04,1.11-.27,1.58-.3.47-.79.79-1.34.88-13.58,2.43-27.33,3.7-41.13,3.77h-.64ZM15.43,157.16c13.08,2.21,26.31,3.33,39.57,3.34,12.84-.07,25.66-1.19,38.32-3.34l-13.91-56.64H30.58l-15.14,56.64Z" style="fill:#6a4322;"/><path d="M73.17,163.76c-1.01,0-1.86-.74-1.98-1.74l-8.56-63.15h0c-.13-.55-.02-1.13.3-1.59.32-.47.82-.77,1.38-.85.56-.08,1.12.09,1.56.45.43.36.69.89.72,1.46l8.56,63.15c.08.53-.06,1.06-.39,1.48-.32.42-.8.7-1.33.76l-.27.03Z" style="fill:#6a4322;"/><path d="M75.53,100.62c-1.11,0-2.01-.9-2.01-2.01v-11.96c0-1.11.9-2.01,2.01-2.01s2.01.9,2.01,2.01v11.96c-.01,1.1-.9,1.99-2.01,2.01Z" style="fill:#6a4322;"/><path d="M33.17,100.62c-1.1-.01-1.99-.91-2.01-2.01v-11.96c0-1.11.9-2.01,2.01-2.01s2.01.9,2.01,2.01v11.96c0,1.11-.9,2.01-2.01,2.01Z" style="fill:#6a4322;"/><path d="M95.94,76.46h-2.25c-1.11,0-2.01-.9-2.01-2.01s.9-2.01,2.01-2.01h2.25c2.27.01,4.2-1.64,4.55-3.88l3.32-21.59h0c.19-1.32-.19-2.65-1.04-3.67-.87-1.02-2.14-1.6-3.48-1.61h-8.19c-1.11,0-2.01-.9-2.01-2.01s.9-2.01,2.01-2.01h8.32c2.5.01,4.88,1.11,6.5,3.01,1.63,1.9,2.35,4.41,1.98,6.89l-3.32,21.57h0c-.31,2.06-1.36,3.93-2.95,5.28-1.59,1.34-3.61,2.06-5.69,2.03h0Z" style="fill:#6a4322;"/><path d="M60.84,18.5c-.21.04-.43.04-.64,0-.54-.17-.98-.55-1.22-1.06-.24-.51-.25-1.09-.04-1.61l2.03-5.83-6.61-5.35-6.64,5.35,2.03,5.94c.21.52.2,1.11-.04,1.61-.24.51-.68.89-1.22,1.06-.54.19-1.13.14-1.62-.14-.5-.28-.85-.75-.97-1.31l-2.41-7.17c-.29-.79-.04-1.67.62-2.19L53.08.52c.76-.69,1.92-.69,2.68,0l8.88,7.17c.65.52.9,1.41.62,2.19l-2.46,7.28c-.28.83-1.08,1.38-1.95,1.34h0Z" style="fill:#6a4322;"/></g></svg>