<?xml version="1.0" encoding="UTF-8"?><svg id="b" xmlns="http://www.w3.org/2000/svg" viewBox="0 0 270 259.51"><g id="c"><path d="M47.43,141.75h30.19c1.94,0,3.51-1.57,3.51-3.51v-30.19c0-1.94-1.57-3.51-3.51-3.51h-30.19c-1.94,0-3.51,1.57-3.51,3.51v30.19c0,1.94,1.57,3.51,3.51,3.51ZM50.93,111.56h23.18v23.18h-23.18v-23.18ZM102.29,141.75h30.19c1.94,0,3.51-1.57,3.51-3.51v-30.19c0-1.94-1.57-3.51-3.51-3.51h-30.19c-1.94,0-3.51,1.57-3.51,3.51v30.19c0,1.94,1.57,3.51,3.51,3.51h0ZM105.79,111.56h23.18v23.18h-23.18v-23.18ZM157.16,141.75h30.19c1.94,0,3.51-1.57,3.51-3.51v-30.19c0-1.94-1.57-3.51-3.51-3.51h-30.19c-1.94,0-3.51,1.57-3.51,3.51v30.19c0,1.94,1.57,3.51,3.51,3.51ZM160.66,111.56h23.18v23.18h-23.18v-23.18ZM212.01,141.75h30.19c1.94,0,3.51-1.57,3.51-3.51v-30.19c0-1.94-1.57-3.51-3.51-3.51h-30.19c-1.94,0-3.51,1.57-3.51,3.51v30.19c0,1.94,1.57,3.51,3.51,3.51ZM215.52,111.56h23.18v23.18h-23.18v-23.18ZM250.06,24.7h-13.05v-11.98c0-7.01-5.7-12.72-12.72-12.72h-6.17c-7.01,0-12.72,5.7-12.72,12.72v11.98h-19.3v-11.98c0-7.01-5.7-12.72-12.72-12.72h-6.17c-7.01,0-12.72,5.7-12.72,12.72v11.98h-19.3v-11.98c0-7.01-5.7-12.72-12.72-12.72h-6.17c-7.01,0-12.72,5.7-12.72,12.72v11.98h-19.3v-11.98c0-7.01-5.7-12.72-12.72-12.72h-6.17c-7.01,0-12.72,5.7-12.72,12.72v11.98h-13.05c-10.99,0-19.95,8.95-19.95,19.95v133.6h-9.04c-5.83,0-10.59,4.74-10.59,10.59v14.77c0,10.48,8.53,19.01,19.01,19.01h.62v16.95c0,10.99,8.95,19.95,19.95,19.95h210.48c10.99,0,19.95-8.95,19.95-19.95V44.65c-.01-10.99-8.96-19.95-19.96-19.95h.01ZM212.4,12.74c0-3.15,2.56-5.71,5.71-5.71h6.17c3.15,0,5.71,2.56,5.71,5.71v30.73c0,3.15-2.56,5.71-5.71,5.71h-6.17c-3.15,0-5.71-2.56-5.71-5.71V12.74ZM161.48,12.74c0-3.15,2.56-5.71,5.71-5.71h6.17c3.15,0,5.71,2.56,5.71,5.71v30.73c0,3.15-2.56,5.71-5.71,5.71h-6.17c-3.15,0-5.71-2.56-5.71-5.71V12.74ZM110.56,12.74c0-3.15,2.56-5.71,5.71-5.71h6.17c3.15,0,5.71,2.56,5.71,5.71v30.73c0,3.15-2.56,5.71-5.71,5.71h-6.17c-3.15,0-5.71-2.56-5.71-5.71V12.74ZM59.64,12.74c0-3.15,2.56-5.71,5.71-5.71h6.17c3.15,0,5.71,2.56,5.71,5.71v30.73c0,3.15-2.56,5.71-5.71,5.71h-6.17c-3.15,0-5.71-2.56-5.71-5.71V12.74ZM39.58,31.71h13.05v11.74c0,7.01,5.7,12.72,12.72,12.72h6.17c7.01,0,12.72-5.7,12.72-12.72v-11.74h19.3v11.74c0,7.01,5.7,12.72,12.72,12.72h6.17c7.01,0,12.72-5.7,12.72-12.72v-11.74h19.3v11.74c0,7.01,5.7,12.72,12.72,12.72h6.17c7.01,0,12.72-5.7,12.72-12.72v-11.74h19.3v11.74c0,7.01,5.7,12.72,12.72,12.72h6.17c7.01,0,12.72-5.7,12.72-12.72v-11.74h13.05c7.13,0,12.94,5.8,12.94,12.94v33.86H26.65v-33.86c0-7.13,5.8-12.94,12.94-12.94h0ZM26.65,85.52h236.34v116.88c-.07.27-.1.55-.1.83,0,6.4-5.34,11.93-11.71,12.33-6.22-.45-11.13-5.64-11.13-11.96v-12.43h2.18c1.94,0,3.51-1.57,3.51-3.51v-30.19c0-1.94-1.57-3.51-3.51-3.51h-30.19c-1.94,0-3.51,1.57-3.51,3.51v20.77h-17.67v-20.77c0-1.94-1.57-3.51-3.51-3.51h-30.19c-1.94,0-3.51,1.57-3.51,3.51v20.77h-17.67v-20.77c0-1.94-1.57-3.51-3.51-3.51h-30.19c-1.94,0-3.51,1.57-3.51,3.51v20.77h-17.65v-20.77c0-1.94-1.57-3.51-3.51-3.51h-30.19c-1.94,0-3.51,1.57-3.51,3.51v20.77h-17.27v-92.73h-.02ZM238.71,183.8c-1.8-3.3-5.25-5.56-9.25-5.56h-13.93v-17.27h23.18v22.83ZM183.85,178.24h-23.18v-17.27h23.18v17.27ZM128.98,178.24h-23.18v-17.27h23.18v17.27ZM74.12,178.24h-23.18v-17.27h23.18v17.27ZM7.03,203.6v-14.77c0-1.97,1.6-3.58,3.58-3.58h218.86c1.97,0,3.58,1.6,3.58,3.58v14.77c0,4.53,1.6,8.7,4.25,11.98l-191.62.02h-26.63c-6.61,0-12-5.39-12-12h-.02ZM250.06,252.48H39.58c-7.13,0-12.94-5.8-12.94-12.94v-16.95h19l205.25-.03s1.31,0,2.44-.22c3.67-.58,6.96-2.17,9.65-4.44v21.64c0,7.13-5.8,12.94-12.94,12.94h.01Z" style="fill:#6a4322;"/></g></svg>