<?xml version="1.0" encoding="UTF-8"?><svg id="c" xmlns="http://www.w3.org/2000/svg" viewBox="0 0 216 215.82"><path d="M83.43,111.41c.02.59-.2,1.16-.61,1.59-.41.43-.98.66-1.57.66s-1.16-.24-1.57-.66c-.41-.42-.63-.99-.61-1.59.05-1.96-.53-3.89-1.66-5.49s-2.75-2.8-4.62-3.41c-2.97-1.06-6.21-1.06-9.18,0-1.87.61-3.49,1.81-4.62,3.41-1.13,1.6-1.71,3.53-1.66,5.49,0,7.37,5.65,8.6,11.31,9.84,7.39,1.61,14.79,3.23,14.79,14.17h0c.08,2.86-.77,5.67-2.42,8.01-1.65,2.34-4.01,4.09-6.72,4.98-1.26.46-2.57.77-3.91.93v5.36c.02.59-.2,1.16-.61,1.59-.41.42-.98.66-1.57.66s-1.15-.24-1.57-.66c-.41-.42-.63-1-.61-1.59v-5.36c-1.33-.16-2.64-.47-3.9-.93-2.72-.89-5.08-2.64-6.73-4.98-1.65-2.34-2.5-5.15-2.42-8.01.04-1.18,1-2.11,2.18-2.11s2.14.94,2.18,2.11c-.05,1.96.53,3.89,1.66,5.49,1.13,1.6,2.75,2.8,4.62,3.41,2.97,1.06,6.21,1.06,9.18,0,1.87-.61,3.49-1.81,4.62-3.41s1.71-3.53,1.66-5.49c0-7.43-5.68-8.67-11.35-9.91-7.38-1.61-14.75-3.22-14.75-14.1h0c-.08-2.86.77-5.67,2.42-8.01,1.65-2.34,4.01-4.09,6.73-4.98,1.26-.46,2.57-.77,3.9-.93v-5.36c.04-1.18,1-2.11,2.18-2.11s2.14.93,2.18,2.11v5.36c1.33.16,2.65.47,3.91.93,2.72.89,5.08,2.64,6.72,4.98,1.65,2.34,2.5,5.15,2.42,8.01h0ZM175.54,177.44c-9.44,9.43-22.72,13.94-35.95,12.2-13.23-1.74-24.89-9.54-31.56-21.09-6.67-11.55-7.59-25.56-2.48-37.88,5.11-12.33,15.65-21.58,28.54-25.03,12.89-3.45,26.65-.72,37.23,7.41,10.58,8.12,16.79,20.7,16.79,34.05.01,11.39-4.51,22.31-12.57,30.35h0ZM145.2,148.9c.86,0,1.6-.6,1.77-1.45.17-.84-.28-1.69-1.08-2.02s-1.71-.05-2.19.66c-.48.71-.38,1.67.22,2.28.34.34.79.53,1.27.53h0ZM147.38,157.98v-5.11h0c1.57-.6,2.83-1.81,3.49-3.35.66-1.55.66-3.29,0-4.84-.66-1.54-1.92-2.75-3.49-3.35v-20.3c.02-.59-.2-1.16-.61-1.59-.41-.42-.98-.66-1.57-.66s-1.16.24-1.57.66c-.41.42-.63,1-.61,1.59v20.3c-1.57.6-2.83,1.81-3.49,3.35-.66,1.55-.66,3.29,0,4.84.66,1.54,1.92,2.75,3.49,3.35v5.12c-.02.59.2,1.16.61,1.59.41.42.98.66,1.57.66s1.15-.24,1.57-.66c.41-.42.63-1,.61-1.59h0ZM171.61,119.01l-1.54,1.84c-.79.86-2.11.95-3.01.2-.89-.75-1.04-2.07-.33-3l1.55-1.84c-6.06-4.54-13.33-7.19-20.9-7.61v2.4c.02.59-.2,1.16-.61,1.59-.41.42-.98.66-1.57.66s-1.15-.24-1.57-.66c-.41-.42-.63-1-.61-1.59v-2.4c-7.57.42-14.84,3.07-20.9,7.61l1.55,1.84c.75.92.62,2.28-.3,3.04-.91.76-2.27.65-3.04-.24l-1.54-1.84c-.28.27-.57.55-.85.82h0c-5.07,5.06-8.64,11.44-10.28,18.42l2.37.42c.58.09,1.09.41,1.43.89.34.48.48,1.07.38,1.64-.1.58-.43,1.09-.91,1.42-.48.33-1.08.46-1.65.35l-2.37-.42c-.89,7.52.45,15.14,3.86,21.9l2.08-1.2h0c1.04-.6,2.37-.25,2.97.79.6,1.04.25,2.37-.79,2.97l-2.09,1.2h0c4.16,6.33,10.08,11.31,17.04,14.31l.82-2.26h0c.2-.54.6-.98,1.12-1.23s1.12-.27,1.66-.07c1.13.41,1.71,1.66,1.3,2.79l-.83,2.27h0c7.26,2.18,14.99,2.18,22.25,0l-.82-2.27h0c-.41-1.13.17-2.38,1.3-2.79,1.13-.41,2.38.17,2.79,1.3l.82,2.26h0c6.96-3,12.88-7.97,17.04-14.31l-2.09-1.2h0c-1.04-.6-1.39-1.94-.79-2.98.6-1.04,1.94-1.39,2.98-.79l2.08,1.2h0c3.4-6.77,4.74-14.38,3.85-21.9l-2.37.42c-.58.11-1.17-.01-1.65-.34-.48-.33-.81-.84-.91-1.42s.04-1.17.38-1.65c.34-.48.86-.79,1.44-.88l2.37-.42c-1.64-6.98-5.2-13.36-10.27-18.43-.28-.28-.57-.56-.85-.82h0ZM153.38,72.67h-16.35v7.3h16.35v-7.3ZM150.13,84.32h-9.86v6.92c1.62-.14,3.26-.21,4.93-.21s3.3.07,4.93.21v-6.92s0,0,0,0ZM108.43,93.65l-2.49-2.97-9.49,7.96,2.49,2.97,9.49-7.96ZM109.22,98.67l-5.46,4.58,2.74,3.27h0c1.72-1.64,3.55-3.17,5.46-4.59l-2.74-3.27h0ZM193.94,98.64l-9.49-7.96-2.49,2.97,9.49,7.96,2.49-2.97ZM186.64,103.25l-5.46-4.58-2.74,3.27h0c1.92,1.41,3.74,2.94,5.47,4.59l2.74-3.27h0ZM102.74,176.64h.27v.39c10.71,15.16,28.68,23.47,47.16,21.8,18.48-1.66,34.68-13.05,42.51-29.88,7.83-16.83,6.1-36.55-4.54-51.76-10.64-15.21-28.57-23.6-47.07-22.02-18.49,1.58-34.74,12.89-42.65,29.69-7.9,16.79-6.26,36.52,4.31,51.78h0ZM74.01,52.85c-1.81-1.81-4.35-2.67-6.88-2.34s-4.77,1.83-6.04,4.04c-1.28,2.21-1.45,4.89-.48,7.25.98,2.36,3,4.13,5.47,4.79,2.47.66,5.1.14,7.13-1.42,2.03-1.55,3.22-3.96,3.22-6.52,0-2.18-.86-4.27-2.41-5.81h0ZM66.02,23.48c-1.63.29-3.19.86-4.62,1.7l-19.93,11.5-19.92,11.49c-2.09,1.18-3.82,2.89-5.01,4.96-1.2,2.07-1.82,4.43-1.79,6.82v107.44c0,3.61,1.44,7.07,3.99,9.62,2.55,2.55,6.01,3.99,9.62,3.99h72.17c9.23,12.16,23.02,20.02,38.19,21.79,15.16,1.76,30.39-2.74,42.16-12.45s19.08-23.82,20.22-39.04c1.15-15.22-3.96-30.25-14.15-41.62l3.08-3.67c1.38.73,3.09.4,4.1-.8l3.83-4.56c.56-.67.84-1.54.76-2.42-.08-.88-.5-1.68-1.17-2.25l-10.98-9.21-.11-.09c-1.34-1.13-3.34-1.01-4.54.27l-.04.04-3.92,4.67h0c-1,1.2-1.04,2.94-.07,4.17l-3.07,3.66c-6.21-3.87-13.12-6.48-20.33-7.69v-7.58c.64-.14,1.25-.42,1.77-.81.92-.67,1.47-1.73,1.48-2.86v-8.43c-.01-1.14-.56-2.2-1.48-2.87-.81-.6-1.79-.93-2.8-.92h-16.51c-1.01,0-1.99.32-2.8.92-.92.67-1.47,1.73-1.48,2.87v8.43c.01,1.14.56,2.2,1.48,2.86.52.4,1.13.67,1.77.81v7.58c-4.93.82-9.72,2.3-14.26,4.4v-36.24c.01-2.39-.6-4.75-1.79-6.82-1.2-2.07-2.93-3.79-5.01-4.97l-19.93-11.5-19.92-11.5h0c-1.43-.84-3-1.41-4.63-1.7v-8.56c.02-.59-.2-1.16-.61-1.59-.41-.42-.98-.66-1.57-.66s-1.16.24-1.57.66c-.41.42-.63,1-.61,1.59v8.57h0ZM66.02,46.27v-18.34c-.86.22-1.69.56-2.45,1l-19.92,11.5-19.93,11.5h0c-1.43.79-2.62,1.95-3.43,3.36-.82,1.41-1.23,3.02-1.2,4.65v107.44c0,2.46.98,4.81,2.72,6.54,1.74,1.74,4.09,2.71,6.55,2.71h69.17c-6.38-10.3-9.25-22.4-8.18-34.47,1.07-12.07,6.02-23.48,14.11-32.5l-3.07-3.67c-1.38.74-3.09.4-4.1-.8l-3.83-4.56c-.56-.67-.84-1.54-.76-2.42.08-.88.5-1.68,1.17-2.25,3.7-3.1,7.39-6.2,11.08-9.3,1.34-1.13,3.34-1.01,4.54.27v.02c.05.04.09.08.13.13l3.83,4.56h0c.57.67.84,1.54.76,2.41-.05.64-.3,1.25-.69,1.76l3.07,3.65c.57-.35,1.14-.69,1.72-1.03v-38.49c.02-1.63-.39-3.23-1.19-4.65-.82-1.41-2.01-2.57-3.43-3.37l-19.93-11.5-19.92-11.5h0c-.77-.44-1.59-.78-2.45-1v18.34c4.17.73,7.69,3.52,9.37,7.4,1.68,3.89,1.29,8.35-1.04,11.89-2.33,3.54-6.27,5.66-10.51,5.66s-8.18-2.13-10.51-5.66c-2.33-3.54-2.72-8.01-1.04-11.89,1.68-3.89,5.2-6.67,9.36-7.4h0Z" style="fill:#6a4322; fill-rule:evenodd;"/></svg>