<?xml version="1.0" encoding="UTF-8"?><svg id="b" xmlns="http://www.w3.org/2000/svg" viewBox="0 0 308.8 339.06"><g id="c" stroke="#6a4322" stroke-width="3.5" stroke-linejoin="round"><path d="M268.56,251.68c-14.11-2.68-23.63-10.34-33.7-18.43-4.65-3.74-9.45-7.6-14.84-11.07-20.14-13.01-52.11-21.91-81.45-7.93-1.66.8-2.37,2.78-1.57,4.44.8,1.66,2.78,2.37,4.44,1.57,26.84-12.81,56.33-4.53,74.96,7.51,5.1,3.29,9.76,7.04,14.27,10.67,9.04,7.27,18.35,14.75,31.18,18.48-17.69,19.09-45.84,28.84-71.71,24.5-22.87-3.85-43.15-18.13-55.65-39.19-.94-1.58-2.98-2.1-4.57-1.17-1.59.94-2.11,2.99-1.17,4.57,13.5,22.75,35.47,38.19,60.27,42.36,4.45.75,8.96,1.11,13.47,1.11,25.92,0,52.05-12,68.04-32.07.73-.91.92-2.14.52-3.24-.41-1.09-1.35-1.89-2.5-2.11h0Z" style="fill:#6a4322;"/><path d="M138.39,204.03c1.15,0,2.3-.06,3.45-.18,14.84-1.51,27.91-13.08,31.1-27.51,3.19-14.43-3.79-30.45-16.6-38.1-12.78-7.64-30.29-6.27-41.61,3.28-11.34,9.56-15.49,26.47-9.87,40.21,5.44,13.33,19.18,22.28,33.53,22.28h0ZM119.03,146.63c5.23-4.41,12.07-6.67,18.93-6.67,5.23,0,10.46,1.32,14.97,4.02,10.41,6.22,16.09,19.23,13.51,30.93-2.58,11.7-13.21,21.08-25.26,22.31-12.68,1.31-25.35-6.28-30.14-17.99-4.56-11.14-1.19-24.85,8-32.6h0Z" style="fill:#6a4322;"/><path d="M154.88,171.19c.25,0,.49-.01.74-.04,1.83-.16,3.19-1.79,3.02-3.62-.16-1.84-1.79-3.15-3.62-3.02-.89.08-1.87-.65-2.06-1.46-.19-.78.38-1.83,1.15-2.12,1.72-.64,2.6-2.56,1.96-4.29-.65-1.72-2.57-2.6-4.29-1.96-3.95,1.47-6.28,5.83-5.3,9.91.91,3.81,4.52,6.6,8.41,6.6h0Z" style="fill:#6a4322;"/><path d="M102.99,143.13c.9,0,1.79-.36,2.45-1.07,1.25-1.35,1.17-3.46-.18-4.71-8.85-8.18-10.77-23-4.29-33.02,6.5-10.05,20.9-14.48,32.08-9.89,11.19,4.59,18.27,17.83,15.78,29.51-.39,1.8.76,3.57,2.56,3.95,1.82.38,3.57-.76,3.95-2.56,3.19-14.93-5.49-31.21-19.76-37.07-14.27-5.85-31.92-.39-40.22,12.43-8.3,12.84-5.94,31.08,5.36,41.54.65.59,1.45.88,2.26.88h0Z" style="fill:#6a4322;"/><path d="M121.56,109.51c3.24-1.03,5.72-3.97,6.18-7.3.25-1.83-1.02-3.51-2.84-3.76-1.87-.26-3.51,1.02-3.76,2.84-.11.81-.8,1.61-1.59,1.86-.82.25-1.88-.01-2.47-.63-1.27-1.33-3.39-1.37-4.71-.09-1.33,1.27-1.36,3.39-.09,4.71,1.71,1.78,4.17,2.76,6.63,2.76.9,0,1.79-.13,2.66-.4h0Z" style="fill:#6a4322;"/><path d="M165.11,123.91c-1.76.53-2.76,2.38-2.24,4.15.53,1.76,2.38,2.77,4.15,2.24,10.15-3.05,21.71-.81,29.45,5.69,7.95,6.66,11.66,17.94,9.02,27.43-2.71,9.74-12.18,17.18-22.03,17.32-1.84.02-3.31,1.53-3.28,3.37.02,1.83,1.51,3.28,3.33,3.28h.04c12.91-.18,24.83-9.52,28.36-22.2,3.37-12.1-1.12-25.89-11.16-34.32-9.41-7.89-23.41-10.62-35.65-6.96h0Z" style="fill:#6a4322;"/><path d="M194.71,142.02c-1.53-1.03-3.6-.63-4.62.9-1.63,2.42-1.88,5.58-.66,8.22,1.21,2.63,3.76,4.5,6.65,4.88.15.02.29.03.44.03,1.65,0,3.08-1.22,3.3-2.9.24-1.83-1.04-3.5-2.87-3.74-.6-.08-1.22-.53-1.47-1.07-.24-.53-.19-1.23.13-1.71,1.03-1.53.63-3.6-.9-4.62h0Z" style="fill:#6a4322;"/><path d="M79.68,257.37c-10.14-8.09-25.42-8.95-36.33-2.05-10.95,6.92-16.56,21.03-13.34,33.54,3.36,13.11,15.69,22.96,29.31,23.41.32.01.64.01.97.01,12.65,0,24.82-8.32,29.18-20.09,4.48-12.08.36-26.73-9.79-34.83h0ZM83.22,289.87c-3.51,9.46-13.46,15.99-23.68,15.74-10.73-.36-20.43-8.11-23.08-18.41-2.52-9.79,1.88-20.84,10.45-26.25,3.88-2.45,8.45-3.66,13.04-3.66,5.59,0,11.19,1.78,15.57,5.28,7.97,6.36,11.2,17.84,7.7,27.3h0Z" style="fill:#6a4322;"/><path d="M32.48,256.88c.75,0,1.5-.25,2.12-.76,1.42-1.17,1.62-3.27.45-4.69-6.43-7.8-6.32-20.33.24-27.94,6.57-7.63,19.09-9.68,27.88-4.59,8.79,5.08,13.16,16.89,9.74,26.31-.63,1.73.26,3.64,2,4.27,1.72.63,3.64-.26,4.27-2,4.55-12.53-1.01-27.62-12.66-34.35-11.64-6.73-27.56-4.09-36.27,6.01-8.73,10.12-8.87,26.16-.34,36.52.66.8,1.62,1.21,2.58,1.21h0Z" style="fill:#6a4322;"/><path d="M52.31,223.35c-.13.45-.6.88-1.08.96-.51.09-1.13-.16-1.42-.57-1.08-1.49-3.16-1.82-4.65-.73-1.49,1.08-1.82,3.17-.73,4.65,1.51,2.08,4.06,3.32,6.63,3.32.44,0,.88-.04,1.31-.11,2.99-.52,5.55-2.82,6.36-5.73.5-1.77-.54-3.61-2.31-4.11-1.78-.5-3.61.54-4.11,2.31h0Z" style="fill:#6a4322;"/><path d="M69.13,267.87c-.28.18-.77.18-1.07,0-.28-.17-.5-.58-.48-.9.16-1.83-1.2-3.45-3.03-3.61-1.83-.16-3.45,1.2-3.61,3.03-.25,2.84,1.24,5.74,3.71,7.2,1.19.71,2.57,1.06,3.94,1.06,1.47,0,2.93-.4,4.17-1.21,1.54-1,1.98-3.07.98-4.61-1-1.55-3.07-1.99-4.61-.98h0Z" style="fill:#6a4322;"/><path d="M87.52,245.44c-1.83.24-3.11,1.91-2.87,3.74.25,1.83,1.95,3.1,3.74,2.87,8.88-1.18,18.2,2.24,23.76,8.68,5.69,6.59,7.23,16.42,3.75,23.93-3.57,7.68-12.4,12.57-20.62,11.39-1.83-.25-3.51.99-3.78,2.81-.27,1.82.99,3.51,2.81,3.78,1.17.17,2.34.26,3.51.26,10.01,0,19.78-6.1,24.11-15.43,4.62-9.95,2.72-22.44-4.75-31.09-7.09-8.22-18.48-12.41-29.68-10.93h0Z" style="fill:#6a4322;"/><path d="M106.39,261.29c-1.6-.89-3.64-.3-4.53,1.31-1.4,2.54-1.38,5.69.07,8.22,1.44,2.5,4.13,4.13,7.03,4.27h.15c1.77,0,3.25-1.4,3.33-3.19.08-1.84-1.35-3.39-3.19-3.48-.6-.03-1.24-.41-1.53-.92-.28-.49-.29-1.2-.02-1.69.89-1.61.3-3.64-1.31-4.53h0Z" style="fill:#6a4322;"/><path d="M191.98,112.34c17.52-11.06,37.58-18.97,58.01-22.88,1.81-.34,2.99-2.09,2.65-3.9-.35-1.81-2.1-2.97-3.9-2.65-21.25,4.06-42.11,12.29-60.33,23.79-1.56.98-2.02,3.04-1.04,4.6.63,1,1.71,1.56,2.82,1.56.61,0,1.22-.17,1.78-.52h0Z" style="fill:#6a4322;"/><path d="M307.49,75.74c-20.84-15.96-46.59-23.37-70.64-20.28-26.51,3.39-49.44,20.37-57.06,42.26-.6,1.74.31,3.64,2.05,4.24,1.75.6,3.64-.31,4.24-2.05,6.81-19.56,27.55-34.76,51.61-37.84,21.52-2.74,44.55,3.58,63.61,17.38-8.96,18.58-25.85,33.29-45.66,39.64-16.71,5.36-35.86,4.69-52.55-1.83-1.7-.66-3.65.18-4.32,1.89-.67,1.71.18,3.65,1.89,4.32,10.12,3.95,20.8,5.93,31.44,5.93,8.67,0,17.3-1.32,25.57-3.96,22.45-7.19,41.45-24.28,50.83-45.71.62-1.41.19-3.05-1.02-3.98h0Z" style="fill:#6a4322;"/><path d="M177.34,37.96c-1.78-.23-3.5,1.04-3.74,2.87-2.55,19.41-7.52,38.48-14.75,56.67-.68,1.71.16,3.65,1.86,4.33.41.16.82.24,1.23.24,1.33,0,2.58-.8,3.1-2.1,7.44-18.71,12.54-38.31,15.16-58.27.24-1.82-1.05-3.49-2.87-3.74h0Z" style="fill:#6a4322;"/><path d="M150.89,89.33c.76,0,1.53-.26,2.15-.79,1.41-1.19,1.58-3.29.39-4.69-4.01-4.73-7.91-13.91-6.84-25.49.93-10.2,5.63-20.73,13.58-30.46,6.88-8.43,15.3-15.28,25.07-20.4,10.51,13.2,15.31,30.67,12.88,47.26-.27,1.82.99,3.51,2.81,3.78,1.85.26,3.51-.99,3.78-2.81,2.83-19.32-3.18-39.73-16.09-54.58-.99-1.14-2.62-1.47-3.97-.81-11.64,5.65-21.61,13.51-29.64,23.35-8.79,10.76-14,22.54-15.05,34.06-1.06,11.58,2.07,22.95,8.39,30.41.66.78,1.59,1.18,2.54,1.18h0Z" style="fill:#6a4322;"/><path d="M47.1,314.48c-1.55-.98-3.61-.51-4.6,1.04-4.32,6.84-9.29,12.81-14.76,17.74-1.37,1.23-1.47,3.34-.25,4.71.66.73,1.57,1.1,2.48,1.1.8,0,1.59-.28,2.23-.85,5.93-5.34,11.29-11.78,15.93-19.13.98-1.55.52-3.61-1.03-4.6h0Z" style="fill:#6a4322;"/><path d="M106.63,200.05c-6.18,8.87-10.19,19.22-13.46,28.22-.63,1.73.26,3.64,2,4.27.37.14.76.2,1.14.2,1.36,0,2.64-.84,3.13-2.2,3.13-8.61,6.94-18.48,12.66-26.69,1.05-1.51.68-3.59-.83-4.64-1.51-1.05-3.59-.68-4.64.83h0Z" style="fill:#6a4322;"/><path d="M61.43,162.95c-3.95-3.81-8.05-7.75-11.73-11.86-9.24-10.31-14.2-20.36-14.75-29.85-.11-1.84-1.69-3.22-3.52-3.13-1.84.11-3.24,1.68-3.13,3.52.64,11.04,6.17,22.45,16.45,33.91,3.84,4.29,8.02,8.32,12.06,12.21,4.55,4.39,9.26,8.92,13.36,13.73,7.69,9.03,16.08,26.38,15.38,35.22-.15,1.84,1.23,3.44,3.06,3.59.09,0,.18,0,.27,0,1.72,0,3.18-1.32,3.32-3.07.94-11.88-9.43-31.24-16.96-40.08-4.32-5.06-9.14-9.71-13.81-14.21h0Z" style="fill:#6a4322;"/><path d="M160.64,243.06c2.76,1.57,5.53,3.15,8.33,4.63,7.74,4.12,18.89,9.25,30.73,9.25,1.83,0,3.68-.13,5.54-.39,1.82-.26,3.09-1.95,2.82-3.77-.26-1.82-1.95-3.13-3.77-2.82-9.05,1.31-19.3-1.28-32.19-8.15-2.75-1.46-5.45-3-8.16-4.54-7.73-4.4-15.73-8.94-24.55-11.6-11.19-3.35-26.76-3.58-36.85,5.92-1.34,1.26-1.41,3.37-.15,4.71,1.26,1.34,3.37,1.41,4.71.15,8.04-7.55,20.95-7.22,30.37-4.39,8.1,2.43,15.42,6.6,23.17,11.01h0Z" style="fill:#6a4322;"/><path d="M70.94,198.11c1.66,0,3.09-1.23,3.31-2.92.23-1.83-1.07-3.49-2.9-3.72-25.25-3.12-48.22-19.71-58.51-42.26-10.87-23.79-7.14-53.39,8.81-73.94,3.08,6.63,8.37,12.97,16.05,19.23,3.27,2.67,6.72,5.15,10.05,7.56,4.43,3.19,9.01,6.5,13.05,10.16,10.82,9.81,18.54,23,21.75,37.15,2.3,10.14,2.3,20.92-.01,31.18-.41,1.79.72,3.58,2.52,3.98,1.76.41,3.58-.72,3.98-2.52,2.53-11.21,2.53-23.01.01-34.11-3.51-15.47-11.95-29.89-23.77-40.61-4.32-3.91-9.05-7.33-13.63-10.63-3.25-2.35-6.62-4.77-9.74-7.31-8.7-7.1-13.9-14.12-15.89-21.46-.32-1.17-1.24-2.08-2.42-2.36-1.19-.29-2.42.08-3.24.98C-.37,88.96-5.95,124.11,6.77,151.98c11.24,24.6,36.26,42.7,63.76,46.1.14.02.28.03.41.03h0Z" style="fill:#6a4322;"/></g></svg>
