<?xml version="1.0" encoding="UTF-8"?><svg id="b" xmlns="http://www.w3.org/2000/svg" viewBox="0 0 14.4 15.12"><g id="c"><path d="M7.49,8.32c-.19-.5-.31-.8-.55-1.18-.65-1.02-1.36-1.26-1.48-2.48-.13-1.37.63-2.3,1.05-3.28.21-.48-.16-1.01-.69-1.01,0,0,0,0,0,0C2.81.38.38,3.59.38,7.55s2.44,7.17,5.44,7.17h0c.67,0,1.17-.54,1.34-.73.86-.92,1.1-3.59.33-5.66Z" style="fill:#e0d6cf; stroke:#6a4322; stroke-miterlimit:10; stroke-width:.75px;"/><path d="M8.52.56c-.62.24-.89.81-1.27,1.61-.1.21-.63,1.36-.51,2.45.04.36.13.58.16.66.13.3.33.52.57.8.21.24.45.51.69.88.27.43.4.75.58,1.24.38,1.03.55,2.24.47,3.4-.06.86-.25,1.61-.54,2.15-.05.09-.17.25-.29.4-.17.2-.06.51.21.56,0,0,0,0,0,0,1.97.36,5.44-3.32,5.44-7.17S11.18.86,9.68.52c-.18-.04-.66-.15-1.16.05Z" style="fill:#e0d6cf; stroke:#6a4322; stroke-miterlimit:10; stroke-width:.75px;"/></g></svg>