<?xml version="1.0" encoding="UTF-8"?><svg id="b" xmlns="http://www.w3.org/2000/svg" viewBox="0 0 222.81 355.33"><g id="c"><path d="M128.3.04c1.24.15,2.45.41,3.69.45,8.58.38,17.16.45,25.7,1.13,14.64,1.2,29.09,3.46,42.86,8.8,3.39,1.32,6.4,3.12,9.11,5.53,1.09.98,1.54,2.11,1.24,3.57-.11.49-.15.98-.3,1.47-5.64,18.63-10.69,37.44-17.87,55.58-2.03,5.12-4.18,10.16-6.25,15.24-.26.68-.53,1.39-.86,2.18,2.97,1.58,2.78,3.95,1.96,6.66-3.39,11.33-7.79,22.31-12.12,33.3-1.24,3.16-2.37,6.4-3.61,9.56-.49,1.24-.41,2.33.23,3.54,3.16,6.25,6.47,12.42,9.29,18.78,4.1,9.18,7.86,18.51,11.7,27.84.68,1.62,1.09,3.31,1.47,5,.45,2,.41,4.07-.83,5.76-.98,1.32-.86,2.45-.34,3.91,5.87,15.47,11.74,30.97,17.5,46.47,4.55,12.34,8.35,24.91,10.57,37.93,1.32,7.6,1.88,15.2.79,22.88-.94,6.7-3.54,12.64-8.32,17.5-1.39,1.43-3.01,2.64-4.67,3.73-6.7,4.52-14.07,7.45-21.75,9.82-9.52,2.9-19.27,4.52-29.12,5.61-12.27,1.36-24.53,2.41-36.84,2.86-13.92.53-27.81,0-41.66-1.39-9.18-.94-18.4-1.81-27.51-3.16-11.97-1.81-23.56-5.16-34.28-10.99-3.8-2.07-7.45-4.33-10.35-7.71-4.44-5.19-6.62-11.29-7.38-17.95-1.05-9.29.3-18.44,2.26-27.51,3.12-14.6,8.13-28.64,13.43-42.56,4.52-11.82,8.88-23.67,13.36-35.48.53-1.43.64-2.52-.26-3.91-1.58-2.33-1.32-4.97-.45-7.45,1.77-5,3.61-10.01,5.61-14.94,4.52-11.18,9.71-22.09,15.32-32.77.26-.53.45-1.09.79-1.58,1.09-1.58,1.05-3.16.34-4.93-2.18-5.42-4.29-10.84-6.28-16.29-3.09-8.5-6.06-17.08-9.11-25.63-.15-.38-.26-.79-.38-1.2-.57-2.3-.45-4.33,2.26-5.57-.64-1.58-1.2-3.12-1.88-4.63-8.69-19.87-15.05-40.53-21-61.34-.68-2.41-1.39-4.78-2.18-7.15-.75-2.3-.38-4.02,1.69-5.68,2.56-2.07,5.31-3.65,8.35-4.85,9.67-3.84,19.75-5.83,29.99-7.41,12.38-1.88,24.87-2.18,37.36-2.56,1.58-.04,3.12-.3,4.67-.49,11.41.04,22.73.04,34.06.04h0ZM210.07,276.92c-4.78,2.26-9.78,3.61-14.86,4.36-11.36,1.69-22.73,3.27-34.13,4.59-13.92,1.62-27.88,2.18-41.88,2.37-24.27.34-48.47-.83-72.51-3.99-7.19-.94-14.34-2.07-21.45-3.46-4.29-.83-8.43-2.33-12.83-3.57-.75,3.05-1.62,6.25-2.33,9.48-1.66,7.49-2.93,15.01-2.71,22.77.11,4.02.45,8.13,2.48,11.59,3.39,5.83,7.79,10.84,14.11,13.66,10.01,4.52,20.47,7.52,31.31,9.03,7.98,1.09,16.03,1.84,24.05,2.71,12.94,1.43,25.93,1.81,38.91,1.54,16.48-.38,32.93-1.81,49.26-4.21,10.91-1.62,21.49-4.59,31.53-9.14,6.32-2.86,10.5-8.02,14.11-13.73.34-.57.49-1.24.71-1.84,1.66-4.4,1.69-8.96,1.58-13.55-.23-9.48-2.45-18.63-4.85-27.73-.07-.3-.3-.57-.49-.87h0ZM202.13,24.31c-1.43.11-2.82.23-4.21.34-7.38.45-14.79,1.05-22.16,1.32-7.41.26-14.83.15-22.24.23-17.46.15-34.96.45-52.42.45-17.42-.04-34.85-.3-52.23-.64-8.05-.19-16.11-.9-24.16-1.36-1.32-.07-2.6-.19-4.07-.3.15.79.23,1.28.38,1.73,3.31,10.39,6.59,20.77,9.9,31.16,3.91,12.38,9.22,24.27,14,36.31.45,1.13,1.24,1.47,2.26,1.66,5.46,1.09,10.87,2.41,16.41,3.27,10.69,1.69,21.52,2.3,32.32,2.41,3.73.04,7.49-.19,11.21-.15,6.06.04,12.16.19,18.21.19,10.42.04,20.81-.57,31.12-2,6.4-.9,12.75-2.41,19.11-3.65,1.05-.23,1.96-.53,2.45-1.81,3.69-9.37,7.79-18.59,11.1-28.07,4.63-13.25,8.73-26.72,13.06-40.11.04-.23-.04-.49-.04-.98h0ZM57.49,148.67c-.3.53-.53.86-.71,1.24-5.34,11.82-10.73,23.63-15.92,35.52-1.88,4.25-3.42,8.66-4.97,13.06-.79,2.26-.6,2.9,1.43,4.18,2.22,1.43,4.52,3.01,7,3.69,6.81,1.92,13.66,3.73,20.58,4.97,7.6,1.36,15.32,2.18,22.99,2.97,6.55.68,13.09,1.13,19.68,1.36,11.52.45,22.92-.86,34.36-2.07,10.76-1.13,21.41-3.01,31.91-5.68,3.95-1.02,7.79-2.33,11.18-4.78,2.56-1.84,2.75-2.26,1.81-5.19-.38-1.2-.83-2.33-1.28-3.5-4.36-11.78-9.63-23.18-14.94-34.58-1.69-3.69-3.39-7.38-5.12-11.21-1.17.19-2.22.34-3.31.49-7,.94-14,2-21.03,2.75-7.19.79-14.41,1.24-21.64,1.88-5.91.53-11.78.53-17.68-.19-2.71-.34-5.46-.45-8.2-.71-9.03-.9-18.02-1.84-27.05-2.82-3.01-.33-6.06-.9-9.07-1.35h0ZM15.68,266.26c8.09-.34,15.61-.71,23.18-.94,13.4-.41,26.79-.71,40.19-1.09,4.82-.15,9.63-.45,14.49-.53,11.06-.15,22.13-.38,33.19-.19,11.33.19,22.61.86,33.94,1.24,12.08.38,24.12.64,36.2,1.02,3.31.11,6.59.45,10.31.75-6.32-18.85-14.3-36.88-19.94-55.61-.45-.04-.64-.11-.75-.04-1.09.38-2.22.68-3.31,1.13-8.99,3.91-18.55,5.87-28.18,7.3-7.75,1.13-15.54,1.88-23.29,2.75-8.88.98-17.76,1.28-26.68.94-12.57-.45-25.06-1.88-37.52-3.73-9.56-1.39-19-3.39-27.92-7.3-1.13-.49-2.33-.79-3.5-1.17-6.85,18.51-13.62,36.99-20.39,55.47h0ZM180.38,101.37c-.15-.11-.34-.26-.49-.38-.57.15-1.09.3-1.66.45-4.52,1.17-8.99,2.48-13.51,3.46-9.14,2-18.48,2.6-27.77,2.93-8.05.3-16.14.23-24.23.26-4.67.04-9.33.15-14,.04-6.4-.15-12.79-.45-19.19-.71-12.12-.53-23.97-2.45-35.52-6.21-.38-.11-.75-.19-1.36-.3.23.79.3,1.36.49,1.88,4.85,12.64,9.75,25.29,14.6,37.97.45,1.2,1.32,1.39,2.3,1.5,8.62.9,17.2,1.81,25.81,2.64,5.04.49,10.12.71,15.16,1.24,6.59.71,13.13.75,19.68.15,10.76-.98,21.56-1.92,32.32-2.93,3.88-.38,7.75-.86,11.48-1.28,5.38-13.77,10.61-27.24,15.88-40.71h0ZM196.64,17.53c.04-.23.04-.41.07-.64-.75-.3-1.47-.68-2.26-.9-5.46-1.43-10.87-3.05-16.41-4.21-9.63-2-19.38-3.09-29.2-3.39-5.57-.15-11.14-.49-16.71-.68-7.41-.26-14.79-.75-22.2-.68-10.8.15-21.64.75-32.44,1.17-9.56.38-19.08,1.17-28.56,2.78-7.3,1.24-14.52,2.75-21.49,5.38-.49.19-.94.49-1.69.86.6.15.79.26,1.02.26,10.2.9,20.43,1.32,30.67,1.36,14.49.07,28.98.19,43.42.3,10.57.07,21.15.23,31.68.15,15.32-.11,30.63-.38,45.95-.71,6.05-.15,12.11-.71,18.14-1.05h0ZM196.45,273.71c0-.23.04-.45.04-.68-.45-.04-.94-.11-1.39-.11-7.83-.19-15.65-.38-23.44-.6-13.4-.41-26.79-.86-40.19-1.28-6.74-.19-13.47-.34-20.21-.49-3.01-.07-5.98-.11-8.99,0-15.8.57-31.61,1.17-47.41,1.69-8.99.3-17.99.45-26.94.68-.57,0-1.09.15-1.66.23.04.19.04.38.07.57,56.71,9.86,113.42,9.9,170.12,0h0Z" style="fill:#6a4322;"/><path d="M111.52,233.21s-7.63,7.24-7.63,13.3c0,4.21,3.42,7.63,7.63,7.63s7.63-3.42,7.63-7.63c0-6.07-7.63-13.3-7.63-13.3Z" style="fill:none; stroke:#6a4322; stroke-miterlimit:10; stroke-width:6px;"/></g></svg>