<?xml version="1.0" encoding="UTF-8"?><svg id="b" xmlns="http://www.w3.org/2000/svg" viewBox="0 0 324 257.34"><g id="c"><path d="M296.81,96.3h-38.9c-5.75,0-10.43-4.68-10.43-10.43s4.68-10.43,10.43-10.43h2.25c.35-8.51,7.39-15.33,15.99-15.33s15.64,6.82,15.99,15.33h4.66c5.75,0,10.43,4.68,10.43,10.43,0,5.75-4.68,10.43-10.43,10.43h0ZM257.91,80.52c-2.94,0-5.34,2.39-5.34,5.34s2.39,5.34,5.34,5.34h38.9c2.94,0,5.34-2.39,5.34-5.34s-2.39-5.34-5.34-5.34h-10.31l.41-2.9c.1-.66.16-1.08.16-1.52,0-6.01-4.9-10.91-10.91-10.91s-10.91,4.9-10.91,10.91c0,.44.07.86.13,1.28l.42,2.91-2.9.23h-4.99Z" style="fill:#6a4322;"/><path d="M87.68,36.19h-38.9c-5.75,0-10.43-4.68-10.43-10.43s4.68-10.43,10.43-10.43h2.25c.35-8.51,7.39-15.33,15.99-15.33s15.64,6.82,15.99,15.33h4.66c5.75,0,10.43,4.68,10.43,10.43,0,5.75-4.68,10.43-10.43,10.43h0ZM48.79,20.43c-2.94,0-5.34,2.39-5.34,5.34s2.39,5.34,5.34,5.34h38.9c2.94,0,5.34-2.39,5.34-5.34s-2.39-5.34-5.34-5.34h-10.31l.41-2.9c.1-.66.16-1.08.16-1.52,0-6.01-4.9-10.91-10.91-10.91s-10.91,4.9-10.91,10.91c0,.44.07.86.13,1.28l.42,2.91-2.9.23h-4.99Z" style="fill:#6a4322;"/><path d="M194.2,32.52l-61.59,106.68-32.19-55.76L0,257.34h324L194.2,32.52ZM221.3,95.47l-27.11,23.28-27.11-23.28,27.11-46.95,27.11,46.95ZM119.8,133.03l-19.4,16.66-19.4-16.66,19.4-33.6,19.4,33.6ZM89.01,249.35H13.85l63.08-109.26,23.47,20.15,23.47-20.15,63.08,109.26h-97.94ZM196.2,249.35l-58.97-102.15,25.8-44.68,31.18,26.77,31.18-26.77,84.77,146.82h-113.95Z" style="fill:#6a4322;"/></g></svg>