<?xml version="1.0" encoding="UTF-8"?><svg id="b" xmlns="http://www.w3.org/2000/svg" viewBox="0 0 153.75 190.25"><g id="c"><path d="M150.8,3.02c-1.82-1.82-4.32-2.79-6.98-2.63-2.58.17-4.99,1.44-6.6,3.47l-15.7,20.18-5.93,5.93-18.19,19.29c-1.01-1.86-2.37-3.39-3.97-4.44-.09-.04-.13-.13-.21-.17s-.17-.09-.25-.13c-.72-.42-1.52-.76-2.25-.98-3.09-.93-6.31-.29-9.23,1.4,2.07-3.85,3.13-8.04,2.79-11.93-.25-3.43-1.52-6.31-3.59-8.34-.04,0-.09-.09-.13-.13-.55-.55-1.14-1.06-1.82-1.44-6.47-3.9-15.99.04-21.28,8.8-.47.8-.89,1.65-1.27,2.5-.55-2.88-1.78-5.84-3.77-8.51-5.04-6.73-13.07-9.43-19.04-6.85-.09,0-.17.09-.25.13-.67.34-1.4.67-1.99,1.14-6.05,4.53-6.31,14.38-.6,22,.38.51.8.89,1.18,1.36-5.67.21-11.77,4.4-15.32,10.96-.93,1.69-1.56,3.43-2.03,5.24-4.57.93-8.04,4.99-8.04,9.86v4.23c0,4.7,3.26,8.63,7.66,9.73-8.12,15.61-7.78,31.82-7.36,47.47.38,14.34.76,27.84-4.86,41.09-2.45,5.67-1.61,11.08,2.29,14.51,4.53,3.97,11.72,4.15,17.9.42,7.11-4.28,18.24-4.28,23.61-4.28h51.7c5.33,0,16.5,0,23.61,4.28,2.96,1.78,6.18,2.67,9.18,2.67,3.26,0,6.35-1.01,8.67-3.09,3.9-3.39,4.74-8.8,2.29-14.51-5.67-13.2-5.29-26.74-4.86-41.09.42-15.65.8-31.82-7.36-47.47,4.4-1.1,7.66-5.04,7.66-9.73v-4.23c0-5.55-4.53-10.07-10.07-10.07h-4.86l4.1-4.48c4.74-4.99,4.66-12.78-.25-17.64l-.42-.42,4.78-4.78,20.18-15.7c2.03-1.61,3.3-3.97,3.47-6.6.17-2.58-.8-5.12-2.63-6.98l.07-.04ZM91.56,49.1l.89-.93c1.06.93,1.94,2.12,2.63,3.59l-7.4,7.87h-.55c.21-3.9,1.74-7.62,4.44-10.5v-.04ZM89.61,46.52l-.38.38c-3.3,3.51-5.08,7.96-5.33,12.69h-8.97c.09-.47.21-.93.34-1.4,2.41-8,8.8-13.2,14.3-11.72l.04.04ZM79.33,27.95c.98,1.4,1.61,3.17,1.78,5.24.29,3.59-.76,7.53-2.92,11.13-2.16,3.59-5.16,6.35-8.46,7.78-3.05,1.31-5.97,1.31-8.29,0l.47-.29c2.58-1.61,4.82-3.9,6.43-6.6,1.14-1.86,1.94-3.9,2.41-5.97.98-4.32,3.64-8.16,7.4-10.58l1.14-.72h.04ZM73.75,53.5c-.6,1.18-1.1,2.45-1.48,3.77-.21.72-.34,1.52-.51,2.29h-4.91c-.67-1.23-1.48-2.37-2.32-3.39.25,0,.47.09.76.09,1.82,0,3.77-.42,5.71-1.27.93-.42,1.86-.93,2.79-1.52l-.04.04ZM60.2,33.48c3.3-5.46,8.46-8.8,12.91-8.8,1.4,0,2.67.34,3.85,1.01l-.51.29c-4.44,2.83-7.66,7.45-8.8,12.57-.38,1.74-1.06,3.43-2.03,4.99-1.36,2.29-3.21,4.19-5.42,5.55l-1.14.72c-.98-1.4-1.61-3.13-1.78-5.24-.29-3.59.76-7.53,2.92-11.13v.04ZM63.12,59.59h-10.88c-.85-1.94-1.4-3.97-1.48-6.13v-1.36c4.19-.34,8.97,2.54,12.35,7.49h0ZM55.34,49.56c-1.86-.6-3.72-.8-5.55-.55.72-.34,1.44-.72,2.07-1.18.93-.72,1.69-1.56,2.32-2.5.17,1.56.55,2.96,1.1,4.23h.05ZM38.24,21.13c4.02,0,8.51,2.37,11.68,6.6,4.57,6.13,4.66,13.84.21,17.39v-.25c-.47-2.88-1.61-5.62-3.34-8-1.23-1.65-2.71-3.05-4.4-4.15-3.39-2.25-5.71-5.84-6.35-9.9l-.21-1.31c.76-.21,1.56-.34,2.37-.34l.04-.04ZM47.6,53.03v.51c.09,2.12.6,4.1,1.27,6.05h-5.37c.47-3.01,1.9-5.33,4.1-6.56h0ZM42.94,53.07c-.25-1.23-.64-2.32-1.1-3.34,1.01.21,2.03.38,3.05.38.6,0,1.18-.04,1.78-.13-.13.04-.25.09-.38.13-1.31.72-2.41,1.78-3.3,2.96h-.04ZM32.91,22.94v.29c.8,4.99,3.64,9.39,7.78,12.1,1.36.89,2.58,2.03,3.59,3.39,1.44,1.94,2.37,4.19,2.71,6.56l.17,1.27c-1.65.42-3.47.47-5.42-.09-3.26-.89-6.35-3.09-8.63-6.18-4.57-6.09-4.66-13.8-.21-17.35h.02ZM39.98,59.59h-8.12c.29-.38.6-.76.8-1.14.09-.09.17-.17.25-.29,1.82-2.92,2.83-6.31,3.01-9.9v-.55c2.41,1.36,3.94,4.1,4.23,7.66.13,1.31.09,2.75-.17,4.28v-.05ZM19.25,56.07c3.21-6.01,8.72-9.65,13.49-9.31v1.36c-.17,2.88-.98,5.67-2.41,8.04-.09.09-.17.21-.25.34-.64,1.1-1.48,2.07-2.41,3.05h-9.94c.38-1.18.89-2.37,1.52-3.51v.04ZM132.98,130.97c-.38,14.05-.8,28.56,5.12,42.4,1.9,4.4,1.36,8.38-1.48,10.88-3.43,3.01-9.23,3.05-14.18.09-7.87-4.7-19.17-4.7-25.22-4.7h-51.7c-6.05,0-17.35,0-25.22,4.7-4.91,2.92-10.75,2.92-14.18-.09-2.83-2.5-3.39-6.43-1.48-10.88,5.93-13.84,5.55-28.35,5.12-42.4-.42-15.65-.85-31.82,7.53-47.05h108.06c8.38,15.27,8,31.39,7.53,47.05h.11ZM126.42,62.76c3.81,0,6.85,3.09,6.85,6.85v4.23c0,3.81-3.09,6.85-6.85,6.85H16.41c-3.81,0-6.85-3.09-6.85-6.85v-4.23c0-3.72,2.96-6.73,6.69-6.85h110.18ZM123.34,52.9l-6.05,6.64h-25.22l24.79-26.28,1.27,1.27,3.55,3.59s.13.13.21.17l1.31,1.31c3.68,3.68,3.72,9.48.17,13.24l-.03.06ZM122.74,34.79l-3.76-3.76,3.72-3.72,3.72,3.72-3.72,3.72.04.04ZM148,14.06l-19.13,14.89-4.02-4.02,14.89-19.13c1.06-1.31,2.58-2.16,4.28-2.25,1.69-.13,3.34.51,4.53,1.74,1.18,1.18,1.82,2.83,1.69,4.53-.13,1.69-.93,3.26-2.25,4.28v-.04Z" style="fill:#6a4322; stroke:#6a4322; stroke-miterlimit:10; stroke-width:.75px;"/><path d="M59.71,150.68c-2.6.15-4.84-.34-6.72-1.42-2.19-1.27-3.91-3.38-5.11-6.36-1.78-4.42-.64-7.99,1.35-11.85,1.84-3.56,4.42-7.39,5.7-12.54,1.68-6.76,2.23-11.42,1.52-14.01-.1-.36.03-.74.33-.96.29-.23.69-.25,1.01-.06,5.78,3.47,8.6,9.91,8.28,19.41-.28,8.26-2.45,14.28-3.58,18.63-.35,1.36-.6,2.54-.63,3.58,0,.16,0,.32,0,.47.88-2.02,1.67-3.74,2.39-5.2,0-.02.02-.05.03-.07.5-1.08,1.12-2.36,1.81-3.74.82-1.7,1.68-3.42,2.57-4.98,2.6-4.85,5.47-9.65,7.19-11.13,1.32-1.14,2.41-2.03,3.26-2.67-.31-.24-.61-.51-.92-.79l-.02-.02c-2.57-2.56-3.4-6.56-1.78-10.04,2.07-4.44,7.35-6.37,11.79-4.31,3.9,1.82,6.31,6.02,4.88,10.82.1-.02.2-.04.29-.07,4.96-1,9.8,2.23,10.79,7.19.99,4.96-2.23,9.8-7.19,10.79-.58.12-1.16.17-1.74.18.49,3.56-1.1,7.25-4.35,9.27-.95.59-1.96.98-2.99,1.2,2.55.85,5.36,1.98,8.43,3.39.3.14.5.43.52.77.02.33-.14.65-.43.82-10.71,6.64-18.52,9.81-23.37,9.64-4.7-.16-8.59-1.89-11.67-5.19-1.39,3.38-2.98,7.36-4.84,12.07-.18.46-.71.69-1.17.51-.47-.18-.69-.71-.51-1.17,1.87-4.75,3.48-8.77,4.89-12.18h0ZM91.82,115.81c-2.88,1.46-4.56,4.7-3.89,8.02.8,3.98,4.68,6.57,8.66,5.77,3.98-.8,6.57-4.68,5.77-8.66-.8-3.98-4.68-6.57-8.66-5.77-.64.13-1.24.33-1.79.61-.03.01-.05.03-.08.04h0ZM62.75,150.31c2.73,2.88,6.18,4.39,10.32,4.53,4.43.15,11.39-2.71,20.91-8.48-5.3-2.34-9.74-3.76-13.34-4.25-2.5-.34-4.58-.23-6.22.37-3.95,1.44-7.58,3.45-10.89,6.04,5.21.08,9.78-.21,13.72-.91.49-.08.96.25,1.05.74.09.49-.24.96-.73,1.05-4.23.74-9.16,1.04-14.82.91h0ZM86.29,124.77c-.34-.08-.73-.08-1.12-.02-.88.12-1.8.5-2.52.94h-.03c-4.68,2.7-5.36,7.56-3.15,11.14,2.2,3.55,6.87,4.65,10.42,2.45,2.76-1.71,4.04-4.9,3.44-7.91-3.33-.67-6.13-3.17-7.06-6.6h0ZM80.65,134.63c.73-.28,1.39.1,2.07.93.7.85.93,1.63.51,2.38-.24.43-.09.98.34,1.23.43.25.99.09,1.23-.34.78-1.38.6-2.86-.69-4.42-1.31-1.59-2.71-2-4.12-1.46-.46.18-.7.7-.52,1.17.18.47.7.7,1.17.52h0ZM90.78,114.32c2.08-4.4.12-8.42-3.37-10.04-3.54-1.64-7.75-.11-9.39,3.43-1.29,2.77-.63,5.94,1.41,7.98,2.54,2.35,5.09,3.06,7.67,2,.07-.03.14-.05.21-.06.83-1.37,2.03-2.53,3.47-3.31h0ZM74.51,125.05c3.5-1.52,7.32-2.56,11.47-3.13.04-.72.16-1.43.36-2.11-1.89.41-3.78.11-5.65-.95-.88.62-2.1,1.61-3.67,2.96-.68.58-1.54,1.74-2.5,3.22h0ZM63.54,146.25c3.15-2.3,6.57-4.12,10.26-5.46,1.7-.62,3.81-.81,6.32-.55-.84-.66-1.59-1.48-2.18-2.44-1.07-1.73-1.6-3.72-1.49-5.68-2.77.41-4.97,1.36-6.59,2.87-1.06.99-2.16,2.64-3.52,5.28l-.06.12s-.04.07-.06.1l-.08.16c-.78,1.54-1.63,3.39-2.6,5.61h0ZM87.6,106.54c-.42.58-1.12.61-2.05.32-.96-.3-1.54-.78-1.59-1.56-.03-.5-.47-.87-.96-.84-.5.03-.88.46-.84.96.1,1.5,1.01,2.6,2.86,3.17,1.88.58,3.21.17,4.05-1,.29-.4.2-.97-.21-1.26-.41-.29-.97-.2-1.26.21h0ZM70.3,132.36c1.74-1.09,3.89-1.81,6.44-2.12.54-2.01,1.8-3.9,3.89-5.4-1.95.53-3.82,1.18-5.6,1.96-1.23.54-2.41,1.91-3.56,3.65-.4.6-.79,1.24-1.18,1.91h0ZM60.39,147.41c-.59-1.63-.34-3.7.35-6.33,1.11-4.26,3.25-10.14,3.53-18.23.26-7.71-1.62-13.27-5.75-16.64.16,2.91-.44,7.16-1.83,12.74-1.32,5.31-3.96,9.26-5.85,12.93-1.74,3.37-2.84,6.48-1.28,10.34,1.03,2.55,2.46,4.38,4.34,5.47,1.48.86,3.24,1.26,5.26,1.2-4.02-1.59-6.82-5.2-5.96-9.64.48-2.45,1.47-5.98,3.01-10.61.16-.47.67-.73,1.14-.57.47.16.73.67.57,1.14-1.5,4.53-2.48,7.99-2.95,10.39-.73,3.75,1.92,6.67,5.43,7.82h0Z" style="fill:#6a4322; fill-rule:evenodd; stroke:#6a4322; stroke-miterlimit:10; stroke-width:1.5px;"/><path d="M100.16,125.39c-.49-1.29-.32-2.55.46-3.81.29-.46.15-1.07-.31-1.36-.46-.29-1.07-.15-1.36.31-1.15,1.83-1.35,3.68-.64,5.55.19.51.76.76,1.27.57.51-.19.76-.76.57-1.27h0Z" style="fill:#6a4322; fill-rule:evenodd; stroke:#6a4322; stroke-miterlimit:10; stroke-width:1.5px;"/></g></svg>