<?xml version="1.0" encoding="UTF-8"?><svg id="b" xmlns="http://www.w3.org/2000/svg" viewBox="0 0 216 329.98"><g id="c"><path d="M114.21,44.71h-12.14c-2.29,0-4.15-1.86-4.15-4.15s1.86-4.15,4.15-4.15h12.14c2.29,0,4.15,1.86,4.15,4.15s-1.86,4.15-4.15,4.15Z" style="fill:#6a4322;"/><path d="M187.05,269.29c-1.52,0-2.99-.84-3.71-2.29-30.63-61.27-1.61-208.85-.36-215.11.45-2.25,2.62-3.7,4.88-3.25,2.25.45,3.7,2.63,3.25,4.88-.3,1.5-29.72,151.04-.36,209.77,1.03,2.05.19,4.54-1.85,5.57-.59.3-1.22.44-1.85.44h0Z" style="fill:#6a4322;"/><path d="M193.11,44.71h-66.76c-2.29,0-4.15-1.86-4.15-4.15s1.86-4.15,4.15-4.15h62.62V8.29H27.31v28.12h26.2c2.29,0,4.15,1.86,4.15,4.15s-1.86,4.15-4.15,4.15h-30.35c-2.29,0-4.15-1.86-4.15-4.15V4.15c0-2.29,1.86-4.15,4.15-4.15h169.95c2.29,0,4.15,1.86,4.15,4.15v36.42c0,2.29-1.86,4.15-4.15,4.15h0Z" style="fill:#6a4322;"/><path d="M114.21,44.71h-12.14c-2.29,0-4.15-1.86-4.15-4.15s1.86-4.15,4.15-4.15h12.14c2.29,0,4.15,1.86,4.15,4.15s-1.86,4.15-4.15,4.15Z" style="fill:#6a4322;"/><path d="M108.14,293.57h-36.8c-2.29,0-4.15-1.86-4.15-4.15s1.86-4.15,4.15-4.15h36.8c2.29,0,4.15,1.86,4.15,4.15s-1.86,4.15-4.15,4.15Z" style="fill:#6a4322;"/><path d="M193.11,329.98H23.16c-2.29,0-4.15-1.86-4.15-4.15v-36.42c0-2.29,1.86-4.15,4.15-4.15h31.39c2.29,0,4.15,1.86,4.15,4.15s-1.86,4.15-4.15,4.15h-27.25v28.12h161.65v-28.12h-61c-2.29,0-4.15-1.86-4.15-4.15s1.86-4.15,4.15-4.15h65.14c2.29,0,4.15,1.86,4.15,4.15v36.42c0,2.29-1.86,4.15-4.15,4.15h0Z" style="fill:#6a4322;"/><path d="M54.56,293.57h-31.39c-1.57,0-3.01-.89-3.71-2.29-1.76-3.53-42.69-88.24-.3-251.75.47-1.83,2.12-3.11,4.01-3.11h30.35c2.29,0,4.15,1.86,4.15,4.15s-1.86,4.15-4.15,4.15h-27.13c-36.54,143.73-6.6,226.09-.53,240.55h28.7c2.29,0,4.15,1.86,4.15,4.15s-1.86,4.15-4.15,4.15h0Z" style="fill:#6a4322;"/><path d="M193.11,293.57h-65.14c-2.29,0-4.15-1.86-4.15-4.15s1.86-4.15,4.15-4.15h62.14c36.58-113.05,5.8-221.95-.01-240.55h-63.75c-2.29,0-4.15-1.86-4.15-4.15s1.86-4.15,4.15-4.15h66.76c1.76,0,3.33,1.11,3.91,2.78.43,1.23,42.47,124.2.02,251.54-.56,1.7-2.15,2.84-3.93,2.84h0Z" style="fill:#6a4322;"/><path d="M67.46,141.87c-1.16,0-2.31-.48-3.13-1.42-1.5-1.72-1.33-4.34.39-5.84,1.43-1.27,5.04-5.44,4.65-9.5-.28-2.95-2.65-5.77-7.05-8.39-7.4-4.4-9.1-9.66-9.23-13.3-.38-10.77,12.11-19.76,13.54-20.75,1.88-1.31,4.46-.84,5.77,1.04,1.31,1.88.85,4.46-1.03,5.77-2.65,1.85-10.18,8.34-9.99,13.66.09,2.29,1.83,4.46,5.18,6.46,6.83,4.06,10.55,9.04,11.08,14.8.82,9.13-7.12,16.17-7.46,16.46-.78.68-1.76,1.01-2.72,1.01h0Z" style="fill:#6a4322;"/><path d="M136.46,152.49c-1.16,0-2.31-.48-3.13-1.42-1.5-1.72-1.33-4.34.39-5.84,1.43-1.27,5.04-5.44,4.65-9.5-.28-2.95-2.65-5.77-7.05-8.39-7.4-4.4-9.1-9.66-9.23-13.31-.38-10.77,12.11-19.76,13.54-20.75,1.88-1.31,4.46-.84,5.77,1.04,1.31,1.88.85,4.46-1.03,5.77-2.65,1.85-10.18,8.34-9.99,13.66.09,2.29,1.83,4.46,5.18,6.46,6.83,4.06,10.55,9.04,11.08,14.8.82,9.13-7.12,16.17-7.46,16.46-.78.68-1.76,1.02-2.72,1.02h0Z" style="fill:#6a4322;"/><path d="M99.95,130.69c-.97,0-1.94-.34-2.72-1.02-.34-.29-8.28-7.33-7.46-16.46.52-5.76,4.25-10.74,11.08-14.8,3.35-1.99,5.1-4.17,5.18-6.46.19-5.31-7.33-11.8-9.99-13.66-1.88-1.31-2.34-3.9-1.03-5.77s3.89-2.34,5.77-1.04c1.43.99,13.92,9.98,13.54,20.75-.13,3.64-1.84,8.91-9.23,13.3-4.41,2.62-6.79,5.46-7.05,8.42-.43,4.8,4.6,9.42,4.65,9.46,1.73,1.5,1.91,4.12.4,5.85-.82.95-1.97,1.43-3.13,1.43h0Z" style="fill:#6a4322;"/><path d="M95.5,190.58c.61-2.91.91-4.63.9-7.14-.02-6.7-2.64-9.92.41-16.01,3.4-6.79,9.72-8.91,14.62-12.25,2.37-1.62,2.24-5.18-.26-6.76-.02-.01-.03-.02-.05-.03-14.08-8.88-34.98-1.03-46.68,17.53-11.71,18.56-9.79,40.8,4.29,49.68l.04.02c3.12,1.96,7.07.91,8.47.54,6.74-1.79,15.75-13.57,18.27-25.58Z" style="fill:#6a4322;"/><path d="M123.25,157.28c-3.65-.7-6.59,1.16-10.73,3.78-1.1.7-6.96,4.49-9.65,9.97-.87,1.78-1.11,3.11-1.17,3.55-.26,1.8,0,3.44.33,5.43.29,1.76.62,3.75.62,6.18.01,2.79-.35,4.71-.94,7.54-1.25,5.94-4.04,12.09-7.87,17.34-2.82,3.87-5.94,6.82-8.89,8.47-.49.27-1.52.66-2.56.99-1.4.45-1.79,2.23-.69,3.25,0,0,.02.02.03.03,8.18,7.5,35.31.5,46.68-17.53,11.1-17.6,6.43-39.77.39-45.79-.74-.74-2.65-2.64-5.55-3.2Z" style="fill:#6a4322;"/></g></svg>