<?xml version="1.0" encoding="UTF-8"?><svg id="a" xmlns="http://www.w3.org/2000/svg" viewBox="0 0 800.99 507.81"><g id="b"><g id="c"><path d="M495.98,309.67c-.94.47-2.83,1.22-2.26-.57s.66-2.54-.47-2.82c-1.13-.28-1.98-.28-2.45.75-.47,1.04-.66,4.24-2.64,3.3-1.98-.94-2.54-2.36-3.67-1.04s-1.7,3.02-4.15,5.09-2.54,3.2-5.27,3.3c-2.74.09-4.81.19-4.53-1.32.29-1.51,1.13-4.43-.47-4.24-1.6.19-2.16.94-2.92,2.35-.75,1.42-1.98,2.55-2.54,2.27-.57-.29-2.36-.66-3.02-.48-.66.19-5.08,1.7-5.08,2.36s1.79,2.83,1.31,3.49c-.47.66-1.03.94-1.03.94v.02l-4.26-1.08.02-.07s-.38-1.7-.57-2.83c-.18-1.13-1.69-.47-2.92-.47s-.66-1.32-.19-2.07c.48-.76,1.23-.94,2.17-1.51.9-.54,1.04-1.88.1-2.36-.95-.47-3.02-.37-3.68.48-.66.84-1.98,2.73-2.45,3.95-.26.69-.79,1.57-1.24,2.66-.35.88-.65,1.88-.74,3-.19,2.54.57,6.12,2.74,7.91,2.16,1.79,5.08,3.86,6.21,3.77,1.13-.1,5.94-2.36,6.22-3.58.28-1.23.76-4.05,1.7-4.52.94-.48,2.26-.76,1.5-1.89-.06-.09-.12-.18-.19-.27-.77-1.06-1.87-2.18-.65-2.18,1.32,0,2.45-.09,3.67-1.03,1.23-.95,5.47-1.13,5.47-.66s-.38,2.26,1.5,2.45c1.89.18,2.64.18,3.21,1.03.49.74,2.5,2.06,4.07,2.45.23.05.44.09.64.1,1.6.09.94-3.02,2.92-1.98,1.98,1.03,2.45,1.5,2.45.56s-.29-4.52,1.32-5.84c1.6-1.32,3.86-.56,3.39.38-.47.94-.57,3.3.56,3.39,1.13.09,2.92-1.22,2.92-2.45s.38-4.05,1.42-4.15c1.03-.09,2.16-1.88,2.35-2.35.19-.47.47-4.71-.47-4.24Z" style="fill:#fddfb9;"/><path d="M474.24,327.48l-1.69-.43-.03.13c-.47,0-2.45.85-2.82,1.42-.38.56-.95,2.26-1.7,2.82-.75.57-1.7,1.98-1.79,2.83-.09.85.47,4.52,1.32,4.24.85-.28,3.96-3.3,4.52-5.18.57-1.89,4.15-2.83,2.17-5.75l.02-.08Z" style="fill:#fddfb9;"/><path d="M442.76,336.05c-1.41,1.13-3.58,1.41-4.99,2.17-1.42.75-1.14,3.63-.85,4.42.85,2.36,3.58,1.23,5.28.19,1.69-1.03,3.95-4.71,4.23-6.87.29-2.17-2.26-1.04-3.67.09Z" style="fill:#fddfb9;"/><path d="M438.8,331.33c-.09-1.98,1.23-6.22,1.89-8.76.24-.93.63-2.12,1.06-3.32.75-2.11,1.63-4.22,2.05-4.88.66-1.04-2.26-1.32-3.39-1.04-1.14.29-1.04-1.5-.66-2.92.37-1.41,1.41-3.95,1.69-4.52.28-.56-1.03-1.6-2.07-1.69-1.04-.1-2.26-.95-2.36-1.42-.18-.91-1.32-2.26-2.54-1.41-1.22.85-3.11,1.79-3.49,3.39-.37,1.6.57,2.26,1.32,2.26s3.3,1.6,2.26,2.64c-1.03,1.04-3.67,2.17-3.1,3.3.56,1.13,2.63,2.73,1.41,3.01-1.23.28-5.84-1.32-5.84.38,0,.78.14,1.36.19,1.8.06.51-.01.83-.57,1.03-1.04.37-1.32.75-1.32,2.45s0,4.14-.56,4.14-3.4-2.26-3.4-.94.85,2.82-.28,3.39c-1.13.57-3.58,1.04-3.01,2.92.56,1.88,0,3.49-.85,3.49s-3.58-.29-3.3.56c.28.85-.38,2.83-1.03,2.83s-.95-.47-1.8-1.98c-.84-1.51-2.54-1.04-2.82-.09-.28.94.09,1.69,1.13,3.86,1.04,2.17,2.92,3.01,1.32,3.01s-1.6-.47-2.07.85c-.48,1.32-1.79,5.56-2.27,3.39-.47-2.16-.66-2.73-1.97-2.26-1.32.47-1.89.19-2.27,2.17-.37,1.98-.28,4.8.38,4.99.66.19,1.13,1.13,1.23,2.64.09,1.51-1.23,2.73-2.26,1.88-1.04-.84-3.02-1.88-4.15-2.07-1.13-.19-1.79-.28-3.49-.66-1.69-.37-3.67.47-4.05.85-.37.38-1.5,1.79-1.79,2.36-.28.56.47,2.16,1.42,1.97.94-.18,2.63-.84,3.58-.84s1.22,1.97.66,2.26c-.57.28-3.58.28-4.06.37-.47.1-4.24.19-4.71.57s-3.95,3.01-4.14,2.35c-.19-.66-2.45-3.48-.66-4.14s2.73-1.13,1.98-2.17c-.76-1.03-1.42-1.41-.94-2.35.47-.95,1.03-4.05-.1-3.87-.61.1-1.81.01-2.8.08-.84.07-1.53.25-1.53.77,0,1.13.37,2.55-.38,4.15s-1.6,4.05-3.39,4.99c-1.79.94-1.98,1.79-5.28,2.07-3.29.29-5.27.38-5.56,1.51-.28,1.13-.18,4.99.1,4.99v.03c1.87-.28,4.96-.57,5.85-.57,1.16,0,2.16-.5,2.66-1s2-.84,3-.67,5.17,2.17,6.34,2.83c1.16.67,2.83-.5,3.5-.83.66-.33,2,.5,2.83.83.83.34,4,1.5,4.83,1.34.84-.17,3.34-.67,4.34-.84,1-.16,4.5-1.33,5-2,.5-.66,1-3.83,1.16-5.16.17-1.34,3.67-5.34,4.17-5.67s4-3.5,5-4.33c1-.84,5-7.5,5.5-8s2-1.34,3-1.5c1-.17,3.33-5.5,4-7s3-1.67,3-1.67c0,0,6.5-1.17,7.25-1.33.54-.12,1.73.14,2.16.68.22-.1,3.1-1.57,3-3.48Z" style="fill:#fddfb9;"/><path d="M363.14,343.2c1.23.28,2.92.94,4.52,1.04,1.6.09,2.92.28,5,.28s4.71-.19,5.84-.57c1.13-.37,3.39-.09,3.2.38s-.56,1.41-1.41,1.51c-.85.09-2.64,0-3.21,1.03-.56,1.04-1.69,1.89-.28,2.08.38.05.87.08,1.4.08,1.44-.01,3.22-.25,4.25-.93,1.42-.94,3.68-1.79,4.62-2.36.94-.56,2.07-1.79.47-2.54s-2.35-1.7-2.45-2.07c-.09-.38-1.51-1.6-2.82-1.6s-5,.18-6.22.18-3.49.19-4.71.19-3.68-.66-3.68-1.41.66-2.36-.75-3.11-3.49-1.41-5.09-1.88c-1.6-.48-4.14-.57-4.14-1.79s-.29-2.27.94-2.27,3.01-.18,4.14.85c1.13,1.04,5.56,2.64,6.22,2.64s4.34-2.26,5.56-3.11c1.22-.85,2.45-2.35,2.45-2.82s-1.32-3.87-.38-4.15c.94-.28,7.73-.85,7.73.47s.38,2.07,1.98,2.07,2.92-.37,2.73-1.03-1.79-4.81-.85-4.9c.94-.1,2.64.47,3.2,1.6.57,1.13,2.27,2.07,2.83,1.88.57-.18,1.89-1.13,1.04-2.26-.85-1.13-1.79-2.26-.76-2.63,0,0,2.17-1.7,3.11-1.23s2.92,1.79,4.9,2.07c1.98.29,2.45.1,2.36-1.22-.1-1.32-.38-2.36-1.6-2.36s-3.58-.75-3.21-1.6c.38-.85.66-5.75,1.23-5.93.56-.19,2.16-1.7,2.54-2.08.38-.37,1.79-1.5,1.79-1.88,0-.35.74-3.48.84-3.91l3.41-.7.1.14c.12-.24.83-1.52,2.62-2.03,1.98-.57,1.7-1.6,2.17-2.73s4.52-1.51,5.18-1.7c.66-.19,4.24-6.59,4.81-8.1.56-1.51,2.16-1.7,3.58-2.26,1.41-.57,7.72-7.82,8.48-8.95.75-1.13-2.36-2.36-4.24-2.08-1.89.29-2.64,2.83-3.4,4.05-.75,1.23-1.31,1.35-2.45,1.51-.66.1-1.97,1.51-2.92,2.55-.94,1.03-2.82,6.69-4.24,6.69s-4.05-.19-4.24,1.41c-.18,1.6-.28,3.67-1.41,3.77-1.13.09-6.88-.1-7.63,1.03-.71,1.07-4.22,6.7-5.15,8.5-.05.1-.09.19-.13.27-.66,1.41-1.13,2.73-2.35,1.5-.35-.35-.73-.69-1.11-1.03-.95-.84-1.88-1.67-2.28-2.55-.57-1.22-3.11-3.77-3.96-3.67-.85.09-2.45.19-3.67,1.03-.16.11-.34.23-.52.35-1.18.82-2.66,1.78-3.72,1.54-1.23-.28-2.64-1.04-2.17-1.79.17-.28.44-.75.69-1.26.42-.86.81-1.83.63-2.13-.28-.47-1.13-1.23-1.98-.76-.85.47-1.7,2.08-1.7,2.08l.04.15-2.92.85c-.08.11-.23.38-.23.97,0,.85,1.79,2.55,2.55,3.68.75,1.13,5.09,3.86,5.56,3.3.47-.57.56-2.45,2.35-3.21,1.17-.49,2.27-.91,3.26-1.05.52-.08,1-.08,1.45.02,1.32.28,3.39,1.79,2.74,2.35-.27.23-.55.61-.85,1-.44.54-.94,1.1-1.6,1.26-1.13.29-3.3.29-3.3,1.89s.66,3.29-.85,2.82-8.01-3.11-8.1-2.07c-.1,1.04.47,2.83-.47,3.11-.95.28-1.7-.47-1.89,1.13s-1.03,4.9-2.64,5.65c-1.6.76-2.44,1.61-3.01,2.08-.57.47-1.41,1.13-3.01,1.41-1.61.28-3.4.56-5.37.28-1.98-.28-1.42-.56-4.43.19-3.02.75-5.37,2.83-6.13,1.32-.75-1.51,0-3.11-1.98-3.2-1.97-.1-4.05-.66-7.06-1.13-2.27-.36-4.68-1.56-4.43-2.54.08-.32.45-.62,1.23-.86,3.1-.94,7.16-1.41,7.63-2.54s.66-3.11,1.6-3.3,2.35.1,2.26,1.51.28,2.36,2.07,2.64c1.79.28,2.55.66,2.83-.57.28-1.22.56-3.86,2.54-3.86s4.8,1.24,6.88,1.6c5.37.94,5.75-1.79,4.99-2.54-.75-.76-2.92,0-4.05,0s-.19-1.04,1.23-2.17c1.41-1.13.47-.56-.19-1.22s-.47-1.13,0-2.64c.1-.33.46-.54.97-.68,1.82-.48,5.53.03,6.19-.26.85-.38-.1-1.23-.76-1.98-.58-.67-.79-1.41-.83-1.57l-4.51,1.31c.25-.49,1.81-3.59,2.33-4.45.57-.95-.47-2.26-1.13-2.36-.66-.09-1.13-1.03-1.32-2.26-.19-1.22.75-2.64,1.13-3.39s-1.98-2.26-3.2-2.26-1.7,1.79-2.55,3.2c-.84,1.41-.75-2.35-.28-3.67s-.56-1.51-1.79-2.45c-1.22-.95-2.45,1.13-3.48,1.69-1.04.57-1.23,2.92-1.32,4.43-.09,1.41-2.64.43-2.98.3-.17-.68-.35-1.49-.52-2.18h.01s1.7-4.05,2.17-5.47c.47-1.41,0-4.43,0-5.37s1.6-1.69,1.98-3.11c.37-1.41-3.68-1.41-4.9-1.41s-1.13-4.05-1.13-5.28-1.42-3.48-1.7-4.61-.47-1.79-.94-2.83c-.39-.86-2.64-1.98-3.68-2.07-1.03-.1-3.86-.57-3.48-1.6.37-1.04,1.6-3.02,1.22-3.02s-3.11-.09-4.33-.09-3.39-.38-2.36-1.13c1.04-.76,1.98-1.7,1.23-2.08-.76-.37-3.68-.37-5.65-.56-.24-.02-.49-.05-.74-.07-1.78-.13-3.63-.07-3.88,1.67-.28,1.98-.66,3.2.28,4.33.94,1.14,1.6,1.23,1.89,2.83.28,1.6.37,2.54-.38,2.73-.75.19-1.32-.37-2.54-.66-1.23-.28-2.74-.56-3.49-.56s-2.64-.66-3.96-2.07c-1.32-1.42-2.45-2.55-3.2-1.79-.75.75-1.88,1.41-1.88,3.01s1.13,3.67,2.35,3.96c1.23.28,2.83.28,4.05,1.5,1.23,1.23,1.7,3.4.47,4.24-1.22.85-2.92,1.89-4.61,1.51-1.7-.37-2.83-.66-3.11,0-.29.66-1.6,2.83-2.45,2.07-.85-.75-4.62-1.41-5.28.38s-1.03,3.2-1.88,3.2-4.9-1.41-6.03-2.92c-1.13-1.5-2.17-4.9-2.73-5.55-.57-.66-2.74-2.27-3.87-1.42s-1.6,1.51-2.73,1.6c-1.13.1-4.43.95-4.62,1.23-.18.28-.47,2.35.57,3.39s2.64,2.64,2.73,3.77c.1,1.13.76,3.01,2.64,3.96,1.88.94,4.71,1.03,6.22.47,1.51-.57,2.35-1.23,4.52-1.23s4.43,2.07,6.03,1.13c1.6-.94,1.88-1.22,3.86-1.13,1.98.1,5.75.94,5.56,1.89-.19.94-.85,3.29-.56,4.99.28,1.7.09,2.45-.66,4.05-.76,1.6-.66,3.39.28,4.05s3.3,2.07,1.98,3.11-2.64,1.04-2.08,2.73c.57,1.7,2.93,4.05,3.21,5.75s3.11,4.15,3.95,3.3c.85-.85,6.79-4.52,6.51-3.02-.29,1.51.37,4.15-.57,5.66-.94,1.5-1.7,3.1-1.32,4.42s2.36,1.42,3.39,3.11c.66,1.08,2.04,1.89,3.3,2.34.72.26,1.41.4,1.88.4,1.32,0,4.62-.19,5.47,1.6s2.92,7.72,4.05,9.42c1.13,1.69,2.92,4.8,2.36,5.27-.57.48-1.89.85-1.98,1.89-.09.97.24,4.56-1.16,4.56-.08,0-.17-.01-.26-.04-1.69-.47-3.76-1.22-4.14-.56-.38.65-2.73,3.67-4.05,2.82-1.32-.85-2.55-2.92-3.96-3.77-1.41-.84-1.22-1.32-2.35-1.03-.53.13-1.45.42-2.31.75-1,.39-1.93.83-2.03,1.13-.18.54-.7,5.85-.75,6.37-1.01-.31-1.82-.38-1.82.25,0,.82.11,3.33.18,4.99-.24.14-1.51.8-1.94-.4-.47-1.32-.76-5.27-1.7-4.61s-2.54,3.39-3.58,4.99c-1.03,1.6-.28,2.07-3.86,4.33-3.58,2.26-4.24,3.77-4.34,4.71-.09.95,1.32,3.3,2.45,2.45,1.14-.84,2.93-2.73,4.06-2.92,1.13-.19,2.82.19,1.6,1.98-1.23,1.79-4.9,5.09-5,6.03l-.04.06c1.34.89,2.78,2,3.42,2.39.08.05.15.09.23.12-.2.3-.76,1.12-1.44,1.58-.85.56-2.64,1.32-2.73,2.07-.1.75.56,1.13,1.6,1.22,1.04.1,2.45.76,1.88,1.61-.56.84-1.31.75-.65,1.97.65,1.23,3.01,4.53,3.48,2.83s1.04-4.99,2.36-4.15c1.32.85,2.92,2.08,3.58,1.04.66-1.04,1.13-2.07,2.73-1.98,1.6.1,3.2.57,2.45,1.32-.76.76-2.17,1.41-2.26,2.83-.1,1.41,1.88,5.84,1.88,5.84h.04c.43-1.94.89-3.66,1.35-3.55.47.12,1.27.29,2,.44,0,0,.38-4.62.47-5.46.1-.85,1.89-1.32,4.43-1.32s2.26-.1,3.3-.47c1.04-.38,3.11-1.89,3.2-2.92.1-1.04-.66-1.51-2.73-1.79-2.07-.29-3.58,1.03-5.65.65-2.07-.37-1.13-3.67-.76-4.42.38-.76,1.61-.29,3.02.56,1.41.85,1.69,0,2.83-1.41,1.13-1.41,0-1.79-1.23-1.79s-.66-.85.28-2.26c.95-1.42.66-2.08.76-4.52.09-2.45.84-1.32,2.07-1.61,1.22-.28.75-3.67.28-6.12-.47-2.45.38-3.02.76-3.58.37-.57,2.35-.38,3.86.66,1.51,1.04,1.04-4.9,1.13-5.94,0-.05.02-.1.04-.15.43-.89,3.88-.97,4.95-.88,0,0,4.05.28,4.24.94s0,1.79,1.79,2.83c1.79,1.03,1.89,1.31,2.83.56s2.17-2.54,3.39-2.26ZM340.38,304.96c-.56.97-1.34,3.18-2.1,5.12l-.11-.04c-2.82,0-2.82-2.45-2.82-3.3s-.47-1.41-1.51-2.83c-1.04-1.41.66-2.35,1.7-3.77,1.03-1.41,2.54-.56,4.05-.56s3.2,1.04,3.58,1.7c.35.62-.14,1.93-.19,2.06-1.07.32-2.13.81-2.6,1.62ZM351.88,280.99l-.04.03s-.94,1.98-1.88,2.35c-.94.38-1.98-3.39-1.98-4.05,0-.57,1.63-.36,2.06-.3h.24c.04.09.12.2.23.31.34.35.86.97,1.37,1.66ZM336.48,263.6s.37-.66,1.98-.85c1.6-.19,6.31-.94,6.5,0,.19.94.66,1.79.09,2.26-.47.39-2.2,1.32-2.75,1.61-2.14-1-4.63-2.22-5.86-2.95l.04-.07ZM331.02,291.48c-1.32.94-1.6-1.7-1.32-3.68.29-1.98-3.29-2.16-4.99-2.26-1.69-.09.85-2.73,1.7-3.01.85-.29,1.41-4.71,1.41-5.19s-1.04-3.48-1.7-4.61,1.14-2.64,2.08-3.3c.94-.66,2.35-.28,3.95.28,1.61.57,1.98-1.13,2.92-1.69.95-.57,2.74,1.03,4.34,1.98,1.6.94,3.48,1.13,5.46,1.6,1.49.35,2.01.38,2.23.94.07.18.1.42.13.75.09,1.32-.86,2.11-1.32,2.26-1.41.48-1.6,2.36-1.6,4.34s1.98,6.03,3.01,7.16c1.04,1.13.29,1.32,2.36,3.11,2.07,1.79,1.6-.38,2.26.47.66.85-.19,3.01-.57,3.48-.37.48-2.45.1-4.05-.09-.34-.04-.48.04-.48.21,0,.59,1.85,2.21,2.37,2.43.66.28.56,2.17.56,3.2v.08h0c.06,1.05,1.05,2.67,1.51,3.31.47.66-1.04,1.51-2.07,1.04-.79-.36-1.25-1.63-1.46-2.56-.07-.3-.12-.56-.14-.74-.1-.75-1.32-2.45-1.79-3.3-.48-.84-.57-2.07-.57-3.01,0-.12-.01-.23-.03-.35-.16-.8-.83-1.49-1.57-1.82-.85-.37-3.21-.09-4.62-.28-1.41-.19-1.51-2.45-1.88-4.52-.38-2.07-4.81,2.82-6.13,3.77ZM361.92,340.48c-.95.56-2.08-.1-2.74-.38-.66-.28-.28-1.69,0-2.26.29-.57.94-.44,1.6-.28,2.74.66,2.08,2.35,1.14,2.92Z" style="fill:#fddfb9;"/><path d="M383.58,328.89c-1.11-.85-2.63-1.88-3.2-1.32-.56.57-3.58,3.2-4.24,4.05-.66.85-3.11,1.98-2.35,2.83.75.85,1.88.85,3.86-.1,1.98-.94,2.64-1.69,4.62-1.79,1.97-.09,3.67-1.88,1.31-3.67Z" style="fill:#fddfb9;"/><path d="M508.7,155.82c-1.51.09-1.98.56-3.3,1.13-1.32.57-1.32-1.41-1.32-2.07s-.09-1.79-1.41-1.42c-1.32.38-3.86-.28-5.18,2.64-.43.94-.77,2.06-1.1,3.17-.7,2.31-1.31,4.55-2.39,4.93-1.6.57-3.67-.65-4.71,2.74-1.03,3.39.28,6.4-1.03,8-1.32,1.61-3.02,1.61-3.96,1.89-.94.28-1.23.38-1.7,1.98-.47,1.6-.75,2.64.57,2.92,1.32.28,4.71,2.45,3.3,3.01-1.42.57-3.02,1.6-3.58,2.83-.57,1.22-2.64,8.38-3.58,8.67-.95.28-5.85.28-6.41,1.41-.57,1.13-1.41,4.24-2.36,4.9-.94.66-3.86,1.22-4.42,2.26-.57,1.04-1.04,3.96-2.27,4.71-1.22.75-3.95,1.51-4.89,1.79-1.62.49-4.34-.75-5.47-1.13s-5.84,1.23-8.86,2.36c-3.01,1.13-1.79,2.73-2.16,3.29-.38.57-3.86,2.83-5.94,3.4-2.07.56-10.36.47-11.49.09-1.13-.38-4.05-1.98-4.71-2.83-.66-.84-2.64-.09-4.71.29-2.08.37,1.03-3.3,2.16-4.34,1.13-1.03,5.94-2.35,7.64-3.2,1.69-.85-2.55-2.83-4.81-2.83s-3.67-1.98-3.67-3.11-.66-1.69-1.51-1.98c-.85-.28-2.45-.94-2.83-2.26-.37-1.32-.47-1.13-1.51-1.32-1.03-.18-1.79.29-2.26.95-.47.66-6.31-1.51-6.97-2.17s-1.22.09-1.51,1.32c-.28,1.22.38,1.22-.37,1.79-.76.56-3.77,1.22-5,1.41-1.11.17-.09,2.73.29,3.21.37.47-1.04.56-3.3,1.03-2.26.47-.19,3.39.19,4.15.37.75,3.67,1.98,4.33,2.26.66.28-.47,1.22-1.79,1.51-1.32.28-4.52-.48-5.18-.95s-1.88.47-2.92,1.7c-1.04,1.22-5.37-.75-6.6-.75s-.94,1.22-1.41,2.35-3.2-2.45-3.58-3.2c-.38-.76,1.51-4.24,2.64-5.56,1.13-1.32-2.45-2.92-4.52-2.83-2.08.1-2.55-.37-1.98-1.88.56-1.51,5.46-1.6,7.16-1.6s4.9.19,6.12.47c1.23.28,1.89-1.51,2.36-2.55.47-1.03.09-2.26-.85-2.63-.94-.38-1.79.28-2.83.75-1.03.47-1.97-.94-1.88-2.17.09-1.22-2.73-.28-3.77-.47s.57-2.54,1.32-3.2,2.36-2.64,2.83-3.49-4.06-2.54-5.75-2.54-.57,1.51-.28,3.01c.28,1.51-2.83,1.32-4.43,1.23-1.6-.1-.38-3.2.09-4.34.47-1.13-3.58-.75-5.46-.18-1.4.42-1.04,2.19-.83,3.57.07.48.12.92.07,1.23-.18,1.23-.75,2.73-2.16,3.2-1.42.48-2.92-.18-3.11-1.22s1.41-1.41,2.54-2.45c.18-.17.26-.37.26-.6,0-1.18-2.12-2.95-2.99-3.26-1.04-.38,1.79-2.26,2.54-2.83.76-.56.57-3.01.57-3.01v-.23c.92-.05,1.81-.05,2.46-.05,1.12,0,1.62-2,2.37-2.88.39-.45,3.51-1.16,6.58-1.77v-.07c-.01-.47-.67-2.07-1.42-1.69-.76.37-1.51,1.03-3.3,1.32-1.79.28-3.3.37-4.05,1.03-.76.66-1.42,1.79-2.26,2.07-.85.29-3.68,1.42-4.71,1.42s-10.18-1.32-9.24.37c.94,1.7,1.51,2.55,1.04,3.59-.05.11-.09.23-.12.35-.29,1-.07,2.3-.07,3.23,0,1.03,0,2.54-1.32,2.54-.69,0-1.71.1-2.73.11-.93.03-1.87-.03-2.54-.3-1.42-.56-4.9-.66-5.66.38-.75,1.03-1.6,4.24-.75,4.8.37.25,1.35.6,2.26.99,1.2.51,2.28,1.08,1.7,1.56-1.04.84-2.55,3.11-1.23,3.11s9.42-.19,8.39,1.13c-1.04,1.31-5.28,3.2-5.85,3.2s-5.18,1.6-5.93,1.98c-.75.37-1.79,1.22-1.98,1.88-.19.65-.84,1.68-.02,1.97t.02,0c.85.28,6.78-.28,7.91,1.79,1.14,2.07,3.68,4.24,6.22,3.86,2.55-.37,6.41-1.98,7.63-2.64,1.23-.65,6.41-2.16,5.75-.65-.66,1.5.38,4.89,1.89,4.14,1.5-.75,5.27-1.13,5.18.19-.1,1.32-.94,4.62-1.98,4.8-1.04.19-1.98-.09-2.83.95-.85,1.03-1.13,2.54-1.98,3.11-.84.56-1.97,1.22-2.26,1.88-.28.66-.47,4.05-1.69,5.46-1.23,1.42-2.83,2.83-4.53,2.74-1.69-.1-3.2-1.23-3.86-2.17-.66-.94-1.82-4.06-3.2-5.37-1.89-1.79-13.57-6.69-14.98-7.35s.47-4.62,1.41-6.41c.59-1.12.26-2.08-.19-2.75-.26-.4-.57-.69-.75-.83-.47-.37-1.22-2.16-1.79-3.01-.57-.85-4.52-1.79-5.75-1.98-1.22-.19-12.9-1.13-15.07-1.13s-6.13.75-9.14,2.36c-1.07.56-3.01,3.01-4.05,3.86s-2.92,2.92-3.86,3.39c-.95.47-1.98,1.13-2.08,2.17-.09,1.03.1,4.9,1.79,4.71,1.7-.19,5.37-.85,4.15,1.13-1.23,1.98-3.39,2.82-.28,3.67,1.32.36,2.4.68,3.29,1,1.21.42,2.02.83,2.45,1.26.76.76,6.22,5.66,6.13,8.2-.1,2.54-.38,4.8.47,5.56.85.75,5.37,1.69,6.31,1.13.94-.57,1.51-2.17,2.26-2.45.76-.28,8.1-4.15,9.42-3.58,1.02.44,4.34,3.74,6.2,4.99.53.36.94.55,1.15.47.94-.37,3.3-2.07,3.86-1.13.57.95,4.06,4.34,4.15,2.74.09-1.61-1.41-3.96-.09-4.06,1.31-.09,3.1.38,2.82,1.61-.28,1.22-.38,2.45.57,2.45s3.39-.19,3.48.37c.1.57,2.36,3.02,4.9,3.21,2.55.18,7.92-.38,9.33-1.04,1.41-.66,2.07-2.36,1.51-2.92s-7.63-5.18-5.94-6.6c1.7-1.41,2.64-1.22,3.68-1.6,1.03-.37,2.73-2.16,3.1-2.73.38-.57,3.3-6.31,4.81-6.12,1.51.18,3.67.09,3.11-.66-.57-.76-2.07-2.83-.1-3.4,1.98-.56,2.27-.75,2.36.57s2.73,2.36,2.92,1.22c.19-1.13,2.36-4.05,2.36-2.16,0,0-.48,1.51.18,2.07.66.57,3.77,1.13,4.53.28.75-.84,5.84-5.08,5.74-3.2-.09,1.88-.28,4.43,1.04,4.33,1.32-.09,3.86-.37,4.99.19,1.13.57,3.11,1.89,3.49.47.38-1.41-.57-4.33,1.6-3.58,2.17.76,4.9,3.02,5.94,2.45,1.03-.56,1.13-1.32,2.26-1.13,1.13.19,8.38,2.36,8.29,3.39-.1,1.04-.19,2.74.56,3.21.76.47,5.09,3.67,8.95,4.52,1.46.32,1.13.85,2.64,3.01,1.51,2.17,2.07-.28,3.49-.84,1.41-.57,2.82,3.95,3.48,4.9.66.94,1.13,0,2.17-2.27,1.04-2.26,1.32-1.41,2.92-3.76,1.6-2.36,1.79-.95,2.92-.76s1.13-2.35,1.32-3.58c.19-1.22,3.67.38,4.81.66,1.13.28-.1-3.11-.1-3.96s2.26-1.03,3.02-1.31c.75-.29,1.88-.95,2.63-1.7.76-.75,1.79,1.04,2.36,2.54.56,1.51,3.3-2.73,3.96-4.42.66-1.7,0-2.45-.1-3.58-.09-1.14,3.3-4.62,4.81-5.19,1.5-.56,4.61,0,5.37.19.75.19,1.5,1.13,2.54,1.13s2.36-2.26,2.92-2.92c.57-.66-.19-1.69-.94-2.73s-1.98,0-1.41-1.98c.56-1.98,3.95-6.5,5.08-6.97,1.13-.47,2.83-.19,4.34.19,1.5.37,1.22-3.39,1.5-4.52.29-1.14,2.83-1.32,3.49-1.51s1.13-4.52,1.23-5.37c.09-.85,4.05-2.07,5.46-2.73,1.41-.66-1.13-2.27-1.32-3.49-.19-1.22.57-1.79,2.92-1.88,2.36-.1,1.51-3.3,2.83-4.62,1.32-1.32.94-3.3,1.13-5.09s1.32-1.22,2.82-1.13c1.51.1.95-3.77.76-5.09-.19-1.32-1.51-1.32-2.73-1.6-.76-.17-.91-1.21-.83-2.11.03-.56.15-1.06.26-1.28.28-.57,4.33-.66,5.37-.66s2.36-2.64,2.73-3.58c.38-.94-1.69-.56-3.2-.47Z" style="fill:#f7cddf;"/><path d="M468.94,175.6c1.89-.37,2.73-.66,3.86-.66s6.32-.56,7.35-6.21c.33-1.77.19-2.74-.47-3.02s-1.79,0-3.2.85-4.43,2.07-5.37,3.2c-.94,1.13-1.7,2.36-2.36,3.3-.66.94-1.69,2.92.19,2.54Z" style="fill:#f7cddf;"/><path d="M460.37,141.49c1.32-.38,1.22-.19,2.17-.75.94-.57.47-1.89-1.79-1.89-.95,0-1.98.28-2.17.94-.19.66.47,2.08,1.79,1.7Z" style="fill:#f7cddf;"/><path d="M445.67,204.24c-.85.65-3.77,2.54-5.27,3.2-1.51.66-4.15,2.73-2.64,2.92,1.5.19,5.56-.47,7.25-1.51.76-.46,1.51-.47,2.55-1.13,1.03-.66,2.07-1.51,1.88-2.07-.19-.57-2.92-2.07-3.77-1.41Z" style="fill:#f7cddf;"/><path d="M436.64,153.37c1.79,0,4.52.28,4.61-.38.1-.66-2.63-2.45-4.14-2.35-1.17.07-2.55-.38-2.55.85,0,1.22.29,1.88,2.08,1.88Z" style="fill:#f7cddf;"/><path d="M419.1,158.54c1.23,0,2.55-1.6,2.55-1.6.19-.75,1.03-1.51-.29-1.7-1.31-.18-2.54.1-3.1,1.04-.57.94-.38,2.26.84,2.26Z" style="fill:#f7cddf;"/><path d="M415.43,189.35c-.66.85-1.23,1.7-2.36,1.98-1.13.28-2.73.85-3.11,1.51-.37.65-.66,2.16.95,2.82,1.6.66,1.79,1.7,3.29.38,1.51-1.32.95-1.51,2.92-1.32,1.98.19,2.27-2.73,1.61-3.67-.38-.54-2.64-2.55-3.3-1.7Z" style="fill:#f7cddf;"/><path d="M407.42,186.9c-.56.94-1.13,1.88-2.07,1.88s-4.62-.47-3.68.57c.95,1.04,5,2.73,6.88.38.46-.58.85-1.32.57-1.98-.29-.66-1.13-1.79-1.7-.85Z" style="fill:#f7cddf;"/><path d="M388.2,182.66c.66,1.7,1.7,2.45,2.36,1.23.66-1.23,2.16-3.87,2.63-2.55.48,1.32.19,2.45,2.08,2.83,1.88.37,5.65,0,5.74-.57.09-.5-.05-1.4-.15-2.74-.01-.15-.02-.3-.03-.46-.04-.64-.26-1.59-.38-2.51-.17-1.36-.11-2.66,1.13-2.77.74-.07,1.52,0,2.18.12,1.19.26,2.01.79,1.59,1.39-.63.9-1.71,3.21-1.71,3.97,0,.03.01.05.01.08.1.66.47,1.42,1.7.76,1.22-.66,1.6-2.08,2.64-1.61,1.03.48,4.71.76,5.65.19.94-.56,1.98-1.03,3.2-.28,1.23.75,3.21,2.54,1.98,3.01-1.22.48-4.05-2.26-3.86-.18.19,2.07,3.3,3.86,4.61,3.76,1.32-.09,6.13-1.31,7.92-.65,1.79.65,1.51.84,2.73.65,1.23-.18,3.2-1.5,3.49-2.82.28-1.32.84-4.05,0-5-.85-.94-2.64-4.05-.66-3.58,1.98.48,4.42,1.51,4.42,2.17s.95,2.92,2.64,3.49c1.7.56,8.01,1.41,9.24.56,1.22-.84,2.73-2.92,3.95-3.11,1.23-.18,2.83-.56,2.55-1.79-.29-1.22.66-4.14,1.5-2.54.85,1.6,1.32,1.98,2.92,1.98s2.64-.28,2.45-1.04c-.18-.75-.37-.37-1.88-1.13-1.51-.75-2.92-2.73-3.3-3.58-.37-.85-2.45-3.86-2.92-1.69-.47,2.16-.56,3.2-1.6,3.2s-2.07.75-2.54-.57-1.32-1.97-2.26-1.5c-.95.47-2.64.84-4.06,2.63-1.41,1.79-4.24,3.4-3.67,2.36.56-1.04-1.7-1.41,1.04-3.96,2.73-2.54,4.11-4.12,6.78-5.37,1.41-.66.75-.66,2.92-1.88,2.17-1.23.09-1.89-.57-3.02-.13-.23-.1-.38.05-.47.59-.35,2.96.19,4.01.19,1.31,0,.09-1.7-.85-3.39-.18-.32-.16-.53,0-.66.67-.53,3.78.47,4.24.85.56.47.85,3.67.85,4.9s4.42-3.58,5.65-4.81c1.22-1.22,3.11-1.79,4.33-2.45,1.23-.66-.28-3.95-1.03-4.8-.76-.85-3.21,1.5-4.72,2.35-1.5.85-.84-1.13-.37-1.98.44-.79,1.38-1.92,1.5-2.06l-.05-.08,2.92-1.94-.04-.06s-.37-1.89-1.32-2.36c-.94-.47-3.58-1.03-3.67,0-.1,1.04.19,3.49-.57,3.96-.75.47-2.54.75-3.58,1.79-.71.71-1.68,2.01-2.41,2.47-.33.21-.61.24-.79-.02-.57-.85-1.32-2.92-3.11-2.64-1.79.28-4.99.66-5.46,0-.47-.66-1.04-1.69-1.13-2.73-.1-1.04-.95-2.83-3.02-2.45-2.07.38-2.54,1.51-2.35,2.73.18,1.23,1.13,2.73,2.07,3.49.94.75,7.72,4.52,6.78,5.18-.65.45-4.14,3.09-6.51,4.7-1.08.72-1.92,1.24-2.16,1.24-.75,0-5.46-1.04-5.93.28-.47,1.32-2.83,2.17-2.92,1.41-.1-.75,0-1.98-1.89-2.35-1.88-.38-2.54-.29-3.48.28-.94.56-3.3,1.03-4.43,2.26-1.13,1.22-1.32,1.6-3.01,2.83-1.7,1.22-3.77,2.82-3.02,1.41s2.54-4.62,2.54-5.37-.75-2.07-1.6-1.13c-.85.94-1.79,2.73-3.48,2.92-.89.1-1.73.07-2.48.15-.69.09-1.32.25-1.86.7-1.13.94-1.22,1.69-2.54,1.79-1.32.09-3.96.66-4.43,1.32s1.23,3.58.1,3.67c-1.14.09-1.14,2.54-3.21,2.64-2.07.09-1.98.47-3.67-.66-1.7-1.13-1.7-1.04-2.55-.28-.19.17-.39.35-.6.53-.68.61-1.39,1.2-1.75,1.35-.47.19-1.79,2.07-2.92,2.17-1.13.09-2.73-.19-2.36,1.13.38,1.32,3.11,2.82,3.77,4.52Z" style="fill:#f7cddf;"/><path d="M393.95,194.91c.66,2.35,1.22,2.73,2.26,2.45,1.04-.29,1.7-1.98,1.13-2.17-.64-.21-4.05-2.64-3.39-.28Z" style="fill:#f7cddf;"/><path d="M319.8,194.73c-.37,1.22-1.98,3.11-1.22,3.77.75.66,7.91,3.86,8.57,3.58s3.2-2.07,4.62-2.73c1.41-.66,2.82-2.08,2.82-2.92s-1.32-8.3-2.26-8.2c-.94.09-8.19-.19-7.63-.85.57-.66,1.89-3.48,1.89-3.48.47-.76,1.31-2.36.56-3.02s-2.45-1.88-2.92-.38c-.45,1.45-.47,5.39-1.46,5.39-.05,0-.09,0-.14-.02-1.13-.37-3.77-.94-4.43-.75s-2.26,1.22-2.26,2.45,1.7,3.11,2.73,4.52c1.04,1.41,1.51,1.41,1.13,2.64Z" style="fill:#f7cddf;"/><path d="M303.69,179.65c-.19,1.79-.38,2.82-1.13,2.92-.75.09-1.13.28-1.13,1.6s4.9,5.56,6.31,5.65c1.42.09,4.53.57,4.71-2.07.19-2.64-.09-9.8-.75-7.82s-1.32,2.26-1.7,1.98c-.37-.29-2.26-1.13-2.26-1.13-.37-.29-3.86-2.92-4.05-1.13Z" style="fill:#f7cddf;"/><path d="M295.68,174.65c-2.35-2.07-4.9-4.8-2.82-4.61,1.84.16,4.73,1.68,7.67,2.93.36.16.73.31,1.09.46,3.3,1.32,4.8,2.35,5.37,1.03.56-1.32,1.69-2.16.19-2.35-1.08-.13-4.23-.99-5.56-1.75-.53-.3-.77-.58-.47-.8,1.03-.75,1.98-1.31,1.79-2.35s.09-1.6-1.79-2.54c-1.89-.95-1.98-1.7-3.39-2.45-1.1-.59-1.17-.55-2.2-.64-.3-.02-.68-.06-1.2-.12-2.26-.28-4.14-1.51-3.86-2.54.28-1.04,1.51-3.39-.38-4.9-.78-.63-1.03-.85-1.31-2.26-.29-1.41-4.15-3.2-5.09-2.36-.94.85-1.51,3.02-2.55,4.05-1.03,1.04-4.33,2.17-6.5,2.17s-4.52.57-5.08,1.41c-.5.75-.34,2.02-1.28,2.57-.12.07-.26.13-.42.17-1.41.37-2.17.84-2.92-.66-.75-1.51.38-2.36-2.07-1.89-.83.16-1.85.28-2.81.45-1.86.33-3.47.81-2.85,2,.95,1.79,3.49,2.92,5.19,3.3,1.11.25,5.02,1.14,7.58,2.16,1.34.53,2.31,1.09,2.31,1.61,0,1.51-1.04,1.51-2.64,2.17-1.6.65-.94,1.88-3.2,2.26-2.26.37-2.92.37-2.64,2.07.28,1.69,2.45,4.33,3.77,3.67,1.32-.66,4.8-1.5,6.59-.75s3.02,1.22,4.34.75,1.5-.19,1.13-1.6c-.38-1.41-3.58-4.52-3.3-5.65.18-.74.98-1.56,1.87-1.56.48,0,.98.22,1.43.81,1.32,1.69,5.27,3.76,6.59,5.55,1.32,1.79,2.55,4.15,3.77,3.49,1.23-.66,1.23-1.04,2.92-1.32,1.7-.28,5.09.09,2.73-1.98Z" style="fill:#f7cddf;"/><path d="M284.19,200.95s-4.99-.57-6.69-.85-2.92-1.7-3.01-4.05c-.1-2.36,5.84-.1,7.25.09s1.32-1.6.57-2.92c-.76-1.32-4.15-1.41-4.9-3.58-.76-2.16.28-1.98,1.6-2.64s-.28-3.1-1.04-4.61c-.38-.77-1.6-2.07-2.26-2.07s-1.98,1.03-1.98,1.97.57,4.34-.85,5c-1.41.66-6.5,2.35-6.21,3.39.28,1.03,1.88,1.79,1.6,2.92-.29,1.13-2.92,3.39-3.39,3.3-.48-.1-3.4-.95-3.49-2.26-.09-1.32,0-3.02-1.6-3.77-1.6-.76-5.84-2.17-4.05-3.11s3.01-1.79,2.92-2.83c-.1-1.03-1.79-4.71-2.36-3.2-.56,1.51-.66,2.45-3.2,4.43-2.54,1.97-8.1,5.74-8.95,6.97-.85,1.22-1.98,5.37-1.89,5.84.1.47,2.36,4.05,3.58,3.96,1.23-.1,4.62-.57,5.47-.95.85-.37,2.35-1.31,3.48-1.5,1.14-.19,3.02,3.2,2.64,4.99-.37,1.79,0,3.2,1.42,3.49,1.41.28,5.84.66,6.59.84.75.19,2.54,2.17,3.58,1.7,1.04-.47,3.2-2.54,4.05-2.26.85.28,1.51,1.03.1,2.17-1.42,1.13-2.45,2.26-2.45,3.39s2.26,2.54,2.54,2.73,1.79.47,1.98,1.6,1.04,1.41,1.7,1.51c.65.09,1.6-.47,1.88-.85s1.51-1.88,2.35-2.35c.85-.48,1.04-3.77,1.98-3.87.95-.09,2.74-.47,2.83-1.98.09-1.5-.38-10.55-1.79-10.64Z" style="fill:#f7cddf;"/><path d="M315.19,313.15c-.76-.19-1.32-1.7-2.45-4.9-.89-2.53-5.88-3.58-8.64-3.83-.75-.07-1.33-.08-1.63-.04-1.42.19-2.64,6.13-2.64,8.11s-1.98,7.06-2.73,8.76c-.05.1-.08.21-.16.28-.92.74-2.29.57-3.52.66-1.06.08-.84,1.23-.52,2.09.05.13.1.25.15.36.37.85,3.01,2.07,4.14,2.73s.85,2.17.85,3.58-1.89,1.79-3.58,1.79-2.17-3.3-2.55-4.71c-.23-.88-.87-2.32-1.32-3.55-.27-.73-.47-1.39-.47-1.82,0-1.13,1.32-4.8,1.61-5.56.28-.75.37-3.58.47-4.52.14-1.39-3.39-1.88-5.18-2.07-1.79-.19-3.21-.28-6.03-.28s.28-1.89,1.13-2.36c.84-.47,2.92-2.36,4.05-3.58,1.13-1.22,4.71-5.56,5.18-6.31.41-.67,6.24-.67,8.19-.29.27.06.47.12.57.19.76.57,1.41,2.45,1.41,3.58,0,.64,1.34.91,2.7,1.04,1.06.09,2.13.09,2.58.09,1.04,0,2.45-.18,3.39-1.03.94-.85,1.51-2.64,1.32-3.3-.19-.66-1.79-1.13-5.65-2.07-1.65-.4-3.71-.9-5.72-1.32-2.68-.56-5.3-1-6.81-.94-2.64.09-3.39.47-4.43.75-1.04.28-2.83-.75-3.58-1.79-.75-1.04-2.73-7.07-2.83-7.73-.09-.65-2.35-1.97-3.86-2.07-1.51-.09-5.65-6.03-6.41-7.35-.55-.96-2.34-1.52-4.37-2.08-.76-.21-1.54-.42-2.31-.65-2.83-.85-4.24-4.14-5.28-6.41-1.04-2.26-1.79-7.53-1.79-8.47s.66-1.79,2.45-1.7c1.79.09,2.26,2.54,3.2,3.77.94,1.22,3.68.19,5-.38,1.31-.56,1.13-2.54.94-3.3-.19-.75-1.42-2.35-2.45-2.63-1.04-.29-2.64-1.51-2.92-3.68-.29-2.17.85-2.92,1.13-4.33.28-1.42-1.32-3.87-2.26-4.52-.95-.66-4.62-4.43-6.03-5.94-1.42-1.51-5.47-4.43-5.47-4.43-.19-.66-.66-1.13-1.79-1.13s-3.77.75-2.92,1.98c.85,1.22,5.65,5.18,6.13,6.59.47,1.42.37,2.17-.38,3.87-.75,1.69-.85,2.54-.75,4.61.09,2.08,2.07,9.05,2.35,10.46s.57,6.97.09,8.48c-.47,1.51-1.31,2.45-1.31,3.49s.09,2.07-.85,2.92c-.94.85-1.98,1.69-2.17,2.73s1.23,7.63,1.51,9.14,1.69,3.2,2.54,3.3c.85.09,4.62,2.07,5.28,3.39.66,1.32,1.51,6.59,1.32,8.76s-1.04,4.43-2.45,6.12c-1.42,1.7-2.73,2.55-2.73,3.3s-.48,6.41-.57,8.39c-.09,1.97-1.22,5.93-1.98,5.27-.75-.66-2.26-1.22-3.3-1.51-1.03-.28-2.82-1.88-4.14.1-1.32,1.98-1.7,7.72-1.79,8.76-.03.29-.09.77-.15,1.33-.16,1.44-.3,3.43.24,4.04.76.85,3.02,4.52,3.02,6.03s-1.32,4.71-1.32,6.97-.28,6.41-1.51,7.73c-1.22,1.32-1.6,1.88-1.6,2.73,0,.37.09,1.32.26,2.32.23,1.33.61,2.74,1.15,2.96.42.16,1.47.34,2.54.42,1.38.09,2.78.01,2.83-.52.1-.94.38-4.24.29-6.31-.07-1.43-.5-4.13-.13-5.49.17-.62.49-.96,1.07-.82,1.88.47,3.39,1.03,4.99.47,1.6-.57,2.55-1.51,2.64-3.11.09-1.6,0-4.24,1.13-4.43s3.11.19,3.96,1.13c.84.94,8.38,8.01,10.08,9.52,1.69,1.5,5.84,2.16,7.53,1.5,1.7-.66,3.3-.94,4.24-1.31.95-.38,3.11-.76,3.11-.1s-.09,3.3-.19,4.24c-.09.94-1.5,3.3,0,4.71,1.51,1.41,4.81.38,6.69-.75,1.89-1.13,4.43-1.32,4.62-2.83.19-1.51.38-3.39,1.32-3.77.94-.37,2.7-.88,3.67-1.79,1.32-1.22,5.28-6.12,6.22-7.44.94-1.32,4.81-9.33,7.35-14.42,2.54-5.08,3.39-13.18,3.02-16.11-.38-2.92-5.28-3.58-6.03-3.76Z" style="fill:#e0d6cf;"/><path d="M235.21,257.76c-1.13-.94-2.92-.57-4.43-.57s-2.54-.56-3.67-1.41c-1.13-.85-2.26-4.33-2.64-6.22-.38-1.88-1.51-1.32-2.73-2.17-1.23-.84.84-4.23,1.41-4.89.56-.66.19-2.64-.1-3.4-.28-.75-4.42-4.24-5.18-4.52-.68-.25-1.67-.82-1.85-.92-1.78,1.11-3.29,2.11-4.13,2.81-.74.62-2.24,1.82-4.1,3.31-.02.31-.21,3.92-.75,5.45-.57,1.6-1.41,5.37-1.51,6.59-.09,1.23-.09,1.98.75,3.39.85,1.42,2.36,2.83.57,3.4-1.79.56-5.09.84-5.75.84s-2.54.1-2.92.66c-.29.44-.86,2.96-.53,4.6.08.48.25.89.53,1.15,1.23,1.13,2.08,2.26,1.79,3.3-.28,1.03-.94,1.98-.37,4.9.56,2.92,2.35,5.56,3.39,6.69,1.03,1.13,4.05,5.65,5.37,6.97,1.14,1.14,3.04,2.77,3.66,5.07.1.36.17.75.2,1.15.19,2.92.38,3.11.66,4.61.28,1.51.38,3.49,0,4.71-.38,1.23-.85,1.89-2.64,1.89s-4.05.37-4.52-.19c-.47-.57-1.23-1.88-1.23-1.88l-.05-.1c-.54.4-.89.77-1.05,1.24-.25.75-.5,2-1.25,2.25s-1.75.25-2.25,1.25-.25,1.75-1.5,2.25-4.75.75-5.25,1.75-.75,3.25-1.75,3.5-3.25,1.5-3.75,2.5-2,2.75-4.5,3.5-3.25.75-4.25,2.25c-.13.19-.33.44-.58.72-1.13,1.31-3.24,3.47-3.83,5.46h-.04s-1.04.65-1.13,1.59c-.09.95.66,2.36.66,3.68s.38,2.83.57,4.14c.18,1.32,1.69,1.98,1.69,1.98l.04.05-.38.38-.11.41c.8.21,1.5.43,1.94.59,1.34.5,3.84,0,5-.67,1.17-.66,3-1,4-1s4,0,4.34,1.34c.21.84.22,2.68.19,3.92.28.11,2.07.87,2.5,1.48.48.66,1.32.38,2.36,2.17s3.96,2.83,5.09,2.26c1.13-.56,1.98-1.79,3.77-2.64,1.79-.84,2.54-.84,3.58-.37,1.03.47,3.76,1.32,4.33,1.5.57.19,2.17,1.79,2.17,1.79l-.04.09h0s1.71.63,1.71.63c0,0,.5-3,1.84-2.83,1.33.16,3.66-.84,4.33,0,.12.16.32.42.57.76.14-.55.63-2.77-.03-3.92-.75-1.32-1.69-1.98-2.82-3.49-1.14-1.5,1.03-2.07,2.16-1.88,1.13.19,3.3-.47,4.24-.47s1.23-1.23,1.23-3.02.47-7.63.56-8.29c.05-.34,1.01-1.49,2.07-2.61.98-1.05,2.05-2.06,2.55-2.38,1.03-.66.28-2.07,0-3.02-.28-.94-1.7-3.2-1.79-4.33-.09-1.05.07-4.56.39-6.02.03-.11.05-.21.08-.29.38-1.23,2.83-2.26,3.58-3.11.75-.85.56-1.98.66-4.05.09-2.08-.19-5-.57-5.94,0-.03-.02-.05-.03-.08-.41-1.02-1.66-3.91-1.76-5.1-.09-1.22-2.07-2.73-2.92-3.58-.84-.85-1.41-4.15-1.5-5.37-.1-1.23-.57-1.6-1.23-2.45-.66-.85.66-2.36,1.41-3.3.76-.94,1.89-2.26,2.45-3.11.57-.84.47-2.16.38-3.39-.09-1.22,0-3.48.19-5.09.19-1.6,2.26-1.22,3.39-1.13,1.13.1,1.98-2.45,1.98-3.58,0-1.13-1.79-3.2-2.92-4.14Z" style="fill:#fff7b2;"/><path d="M178.67,228.18c0,1.69.19,4.89.09,6.21-.09,1.32,1.14,5,2.45,5.37,1.32.38,6.88,2.26,6.98,2.83.09.57,1.5,1.41,3.58,1.51,2.07.09,2.54-.38,3.86-.66s3.01-.28,3.01-.28l.08-.02c-.19-.63-1.05-1.51-.72-2.29.38-.88,1-2.13,1.13-2.76.13-.62.37-2.24.37-2.87s-1-2.13-2-2.13-2-1-2-1c-.62-.62-.37-1-.37-1.62s-.87-.88-1.13-1.75c-.02-.06-.03-.13-.03-.19h-.09c-.06-.62.25-2.38.5-3.74h-.07s-.94-2.08-.94-3.3-1.04-4.15-1.89-4.15c-.2,0-.8-.02-1.61-.05-2.54-.08-7.14-.19-8,.24-1.13.56-3.29,2.64-3.67,3.39s-1.13,2.83-.66,3.58c.47.75,1.13,1.98,1.13,3.68Z" style="fill:#fff7b2;"/><path d="M189.94,214.7c.29,0,.53-.06.7-.19.84-.66,1.31-2.45,1.31-2.45l-.03-.12c-.11.02-.2.03-.29.03-.75,0-3.75-2.75-3.75-2.75,0,0,0-.07-.02-.19l-.15.02s-1.03.38-1.6.94c-.56.57-1.13,2.26-.09,3.11.83.68,2.75,1.6,3.92,1.6Z" style="fill:#fff7b2;"/><path d="M202.98,297.98c-1.04-.19-2.73-1.04-2.73-1.79s.65-2.55-.48-3.21c0,0-5.74-4.14-6.78-4.99-1.04-.85-2.07-4.05-2.07-5.56s.47-5.65,1.41-7.63c.94-1.98-2.73-1.88-4.43-1.98-1.69-.09-1.22-1.41-.28-2.45.94-1.03-.19-1.98-1.51-2.35-1.32-.38-.66-2.17-.84-3.49-.19-1.32-1.23-.75-2.17-1.13s0-2.17,0-2.17v-.05c-1.38-.37-2.66-.72-3.22-.72-1.25,0-2.75,1.5-3.75,2-.4.2-.8.08-1.24-.17-.72,1.35,1.14,6.2,1.14,7.24s-.94,1.41-1.98.65c-1.03-.75-2.82-4.61-2.92-5.93-.06-.91.59-2.23,1.19-3.36.27-.51.52-.97.7-1.35.56-1.23-4.34-1.51-5.56-1.51s-1.13-1.69-.75-2.54c.37-.85,1.97-.66,3.58-.66s1.03-1.13.84-2.36c-.19-1.22-1.79-1.69-2.54-1.79-.75-.09-.57-1.98-.38-3.11s-4.05-2.16-5.93-2.16-1.79.94-1.89,2.45c-.09,1.5,1.42,3.29,1.42,4.14,0,.05,0,.11-.03.17-.3.91-2.76,2.62-3.46,3.51-.75.94-2.17-1.04-2.64-2.36-.47-1.32-1.22-1.6-2.82-1.88-1.61-.29-1.51-1.42-2.17-2.74s-2.54,1.51-3.2,2.36-1.98.09-3.3-.38.09-4.52.85-5.37c.75-.85,2.07-3.39,3.11-4.61.54-.65,1.55-.8,2.44-.71.81.08,1.52.35,1.7.61.38.57-.19,2.45-.56,3.58-.38,1.13,3.01,2.64,3.95,2.45.1-.02.19-.05.27-.09.71-.32.87-1.23.96-2.08.09-.94.85-2.54,1.32-3.2,0,0,1.13-2.54,1.03-4.24-.09-1.69-2.54-3.39-3.11-4.33-.56-.94,2.45-1.79,3.49-2.17s1.04-2.83.94-3.77c-.09-.94-3.3-1.13-5.09-1.51-1.79-.37-2.35-.94-2.45-1.41-.09-.47-5.93-1.03-5.93-1.03-.66,0-2.26.18-2.83.84-.56.66-1.13,1.7-.47,2.36s1.23,1.79.57,2.54c-.66.76-2.26,1.13-2.26,2.36,0,1.12-1.11,4.06-1.29,3.46-.02-.05-.03-.14-.03-.26,0-1.41,0-2.17-.57-3.11-.56-.94-.85-1.41-.28-2.73.56-1.32,1.88-2.54.66-3.96-1.23-1.41-2.92-2.07-3.96-2.07s-4.52-.19-4.52,1.6c0,.32,0,.77.02,1.32.07,2.56.26,7.06.26,7.91,0,1.04.38,8.86-.85,11.12-1.22,2.26-1.41,2.55-1.6,4.15s.94,4.99,1.98,5.18c1.04.19,1.04-.38,3.49,0,2.45.38,3.95.66,3.29,1.32s-3.58,1.98-3.58,3.01,1.23,2.45,2.55,2.55c1.32.09,6.22.28,7.25.94,1.04.66,3.58,3.48,2.36,3.58-1.23.09-4.05.38-3.77,1.51s1.22,1.03,2.17,1.69c.94.66,2.07,2.36.75,2.64-1.32.28-3.11.09-4.05.57-.94.47-1.6,1.31-.85,2.07.75.75,3.49,5.37,2.83,5.93-.66.57-3.3,2.26-3.11,3.39.19,1.14,1.13,3.77,1.13,3.77,0,0,.02.04.04.1.15.35.66,1.55.9,2.35.28.95,2.36,3.21,3.58,3.77,1.23.57,3.58,1.89,4.05,2.64s1.6,2.64,1.51,4.14c-.1,1.51-.66,4.81-.19,6.41.47,1.6,3.02,3.86,3.77,4.15.75.28,1.88.94,3.11,1.13,1.22.19,1.79.66,2.92-.38s1.69-1.41,1.79-.94c.09.47.09,1.69.85,3.77.75,2.07,2.54,4.99,3.29,6.12.76,1.13,2.17,1.79.95,3.39-1.23,1.6-.95,1.89-2.26,2.08-1.32.18-2.36.56-2.08,1.69.29,1.13,1.79,1.89,2.73,1.89s5.19.18,5.66-.95-.1-2.16,1.32-2.73c1.06-.42,1.91-.52,2.42-.99.17-.15.31-.35.4-.61.38-1.04.76-3.02,1.79-3.2,1.04-.19,6.13-1.98,7.54-4.24,1.41-2.26,1.7-3.11,3.02-4.34,1.31-1.22,5.55-3.48,6.68-4.24,1.13-.75,1.98-2.45,2.83-3.39s2.64-1.22,3.3-2.35c.66-1.13,1.69-3.58.66-3.77Z" style="fill:#dae6b2;"/><path d="M166.52,197.18c-.57-.66-1.98-1.41-2.08-2.26-.09-.85-1.13-3.77-2.07-3.3s-.94,1.32-2.35,1.32-3.11.75-3.4,1.22c-.28.48-1.03,3.4-1.79,3.77-.75.38-2.26,1.32-1.97,2.08.28.75,2.54,4.52,1.41,4.71-1.13.18-2.26-.66-2.64,1.22-.38,1.89-2.54,4.33-3.3,4.52-.14.04-.42.06-.78.06-1.52,0-4.49-.35-4.87-1.19-.47-1.03-.66-2.54-.28-3.01s1.41-2.26,1.13-2.83c-.21-.42-2.45-1.79-3.77-1.32-1.32.47-5.18,2.17-4.33,3.21.84,1.03,1.79,3.86.37,3.95-1.41.1-2.73-.37-3.29.57-.57.94-.85,2.26-2.17,2.26s-2.36,0-2.83.94c-.38.75-2.14,3.26-2.83,3.26-.18,0-.28-.15-.28-.53,0-1.88.47-5.27-.56-5.37h-.02c-1.06-.09-4.69-.08-5.45,1.32-.75,1.42-4.33,12.06-4.9,13.57-.56,1.51-.18,4.14.95,3.48,1.13-.65,3.01-1.88,4.24-2.26.21-.06.43-.1.64-.14,1.06-.16,2.07-.1,1.52-1.27-.66-1.41-2.54-2.83-.75-2.92s3.49.75,4.8-1.41c.53-.87,1.26-1.86,2.05-2.7,1.19-1.25,2.54-2.17,3.61-1.83,1.79.57,8.19,1.89,8.85.85.66-1.03.85-1.6,2.08-1.69,1.22-.1,5.37.09,6.03-.47.45-.39,1.26-2.03,2.09-3.01.38-.45.76-.76,1.11-.76,1.13,0,2.26,1.03,3.2,1.69s2.45,1.51,3.49.76c1.03-.76,2.73-5.19,3.86-5.47s3.2-.94,3.58-1.51c.38-.56,3.49-4.05,3.11-4.8s-.85-4.05-1.41-4.71Z" style="fill:#b0dff5;"/><path d="M156.25,313.83c-1-.25-1.37-.62-1.37-.62,0,0-.89-.56-1.86-1.38-.26-.01-2.82-.14-3.27-.85-.47-.75-.38-4.62-.38-5.84s-.09-4.15-.66-5.84c-.56-1.7-6.22-4.05-7.91-5.94-1.7-1.88-.66-5.27-.38-6.88.28-1.6-2.26-7.16-2.26-8s-3.49-4.15-4.81-4.53c-1.32-.37-6.97-6.5-8-8.19-1.04-1.7-4.06-5.19-6.13-5.75-2.07-.57-2.64,1.13-3.77,1.51-.1.03-.19.03-.28.01-.82-.3-.66-3.49-.66-4.35,0-.79-4.55-.72-6.94-.74-.45.01-.82,0-1.07-.01-1.6-.09-2.54-1.41-2.54-2.36s-2.07-1.41-4.71-2.45c-2.64-1.03-2.36-1.31-3.58-.94-1.23.38,0,3.02,1.03,4.05,1.04,1.04,4.15,3.68,4.72,4.53.56.84-2.27,2.82-3.11,4.05-.85,1.22-.19,7.91-.76,8.66-.56.76-1.88-.47-4.61-2.07-.14-.08-.28-.16-.4-.22-2.23-1.15-1.24.84-1.77,1.73-.57.94-.85,7.16-1.13,9.04-.28,1.89-1.98,5.75-2.54,6.32-.57.56-1.7-3.58-1.89-5-.19-1.41-1.51-3.58-1.79-4.61-.28-1.04,1.32-2.26,2.17-2.92s3.58-4.34,4.52-6.32c.44-.93.64-1.82.71-2.66.09-.94.04-1.82.04-2.61,0-1.51-.28-5.28-.47-7.16-.19-1.89-1.69-4.34-2.07-5.28s.75-1.88,1.79-2.35c1.04-.48,1.32-.66,3.49-.95,2.16-.28,1.31-1.6,2.54-3.2,1.22-1.6,5.37-1.22,6.41.19,1.03,1.41.37,4.62.66,5.84.28,1.23,3.29,1.41,5.18,2.26,1.66.75,1.19,1.2,1.06,1.3l.06.05c.07-.09.12-.14.12-.14,0,0,2.12-.25,3.37-.25.58,0,1.54-.16,2.53-.36.24-.79.99-3.19,1.15-3.9.13-.55-.2-1.86-.74-2.95-.28-.56-.61-1.06-.96-1.38-1.03-.94-4.33-2.73-4.9-3.67-.56-.95.85-1.42,1.79-1.89.95-.47.85-2.07.85-2.82s-2.26-2.64-3.2-3.77.09-2.64.09-3.49-4.43-2.17-5.37-2.54c-.94-.38-1.88-.47-2.73-.29-.85.19-.47,5.19-.47,5.85s-1.89,1.22-2.64,1.13c-.75-.1-.28-3.11-.28-4.71s-1.23-4.53-1.23-5.19,1.23-3.29,1.23-3.86-4.43.47-4.71-.09c-.16-.31-1.34-.51-2.59-.61-1.04-.08-2.13-.1-2.69-.05-1.22.09-1.6,2.45-1.98,3.2-.37.75-1.88,1.04-2.64.85-.75-.19-3.2-1.51-3.86-2.17s-3.58-1.03-4.43-.94c-.84.09-3.95-.38-5.08-.38s-2.92.47-3.68.85c-.75.38-4.24,1.04-4.24,1.04h-.02c-.97,2.05-2.96,6.48-3.49,7.14-.28.35-1.31,1.51-2.3,2.9.16.27.85,1.36,1.67,1.36.94,0,3.2-1.23,3.29.28.1,1.51.38,3.11,1.42,3.11s2.73.28,3.39-.47c.66-.76,1.88-2.26,2.54-2.26s6.22.84,6.79.47c.56-.38,1.03-2.74,2.16-3.58,1.13-.85,3.3-1.7,4.24-1.98.95-.28,3.11.19,3.11,1.03s-.28,1.89-1.41,2.64c-1.13.76-2.64,1.23-2.83,2.36s-.94,6.31-1.79,5.65-4.61-2.35-5.37-1.41c-.75.94-3.11,3.11-3.86,3.2-.75.1-3.49.85-4.81,1.32-1.3.47-3.62.84-4.21,3.69.61.88,1.13,1.55,1.47,1.86,1.5,1.33,3.84,3.33,3.84,3.33,0,0-2.34,5.5-2.34,7s-.83,11.17-2.66,10.83c-1.84-.33-3.67-1.33-4.67-1.5-1-.16-3.17-.5-3.83.34-.67.83-7.84,6.83-7.84,7.66s.34,2.17-.5,2.5c-.83.34-3.16.5-3.83,1.5s-1.33,6.67-1,7.84c.33,1.16,1,1.33,2.33,1.66,1.01.26,8.72,2.59,12.83,3.94.99-.91.99-7.62.71-9.76-.28-2.17-2.07-3.96-1.88-5.47.19-1.5,3.58,1.89,4.33,2.74.75.84,2.36,3.67,2.73,4.71.38,1.03.29,4.14.1,5.37-.19,1.22-.66,3.01-.66,3.01l.17.21c.21-.04.34-.08.34-.08l3.5,3.67s3.67-3.34,5.17-3.5c1.5-.17,2.5-1.34,2.33,0-.17,1.33-1.67,2.5-.33,3,1.33.5,8,2.66,8,3.83s-1,2.67.5,4.17,3.66,3.83,4.5,5c.35.49.83,1.16,1.34,1.8.34.42.7.83,1.06,1.15.04-.24.27-1.12,1.4-1.44,1.32-.38,4.05-1.6,4.71-3.3.66-1.69.66-4.33,2.17-4.71,1.5-.38,4.99.09,4.9,1.79-.1,1.7-.38,6.31.56,7.16s5.47,4.24,7.16,5.47c1.7,1.22,2.92,1.6,2.64,3.67-.28,2.07-1.04,3.11-.94,4.14v.02c.49.05.98.08,1.5.08,1.16,0,2.5-1.17,2.83,0,.11.41.25.87.36,1.33h.11c1.13-.39,1.51-2.37,1.7-4.06.19-1.7,0-2.45-.38-3.87-.38-1.41-2.83-1.22-3.86-1.5-1.04-.29-.57-4.71-.1-5.94.47-1.22,1.23-.66,2.92-.75,1.7-.1,1.32-2.26,1.42-3.3.09-1.04,2.92-.85,4.52-1.22,1.6-.38,1.98-2.55,1.98-4.06s1.47-.07,1.69,1.13c.19,1.04.1,2.93-.56,3.49-.66.57-3.49,3.2-3.68,3.96-.18.75,0,3.48,1.23,4.43,1.22.94,7.25,3.48,7.54,5.65.28,2.17,1.5,4.61,2.73,5.84,1.22,1.22,3.11,1.88,4.14,1.98,1.04.09,3.49,1.03,3.77,2.16.29,1.14.57,1.89,1.98,3.3,1.41,1.42,2.54,3.11,2.64,1.51.09-1.6-.75-3.96.47-4.05,1.22-.1,1.79-1.13,1.98-2.36.19-1.22.38-3.77-.38-5.18-.75-1.41-1.32-2.45-.66-3.39s2.73-3.3,2.83-2.36c.09.95-.1,2.08,2.26,1.51,2.35-.56,2.73-1.03,2.92.38s.09,2.07,2.92,3.2,3.86,1.13,3.86,1.13l.2-.07c-.07-.18-.13-.36-.18-.52-.25-.75,0-1.37,0-2.12s-.5-1.5-.75-2,1-3.38,1.25-4.25c.25-.88-3-1.88-4-2.13Z" style="fill:#b0dff5;"/><path d="M124.79,208.1c.27-.21.66-.59,1.11-1.06,1.73-1.81,4.35-4.97,4.35-4.97.38-.38,2.83-3.3.38-3.3s-5.27.1-5.37,1.04c-.08.8-.76,3.02-1.55,4.19-.14.21-.28.39-.43.52-.94.85-1.98,2.16-1.6,3.01.38.85,1.79,1.6,3.11.57Z" style="fill:#b0dff5;"/><path d="M101.42,323.05c-.1,1.13-.48,2.17-.48,2.17l-.06.05c.2.24.37.42.5.53.33.28.73.6,1.14.87l.03-.04s.94-1.98,1.22-3.02c.28-1.03-.19-2.82-1.04-3.58-.84-.75-1.22,1.89-1.31,3.02Z" style="fill:#b0dff5;"/><path d="M87.19,214.79c.24,1.06,2.33,1.63,3.74,1.69.22,0,.42,0,.59,0,1.32-.09,2.55-1.13,3.3-2.16.75-1.04,1.7-1.51,2.54-1.79.85-.29,1.13-4.53,1.13-5.47s3.96-3.48,5.19-4.24c1.22-.75.19-2.35-.38-3.01-.57-.66-.57-2.17-.38-3.39.19-1.23.95-2.83.95-3.77s-1.42-3.02-2.36-3.49c-.76-.38-1.51-1.06-1.78-1.31-1.38,1-5.25,4.22-8.93,7.26.08.4.39,1.87.63,3,.28,1.32-.47,1.04-2.54,3.02-2.08,1.97-1.14,2.63-1.23,3.95s-.75,8.48-.47,9.71Z" style="fill:#b0dff5;"/><path d="M65.52,211.96c.28.75,2.92.09,3.96-.75,1.03-.85.19-2.55-.1-3.21-.28-.66-.66-1.6-.66-1.6h-.01c-1.23.68-2.85,1.61-3.99,2.27l.05.09s.47,2.45.75,3.2Z" style="fill:#b0dff5;"/></g></g><g id="d"><g id="e"><g id="f"><path d="M290.13,154.02c-.78-.62-1.04-.85-1.32-2.26s-4.15-3.2-5.09-2.35c-.94.85-1.51,3.01-2.54,4.05-1.04,1.04-4.33,2.17-6.5,2.17s-4.52.57-5.09,1.41c-.57.85-.28,2.35-1.7,2.73s-2.17.85-2.92-.66c-.75-1.51.38-2.35-2.07-1.88-2.45.47-6.6.66-5.65,2.45.94,1.79,3.49,2.92,5.18,3.3s9.89,2.26,9.89,3.77-1.04,1.51-2.64,2.17-.94,1.88-3.2,2.26-2.92.38-2.64,2.07,2.45,4.33,3.77,3.67c1.32-.66,4.8-1.51,6.6-.75,1.79.75,3.02,1.23,4.33.75,1.32-.47,1.51-.19,1.13-1.6-.38-1.41-3.58-4.52-3.3-5.65.28-1.13,1.98-2.45,3.3-.75s5.28,3.77,6.6,5.56c1.32,1.79,2.54,4.15,3.77,3.49s1.23-1.04,2.92-1.32c1.7-.28,5.09.09,2.73-1.98s-4.9-4.8-2.83-4.62c2.07.19,5.46,2.07,8.76,3.39,3.3,1.32,4.8,2.35,5.37,1.04s1.7-2.17.19-2.35-7.07-1.79-6.03-2.54c1.04-.75,1.98-1.32,1.79-2.35s.09-1.6-1.79-2.54-1.98-1.7-3.39-2.45c-1.41-.75-1.13-.47-3.39-.75s-4.15-1.51-3.86-2.54c.28-1.04,1.51-3.39-.38-4.9Z" style="fill:none; stroke:#9c9d9f; stroke-width:.28px;"/><path d="M307.75,180.78c-.38-.28-3.86-2.92-4.05-1.13s-.38,2.83-1.13,2.92c-.75.09-1.13.28-1.13,1.6s4.9,5.56,6.31,5.65c1.41.09,4.52.57,4.71-2.07s-.09-9.8-.75-7.82c-.66,1.98-1.32,2.26-1.7,1.98-.38-.28-2.26-1.13-2.26-1.13Z" style="fill:none; stroke:#9c9d9f; stroke-width:.28px;"/><path d="M326.59,183.89c.47-.75,1.32-2.35.57-3.01s-2.45-1.88-2.92-.38c-.47,1.51-.47,5.75-1.6,5.37-1.13-.38-3.77-.94-4.43-.75-.66.19-2.26,1.23-2.26,2.45s1.7,3.11,2.73,4.52c1.04,1.41,1.51,1.41,1.13,2.64s-1.98,3.11-1.23,3.77c.75.66,7.91,3.86,8.57,3.58s3.2-2.07,4.62-2.73c1.41-.66,2.83-2.07,2.83-2.92s-1.32-8.29-2.26-8.2c-.94.09-8.2-.19-7.63-.85.57-.66,1.89-3.49,1.89-3.49Z" style="fill:none; stroke:#9c9d9f; stroke-width:.28px;"/><path d="M284.19,200.94c1.41.09,1.88,9.14,1.79,10.65s-1.88,1.88-2.83,1.98c-.94.09-1.13,3.39-1.98,3.86-.85.47-2.07,1.98-2.36,2.35-.28.38-1.23.94-1.88.85s-1.51-.38-1.7-1.51-1.7-1.41-1.98-1.6-2.54-1.6-2.54-2.73,1.04-2.26,2.45-3.39c1.41-1.13.75-1.88-.09-2.17s-3.02,1.79-4.05,2.26c-1.04.47-2.83-1.51-3.58-1.7-.75-.19-5.18-.57-6.6-.85-1.41-.28-1.79-1.7-1.41-3.49.38-1.79-1.51-5.18-2.64-4.99s-2.64,1.13-3.49,1.51c-.85.38-4.24.85-5.46.94-1.23.09-3.49-3.49-3.58-3.96s1.04-4.62,1.88-5.84c.85-1.23,6.41-4.99,8.95-6.97s2.64-2.92,3.2-4.43c.57-1.51,2.26,2.17,2.36,3.2.09,1.04-1.13,1.88-2.92,2.83-1.79.94,2.45,2.35,4.05,3.11,1.6.75,1.51,2.45,1.6,3.77s3.02,2.17,3.49,2.26c.47.09,3.11-2.17,3.39-3.3.28-1.13-1.32-1.88-1.6-2.92-.28-1.04,4.8-2.73,6.22-3.39,1.41-.66.85-4.05.85-4.99s1.32-1.98,1.98-1.98,1.88,1.31,2.26,2.07c.75,1.51,2.36,3.96,1.04,4.62-1.32.66-2.36.47-1.6,2.64.75,2.17,4.15,2.26,4.9,3.58.75,1.32.85,3.11-.57,2.92-1.41-.19-7.35-2.45-7.25-.09.09,2.35,1.32,3.77,3.02,4.05s6.69.85,6.69.85Z" style="fill:none; stroke:#9c9d9f; stroke-width:.28px;"/><path d="M374.07,174c0-.47-.66-2.07-1.41-1.7-.75.38-1.51,1.04-3.3,1.32s-3.3.38-4.05,1.04c-.75.66-1.41,1.79-2.26,2.07s-3.67,1.41-4.71,1.41-10.17-1.32-9.23.38,1.51,2.54,1.04,3.58c-.47,1.04-.19,2.54-.19,3.58s0,2.54-1.32,2.54-3.86.38-5.28-.19c-1.41-.57-4.9-.66-5.65.38-.75,1.04-1.6,4.24-.75,4.8.85.57,4.99,1.7,3.96,2.54-1.04.85-2.54,3.11-1.23,3.11s9.42-.19,8.39,1.13c-1.04,1.32-5.28,3.2-5.84,3.2s-5.18,1.6-5.94,1.98c-.75.38-1.79,1.23-1.98,1.88-.19.66-.85,1.7,0,1.98s6.78-.28,7.91,1.79c1.13,2.07,3.67,4.24,6.22,3.86,2.54-.38,6.41-1.98,7.63-2.64,1.23-.66,6.41-2.17,5.75-.66-.66,1.51.38,4.9,1.88,4.15,1.51-.75,5.28-1.13,5.18.19s-.94,4.62-1.98,4.8c-1.04.19-1.98-.09-2.83.94s-1.13,2.54-1.98,3.11-1.98,1.23-2.26,1.88-.47,4.05-1.7,5.46c-1.23,1.41-2.83,2.83-4.52,2.73s-3.2-1.23-3.86-2.17c-.66-.94-1.82-4.06-3.2-5.37-1.88-1.79-13.57-6.69-14.98-7.35-1.41-.66.47-4.62,1.41-6.41.94-1.79-.47-3.2-.94-3.58-.47-.38-1.23-2.17-1.79-3.01-.57-.85-4.52-1.79-5.75-1.98-1.23-.19-12.91-1.13-15.07-1.13s-6.12.75-9.14,2.35c-1.07.57-3.02,3.01-4.05,3.86-1.04.85-2.92,2.92-3.86,3.39-.94.47-1.98,1.13-2.07,2.17-.09,1.04.09,4.9,1.79,4.71,1.7-.19,5.37-.85,4.15,1.13-1.23,1.98-3.39,2.83-.28,3.67,3.11.85,4.99,1.51,5.75,2.26.75.75,6.22,5.65,6.12,8.2s-.38,4.8.47,5.56c.85.75,5.37,1.7,6.31,1.13.94-.57,1.51-2.17,2.26-2.45.75-.28,8.1-4.15,9.42-3.58,1.32.57,6.41,5.84,7.35,5.46s3.3-2.07,3.86-1.13,4.05,4.33,4.15,2.73-1.41-3.96-.09-4.05,3.11.38,2.83,1.6c-.28,1.23-.38,2.45.57,2.45s3.39-.19,3.49.38,2.36,3.01,4.9,3.2,7.91-.38,9.33-1.04c1.41-.66,2.07-2.35,1.51-2.92s-7.63-5.18-5.94-6.6,2.64-1.23,3.67-1.6c1.04-.38,2.73-2.17,3.11-2.73.38-.57,3.3-6.31,4.8-6.12,1.51.19,3.67.09,3.11-.66-.57-.75-2.07-2.83-.09-3.39s2.26-.75,2.36.57c.09,1.32,2.73,2.35,2.92,1.23.19-1.13,2.36-4.05,2.36-2.17,0,0-.47,1.51.19,2.07.66.57,3.77,1.13,4.52.28.75-.85,5.84-5.09,5.75-3.2s-.28,4.43,1.04,4.33,3.86-.38,4.99.19c1.13.57,3.11,1.88,3.49.47.38-1.41-.57-4.33,1.6-3.58,2.17.75,4.9,3.01,5.94,2.45s1.13-1.32,2.26-1.13c1.13.19,8.39,2.35,8.29,3.39-.09,1.04-.19,2.73.57,3.2s5.09,3.67,8.95,4.52c1.45.32,1.13.85,2.64,3.01,1.51,2.17,2.07-.28,3.49-.85s2.83,3.96,3.49,4.9c.66.94,1.13,0,2.17-2.26,1.04-2.26,1.32-1.41,2.92-3.77s1.79-.94,2.92-.75,1.13-2.35,1.32-3.58c.19-1.23,3.67.38,4.8.66,1.13.28-.1-3.11-.1-3.96s2.26-1.04,3.02-1.32c.75-.28,1.89-.94,2.64-1.7s1.79,1.04,2.36,2.54c.57,1.51,3.3-2.73,3.96-4.43.66-1.7,0-2.45-.1-3.58-.09-1.13,3.3-4.62,4.8-5.18,1.51-.57,4.62,0,5.37.19.75.19,1.51,1.13,2.54,1.13s2.36-2.26,2.92-2.92c.57-.66-.19-1.7-.94-2.73s-1.98,0-1.41-1.98,3.96-6.5,5.09-6.97c1.13-.47,2.83-.19,4.33.19,1.51.38,1.23-3.39,1.51-4.52.28-1.13,2.83-1.32,3.49-1.51.66-.19,1.13-4.52,1.23-5.37.09-.85,4.05-2.07,5.46-2.73s-1.13-2.26-1.32-3.49c-.19-1.23.57-1.79,2.92-1.88,2.36-.09,1.51-3.3,2.83-4.62,1.32-1.32.94-3.3,1.13-5.09.19-1.79,1.32-1.23,2.83-1.13,1.51.09.94-3.77.75-5.09s-1.51-1.32-2.73-1.6c-1.23-.28-.85-2.83-.57-3.39.28-.57,4.33-.66,5.37-.66s2.36-2.64,2.73-3.58c.38-.94-1.7-.57-3.2-.47-1.51.09-1.98.57-3.3,1.13-1.32.57-1.32-1.41-1.32-2.07s-.09-1.79-1.41-1.41c-1.32.38-3.86-.28-5.18,2.64s-1.88,7.54-3.49,8.1c-1.6.57-3.67-.66-4.71,2.73-1.04,3.39.28,6.41-1.04,8.01-1.32,1.6-3.02,1.6-3.96,1.88-.94.28-1.23.38-1.7,1.98s-.75,2.64.57,2.92c1.32.28,4.71,2.45,3.3,3.01-1.41.57-3.02,1.6-3.58,2.83-.56,1.23-2.64,8.38-3.58,8.67-.94.28-5.84.28-6.41,1.41-.57,1.13-1.41,4.24-2.36,4.9-.94.66-3.86,1.23-4.43,2.26-.57,1.04-1.04,3.96-2.26,4.71-1.23.75-3.96,1.51-4.9,1.79-1.61.48-4.33-.75-5.46-1.13-1.13-.38-5.84,1.23-8.86,2.35-3.02,1.13-1.79,2.73-2.17,3.3-.38.57-3.86,2.83-5.94,3.39-2.07.57-10.36.47-11.49.09s-4.05-1.98-4.71-2.83c-.66-.85-2.64-.09-4.71.28-2.07.38,1.04-3.3,2.17-4.33,1.13-1.04,5.93-2.35,7.63-3.2,1.7-.85-2.54-2.83-4.8-2.83s-3.67-1.98-3.67-3.11-.66-1.7-1.51-1.98c-.85-.28-2.45-.94-2.83-2.26-.38-1.32-.47-1.13-1.51-1.32-1.04-.19-1.79.28-2.26.94-.47.66-6.31-1.51-6.97-2.17-.66-.66-1.23.09-1.51,1.32-.28,1.23.38,1.23-.38,1.79-.75.57-3.77,1.23-4.99,1.41-1.12.17-.09,2.73.28,3.2s-1.04.57-3.3,1.04-.19,3.39.19,4.15c.38.75,3.67,1.98,4.33,2.26.66.28-.47,1.23-1.79,1.51-1.32.28-4.52-.47-5.18-.94-.66-.47-1.88.47-2.92,1.7-1.04,1.23-5.37-.75-6.6-.75s-.94,1.23-1.41,2.35c-.47,1.13-3.2-2.45-3.58-3.2-.38-.75,1.51-4.24,2.64-5.56,1.13-1.32-2.45-2.92-4.52-2.83s-2.54-.38-1.98-1.88c.57-1.51,5.46-1.6,7.16-1.6s4.9.19,6.12.47,1.88-1.51,2.36-2.54c.47-1.04.09-2.26-.85-2.64-.94-.38-1.79.28-2.83.75-1.04.47-1.98-.94-1.88-2.17.09-1.23-2.73-.28-3.77-.47-1.04-.19.57-2.54,1.32-3.2.75-.66,2.36-2.64,2.83-3.49.47-.85-4.05-2.54-5.75-2.54s-.57,1.51-.28,3.01-2.83,1.32-4.43,1.23-.38-3.2.09-4.33c.47-1.13-3.58-.75-5.46-.19-1.88.57-.57,3.58-.75,4.8-.19,1.23-.75,2.73-2.17,3.2-1.41.47-2.92-.19-3.11-1.23s1.41-1.41,2.54-2.45c1.13-1.04-1.7-3.49-2.73-3.86-1.04-.38,1.79-2.26,2.54-2.83.75-.57.57-3.01.57-3.01" style="fill:none; stroke:#9c9d9f; stroke-width:.28px;"/><path d="M397.34,195.2c-.64-.21-4.05-2.64-3.39-.28s1.23,2.73,2.26,2.45c1.04-.28,1.7-1.98,1.13-2.17Z" style="fill:none; stroke:#9c9d9f; stroke-width:.28px;"/><path d="M408.56,189.73c.46-.57.85-1.32.57-1.98s-1.13-1.79-1.7-.85c-.57.94-1.13,1.88-2.07,1.88s-4.62-.47-3.67.57c.94,1.04,4.99,2.73,6.88.38Z" style="fill:none; stroke:#9c9d9f; stroke-width:.28px;"/><path d="M418.73,191.05c-.38-.54-2.64-2.54-3.3-1.7-.66.85-1.23,1.7-2.36,1.98-1.13.28-2.73.85-3.11,1.51s-.66,2.17.94,2.83c1.6.66,1.79,1.7,3.3.38,1.51-1.32.94-1.51,2.92-1.32s2.26-2.73,1.6-3.68Z" style="fill:none; stroke:#9c9d9f; stroke-width:.28px;"/><path d="M445.02,208.86c.76-.47,1.51-.47,2.54-1.13,1.04-.66,2.07-1.51,1.89-2.07s-2.92-2.07-3.77-1.41-3.77,2.54-5.28,3.2c-1.51.66-4.15,2.73-2.64,2.92s5.56-.47,7.26-1.51Z" style="fill:none; stroke:#9c9d9f; stroke-width:.28px;"/><path d="M480.16,168.72c.32-1.77.19-2.73-.47-3.01-.66-.28-1.79,0-3.2.85s-4.43,2.07-5.37,3.2c-.94,1.13-1.7,2.35-2.36,3.3-.66.94-1.7,2.92.19,2.54,1.89-.38,2.73-.66,3.86-.66s6.31-.57,7.35-6.22Z" style="fill:none; stroke:#9c9d9f; stroke-width:.28px;"/><path d="M437.1,150.63c-1.16.07-2.54-.38-2.54.85s.28,1.88,2.07,1.88,4.52.28,4.62-.38c.09-.66-2.64-2.45-4.14-2.36Z" style="fill:none; stroke:#9c9d9f; stroke-width:.28px;"/><path d="M421.65,156.95c.19-.75,1.04-1.51-.28-1.7-1.32-.19-2.54.09-3.11,1.04s-.38,2.26.85,2.26,2.54-1.6,2.54-1.6Z" style="fill:none; stroke:#9c9d9f; stroke-width:.28px;"/><path d="M460.75,138.86c-.94,0-1.98.28-2.17.94s.47,2.07,1.79,1.7,1.23-.19,2.17-.75c.94-.57.47-1.88-1.79-1.88Z" style="fill:none; stroke:#9c9d9f; stroke-width:.28px;"/><path d="M464.33,147.81s-1.04,1.23-1.51,2.07c-.47.85-1.13,2.83.38,1.98,1.51-.85,3.96-3.2,4.71-2.35s2.26,4.15,1.04,4.8-3.11,1.23-4.33,2.45c-1.23,1.23-5.65,6.03-5.65,4.8s-.28-4.43-.85-4.9c-.57-.47-5.18-1.88-4.24-.19s2.17,3.39.85,3.39-4.71-.85-4.05.28c.66,1.13,2.73,1.79.57,3.01s-1.51,1.23-2.92,1.88c-2.67,1.25-4.05,2.83-6.78,5.37-2.73,2.54-.47,2.92-1.04,3.96-.57,1.04,2.26-.57,3.67-2.35s3.11-2.17,4.05-2.64,1.79.19,2.26,1.51c.47,1.32,1.51.57,2.54.57s1.13-1.04,1.6-3.2c.47-2.17,2.54.85,2.92,1.7.38.85,1.79,2.83,3.3,3.58,1.51.75,1.7.38,1.89,1.13s-.85,1.04-2.45,1.04-2.07-.38-2.92-1.98c-.85-1.6-1.79,1.32-1.51,2.54.28,1.23-1.32,1.6-2.54,1.79-1.23.19-2.73,2.26-3.96,3.11-1.23.85-7.54,0-9.23-.57-1.7-.57-2.64-2.83-2.64-3.49s-2.45-1.7-4.43-2.17-.19,2.64.66,3.58.28,3.67,0,4.99c-.28,1.32-2.26,2.64-3.49,2.83s-.94,0-2.73-.66-6.6.57-7.91.66c-1.32.09-4.43-1.7-4.62-3.77s2.64.66,3.86.19c1.23-.47-.75-2.26-1.98-3.01-1.23-.75-2.26-.28-3.2.28-.94.57-4.62.28-5.65-.19s-1.41.94-2.64,1.6-1.6-.09-1.7-.75c-.09-.66,1.04-3.11,1.7-4.05.66-.94-1.7-1.7-3.77-1.51-2.07.19-.85,3.67-.75,5.28.1,1.6.28,2.64.19,3.2-.09.57-3.86.94-5.75.57s-1.6-1.51-2.07-2.83c-.47-1.32-1.98,1.32-2.64,2.54-.66,1.23-1.7.47-2.36-1.23s-3.39-3.2-3.77-4.52,1.23-1.04,2.36-1.13c1.13-.09,2.45-1.98,2.92-2.17s1.51-1.13,2.36-1.88c.85-.75.85-.85,2.54.28,1.7,1.13,1.6.75,3.67.66,2.07-.09,2.07-2.54,3.2-2.64,1.13-.09-.56-3.01-.09-3.67.47-.66,3.11-1.23,4.43-1.32s1.41-.85,2.54-1.79c1.13-.94,2.64-.66,4.33-.85,1.7-.19,2.64-1.98,3.48-2.92.85-.94,1.6.38,1.6,1.13s-1.79,3.96-2.54,5.37c-.75,1.41,1.32-.19,3.02-1.41,1.7-1.23,1.88-1.6,3.02-2.83,1.13-1.23,3.49-1.7,4.43-2.26.94-.57,1.6-.66,3.49-.28,1.88.38,1.79,1.6,1.88,2.35.1.75,2.45-.09,2.92-1.41.47-1.32,5.18-.28,5.94-.28s7.73-5.28,8.67-5.94c.94-.66-5.84-4.43-6.78-5.18-.94-.75-1.88-2.26-2.07-3.49-.19-1.23.28-2.35,2.36-2.73s2.92,1.41,3.02,2.45c.1,1.04.66,2.07,1.13,2.73.47.66,3.67.28,5.46,0s2.54,1.79,3.11,2.64,2.17-1.41,3.2-2.45c1.04-1.04,2.83-1.32,3.58-1.79s.47-2.92.57-3.96c.09-1.04,2.73-.47,3.67,0,.94.47,1.32,2.35,1.32,2.35" style="fill:none; stroke:#9c9d9f; stroke-width:.28px;"/><path d="M296.94,321.53c.08-.07.11-.18.16-.28.75-1.7,2.73-6.78,2.73-8.76s1.23-7.91,2.64-8.1c1.41-.19,9.14.66,10.27,3.86,1.13,3.2,1.7,4.71,2.45,4.9.75.19,5.65.85,6.03,3.77.38,2.92-.47,11.02-3.02,16.11-2.54,5.09-6.41,13.1-7.35,14.41-.94,1.32-4.9,6.22-6.22,7.44-.98.91-2.73,1.41-3.67,1.79-.94.38-1.13,2.26-1.32,3.77-.19,1.51-2.73,1.7-4.62,2.83s-5.18,2.17-6.69.75-.09-3.77,0-4.71.19-3.58.19-4.24-2.17-.28-3.11.09c-.94.38-2.54.66-4.24,1.32s-5.84,0-7.54-1.51c-1.7-1.51-9.23-8.57-10.08-9.52-.85-.94-2.83-1.32-3.96-1.13s-1.04,2.83-1.13,4.43-1.04,2.54-2.64,3.11c-1.6.56-3.11,0-4.99-.47-1.88-.47-1.04,4.24-.94,6.31s-.19,5.37-.28,6.31-4.43.47-5.37.09-1.41-4.43-1.41-5.27.38-1.41,1.6-2.73c1.23-1.32,1.51-5.46,1.51-7.73s1.32-5.46,1.32-6.97-2.26-5.18-3.01-6.03c-.75-.85-.19-4.33-.09-5.37.09-1.04.47-6.78,1.79-8.76s3.11-.38,4.15-.09c1.04.28,2.54.85,3.3,1.51.75.66,1.88-3.3,1.98-5.27s.57-7.63.57-8.39,1.32-1.6,2.73-3.3,2.26-3.96,2.45-6.12-.66-7.44-1.32-8.76c-.66-1.32-4.43-3.3-5.28-3.39-.85-.09-2.26-1.79-2.54-3.3-.28-1.51-1.7-8.1-1.51-9.14.19-1.04,1.23-1.88,2.17-2.73.94-.85.85-1.89.85-2.92s.85-1.98,1.32-3.49.19-7.07-.09-8.48-2.26-8.38-2.35-10.46c-.09-2.07,0-2.92.75-4.62s.85-2.45.38-3.86c-.47-1.41-5.28-5.37-6.12-6.6-.85-1.23,1.79-1.98,2.92-1.98s1.6.47,1.79,1.13c0,0,4.05,2.92,5.46,4.43,1.41,1.51,5.09,5.28,6.03,5.94s2.54,3.11,2.26,4.52c-.28,1.41-1.41,2.17-1.13,4.33s1.88,3.39,2.92,3.67c1.04.28,2.26,1.88,2.45,2.64.19.75.38,2.73-.94,3.3-1.32.57-4.05,1.6-4.99.38s-1.41-3.67-3.2-3.77c-1.79-.1-2.45.75-2.45,1.7s.75,6.22,1.79,8.48c1.04,2.26,2.45,5.56,5.28,6.41,2.83.85,5.94,1.41,6.69,2.73s4.9,7.26,6.41,7.35c1.51.1,3.77,1.41,3.86,2.07.09.66,2.07,6.69,2.83,7.73.75,1.04,2.54,2.07,3.58,1.79,1.04-.28,1.79-.66,4.43-.75,2.64-.1,8.67,1.32,12.53,2.26,3.86.94,5.46,1.41,5.65,2.07.19.66-.38,2.45-1.32,3.3-.94.85-2.36,1.04-3.39,1.04s-5.28,0-5.28-1.13-.66-3.02-1.41-3.58c-.75-.57-8.29-.66-8.76.09-.47.75-4.05,5.09-5.18,6.31s-3.2,3.11-4.05,3.58c-.85.47-3.96,2.36-1.13,2.36s4.24.09,6.03.28,5.32.68,5.18,2.07c-.09.94-.19,3.77-.47,4.52-.28.75-1.6,4.43-1.6,5.56s1.41,3.96,1.79,5.37c.38,1.41.85,4.71,2.54,4.71s3.58-.38,3.58-1.79.28-2.92-.85-3.58c-1.13-.66-3.77-1.88-4.15-2.73-.38-.85-.85-2.35.38-2.45,1.22-.09,2.6.09,3.51-.66Z" style="fill:none; stroke:#9c9d9f; stroke-width:.28px;"/><path d="M207.79,239.76s-.19,3.86-.75,5.46-1.41,5.37-1.51,6.6c-.09,1.23-.09,1.98.75,3.39.85,1.41,2.35,2.83.57,3.39s-5.09.85-5.75.85-2.54.1-2.92.66c-.38.57-1.23,4.62,0,5.75,1.23,1.13,2.07,2.26,1.79,3.3s-.94,1.98-.38,4.9c.57,2.92,2.35,5.56,3.39,6.69,1.04,1.13,4.05,5.65,5.37,6.97,1.32,1.32,3.67,3.3,3.86,6.22.19,2.92.38,3.11.66,4.62s.38,3.48,0,4.71c-.38,1.23-.85,1.88-2.64,1.88s-4.05.38-4.52-.19c-.47-.57-1.23-1.88-1.23-1.88" style="fill:none; stroke:#9c9d9f; stroke-width:.28px;"/><path d="M174.43,329.64s-1.04.66-1.13,1.6c-.09.94.66,2.35.66,3.67s.38,2.83.57,4.15c.19,1.32,1.7,1.98,1.7,1.98" style="fill:none; stroke:#9c9d9f; stroke-width:.28px;"/><path d="M191.21,346.03s2.07.85,2.54,1.51c.47.66,1.32.38,2.35,2.17,1.04,1.79,3.96,2.83,5.09,2.26s1.98-1.79,3.77-2.64,2.54-.85,3.58-.38,3.77,1.32,4.33,1.51,2.17,1.79,2.17,1.79" style="fill:none; stroke:#9c9d9f; stroke-width:.28px;"/><path d="M215.98,233.63s1.13.66,1.88.94,4.9,3.77,5.18,4.52c.28.75.66,2.73.09,3.39-.57.66-2.64,4.05-1.41,4.9s2.35.28,2.73,2.17c.38,1.88,1.51,5.37,2.64,6.22,1.13.85,2.17,1.41,3.67,1.41s3.3-.38,4.43.56c1.13.94,2.92,3.02,2.92,4.15s-.85,3.67-1.98,3.58c-1.13-.09-3.2-.47-3.39,1.13s-.28,3.86-.19,5.09.19,2.54-.38,3.39-1.7,2.17-2.45,3.11c-.75.94-2.07,2.45-1.41,3.3.66.85,1.13,1.23,1.23,2.45.09,1.23.66,4.52,1.51,5.37.85.85,2.83,2.36,2.92,3.58.09,1.23,1.41,4.24,1.79,5.18.38.94.66,3.86.57,5.93-.09,2.07.09,3.2-.66,4.05-.75.85-3.2,1.88-3.58,3.11-.38,1.23-.57,5.18-.47,6.31.09,1.13,1.51,3.39,1.79,4.33s1.04,2.36,0,3.02c-1.04.66-4.52,4.33-4.62,4.99-.09.66-.57,6.5-.57,8.29s-.28,3.02-1.23,3.02-3.11.66-4.24.47c-1.13-.19-3.3.38-2.17,1.88,1.13,1.51,2.07,2.17,2.83,3.49s0,4.05,0,4.05" style="fill:none; stroke:#9c9d9f; stroke-width:.28px;"/><path d="M183.1,261.24s-.94,1.79,0,2.17c.94.38,1.98-.19,2.17,1.13.19,1.32-.47,3.11.85,3.48,1.32.38,2.45,1.32,1.51,2.36-.94,1.04-1.41,2.36.28,2.45,1.7.1,5.37,0,4.43,1.98s-1.41,6.12-1.41,7.63,1.04,4.71,2.07,5.56c1.04.85,6.78,4.99,6.78,4.99,1.13.66.47,2.45.47,3.2s1.7,1.6,2.73,1.79c1.04.19,0,2.64-.66,3.77-.66,1.13-2.45,1.41-3.3,2.36-.85.94-1.7,2.64-2.83,3.39-1.13.75-5.37,3.02-6.69,4.24-1.32,1.23-1.6,2.07-3.01,4.33-1.41,2.26-6.5,4.05-7.54,4.24s-1.41,2.17-1.79,3.2-1.41,1.04-2.83,1.6c-1.41.57-.85,1.6-1.32,2.73s-4.71.94-5.65.94-2.45-.75-2.73-1.88c-.28-1.13.75-1.51,2.07-1.7s1.04-.47,2.26-2.07c1.23-1.6-.19-2.26-.94-3.39-.75-1.13-2.54-4.05-3.3-6.12-.75-2.07-.75-3.3-.85-3.77s-.66-.1-1.79.94c-1.13,1.04-1.7.57-2.92.38-1.23-.19-2.35-.85-3.11-1.13-.75-.28-3.3-2.54-3.77-4.15-.47-1.6.09-4.9.19-6.41.09-1.51-1.04-3.39-1.51-4.15s-2.83-2.07-4.05-2.64c-1.23-.57-3.3-2.83-3.58-3.77-.28-.94-.94-2.45-.94-2.45,0,0-.94-2.64-1.13-3.77-.19-1.13,2.45-2.83,3.11-3.39s-2.07-5.18-2.83-5.94c-.75-.75-.09-1.6.85-2.07.94-.47,2.73-.28,4.05-.57s.19-1.98-.75-2.64c-.94-.66-1.88-.57-2.17-1.7s2.54-1.41,3.77-1.51c1.23-.1-1.32-2.92-2.35-3.58-1.04-.66-5.93-.85-7.25-.94-1.32-.1-2.54-1.51-2.54-2.54s2.92-2.35,3.58-3.01-.85-.94-3.3-1.32c-2.45-.38-2.45.19-3.49,0-1.04-.19-2.17-3.58-1.98-5.18s.38-1.88,1.6-4.15c1.23-2.26.85-10.08.85-11.12s-.28-7.44-.28-9.23,3.49-1.6,4.52-1.6,2.73.66,3.96,2.07-.09,2.64-.66,3.96c-.57,1.32-.28,1.79.28,2.73.57.94.57,1.7.57,3.11s1.32-1.98,1.32-3.2,1.6-1.6,2.26-2.35c.66-.75.09-1.88-.57-2.54s-.09-1.7.47-2.35c.57-.66,2.17-.85,2.83-.85,0,0,5.84.57,5.94,1.04.09.47.66,1.04,2.45,1.41s4.99.57,5.09,1.51c.09.94.09,3.39-.94,3.77-1.04.38-4.05,1.23-3.49,2.17.57.94,3.01,2.64,3.11,4.33s-1.04,4.24-1.04,4.24c-.47.66-1.23,2.26-1.32,3.2s-.28,1.98-1.23,2.17-4.33-1.32-3.96-2.45c.38-1.13.94-3.01.57-3.58s-3.11-1.13-4.15.09c-1.04,1.23-2.35,3.77-3.11,4.62s-2.17,4.9-.85,5.37,2.64,1.23,3.3.38c.66-.85,2.54-3.67,3.2-2.35.66,1.32.57,2.45,2.17,2.73,1.6.28,2.35.57,2.83,1.88.47,1.32,1.88,3.3,2.64,2.35.75-.94,3.49-2.83,3.49-3.67s-1.51-2.64-1.41-4.15c.09-1.51,0-2.45,1.88-2.45s6.12,1.04,5.94,2.17c-.19,1.13-.38,3.01.38,3.11.75.09,2.35.57,2.54,1.79s.75,2.35-.85,2.35-3.2-.19-3.58.66c-.38.85-.47,2.54.75,2.54s6.12.28,5.56,1.51c-.57,1.23-1.98,3.39-1.88,4.71.09,1.32,1.88,5.18,2.92,5.94,1.04.75,1.98.38,1.98-.66s-1.88-5.94-1.13-7.26" style="fill:none; stroke:#9c9d9f; stroke-width:.28px;"/><path d="M99.63,187.75s.94.94,1.88,1.41,2.36,2.54,2.36,3.49-.75,2.54-.94,3.77c-.19,1.23-.19,2.73.38,3.39s1.6,2.26.38,3.01c-1.22.75-5.18,3.3-5.18,4.24s-.28,5.18-1.13,5.46c-.85.28-1.79.75-2.54,1.79-.75,1.04-1.98,2.07-3.3,2.17-1.32.09-4.05-.47-4.33-1.7-.28-1.23.38-8.38.47-9.7s-.85-1.98,1.22-3.96,2.83-1.7,2.54-3.01c-.28-1.32-.66-3.11-.66-3.11" style="fill:none; stroke:#9c9d9f; stroke-width:.28px;"/><path d="M68.73,206.41s.38.94.66,1.6c.28.66,1.13,2.35.09,3.2-1.04.85-3.67,1.51-3.96.75-.28-.75-.75-3.2-.75-3.2" style="fill:none; stroke:#9c9d9f; stroke-width:.28px;"/><path d="M62.23,220.82s3.49-.66,4.24-1.04c.75-.38,2.54-.85,3.67-.85s4.24.47,5.09.38c.85-.09,3.77.28,4.43.94.66.66,3.11,1.98,3.86,2.17.75.19,2.26-.09,2.64-.85.38-.75.75-3.11,1.98-3.2s4.99.09,5.28.66c.28.57,4.71-.47,4.71.09s-1.22,3.2-1.22,3.86,1.22,3.58,1.22,5.18-.47,4.62.28,4.71c.75.09,2.64-.47,2.64-1.13s-.38-5.65.47-5.84,1.79-.09,2.73.28,5.37,1.7,5.37,2.54-1.04,2.35-.09,3.49c.94,1.13,3.2,3.01,3.2,3.77s.09,2.35-.85,2.83c-.94.47-2.36.94-1.79,1.88s3.86,2.73,4.9,3.67,1.88,3.49,1.7,4.33c-.19.85-1.22,4.15-1.22,4.15" style="fill:none; stroke:#9c9d9f; stroke-width:.28px;"/><path d="M130.25,202.07c.38-.38,2.83-3.3.38-3.3s-5.28.09-5.37,1.04-1.04,3.86-1.98,4.71c-.94.85-1.98,2.17-1.6,3.01.38.85,1.79,1.6,3.11.57,1.32-1.04,5.47-6.03,5.47-6.03Z" style="fill:none; stroke:#9c9d9f; stroke-width:.28px;"/><path d="M143.53,203.49c-.21-.42-2.45-1.79-3.77-1.32-1.32.47-5.18,2.17-4.33,3.2.85,1.04,1.79,3.86.38,3.96-1.41.09-2.73-.38-3.3.57s-.85,2.26-2.17,2.26-2.36,0-2.83.94c-.47.94-3.11,4.62-3.11,2.73s.47-5.28-.57-5.37c-1.04-.09-4.71-.09-5.46,1.32-.75,1.41-4.33,12.06-4.9,13.57-.57,1.51-.19,4.15.94,3.49,1.13-.66,3.01-1.88,4.24-2.26s2.83,0,2.17-1.41c-.66-1.41-2.54-2.83-.75-2.92s3.49.75,4.81-1.41c1.32-2.17,3.86-5.09,5.65-4.52s8.2,1.88,8.86.85.85-1.6,2.07-1.7c1.23-.09,5.37.09,6.03-.47s2.07-3.77,3.2-3.77,2.26,1.04,3.2,1.7c.94.66,2.45,1.51,3.49.75,1.04-.75,2.73-5.18,3.86-5.46,1.13-.28,3.2-.94,3.58-1.51.38-.57,3.49-4.05,3.11-4.8-.38-.75-.85-4.05-1.41-4.71-.57-.66-1.98-1.41-2.07-2.26s-1.13-3.77-2.07-3.3c-.94.47-.94,1.32-2.35,1.32s-3.11.75-3.39,1.23c-.28.47-1.04,3.39-1.79,3.77s-2.26,1.32-1.98,2.07c.28.75,2.54,4.52,1.41,4.71-1.13.19-2.26-.66-2.64,1.23s-2.54,4.33-3.3,4.52c-.75.19-5.18-.09-5.65-1.13-.47-1.04-.66-2.54-.28-3.01s1.41-2.26,1.13-2.83Z" style="fill:none; stroke:#9c9d9f; stroke-width:.28px;"/><path d="M56.39,230.81s.75,1.41,1.7,1.41,3.2-1.23,3.3.28c.09,1.51.38,3.11,1.41,3.11s2.73.28,3.39-.47c.66-.75,1.88-2.26,2.54-2.26s6.22.85,6.78.47,1.04-2.73,2.17-3.58c1.13-.85,3.3-1.7,4.24-1.98.94-.28,3.11.19,3.11,1.04s-.28,1.88-1.41,2.64c-1.13.75-2.64,1.23-2.83,2.35s-.94,6.31-1.79,5.65c-.85-.66-4.62-2.35-5.37-1.41-.75.94-3.11,3.11-3.86,3.2s-3.49.85-4.81,1.32-3.67.85-4.24,3.77" style="fill:none; stroke:#9c9d9f; stroke-width:.28px;"/><path d="M109.43,253.32s.85-.47-1.04-1.32c-1.88-.85-4.9-1.04-5.18-2.26s.38-4.43-.66-5.84c-1.04-1.41-5.18-1.79-6.41-.19-1.22,1.6-.38,2.92-2.54,3.2s-2.45.47-3.49.94c-1.04.47-2.17,1.41-1.79,2.35.38.94,1.88,3.39,2.07,5.28.19,1.88.47,5.65.47,7.16s.19,3.3-.75,5.28c-.94,1.98-3.67,5.65-4.52,6.31-.85.66-2.45,1.88-2.17,2.92.28,1.04,1.6,3.2,1.79,4.62.19,1.41,1.32,5.56,1.88,4.99s2.26-4.43,2.54-6.31c.28-1.89.57-8.1,1.13-9.05.57-.94-.57-3.11,2.17-1.51,2.73,1.6,4.05,2.83,4.62,2.07s-.09-7.44.75-8.67c.85-1.23,3.67-3.2,3.11-4.05s-3.67-3.49-4.71-4.52c-1.04-1.04-2.26-3.67-1.04-4.05s.94-.09,3.58.94c2.64,1.04,4.71,1.51,4.71,2.45s.94,2.26,2.54,2.36c1.6.09,8.01-.19,8.01.75s-.19,4.71.94,4.33c1.13-.38,1.7-2.07,3.77-1.51,2.07.57,5.09,4.05,6.12,5.75,1.04,1.7,6.69,7.82,8.01,8.2s4.8,3.67,4.8,4.52,2.54,6.41,2.26,8.01-1.32,4.99.38,6.88c1.7,1.88,7.35,4.24,7.91,5.94.57,1.7.66,4.62.66,5.84s-.09,5.09.38,5.84c.47.75,3.3.85,3.3.85" style="fill:none; stroke:#9c9d9f; stroke-width:.28px;"/><path d="M59.87,293.84s.47-1.79.66-3.02.28-4.33-.09-5.37-1.98-3.86-2.73-4.71c-.75-.85-4.15-4.24-4.33-2.73-.19,1.51,1.6,3.3,1.88,5.46s.28,9.05-.75,9.8" style="fill:none; stroke:#9c9d9f; stroke-width:.28px;"/><path d="M86.44,313.15s.09-1.13,1.41-1.51c1.32-.38,4.05-1.6,4.71-3.3.66-1.7.66-4.33,2.17-4.71,1.51-.38,4.99.09,4.9,1.79-.09,1.7-.38,6.31.57,7.16s5.46,4.24,7.16,5.46,2.92,1.6,2.64,3.67c-.28,2.07-1.04,3.11-.94,4.15" style="fill:none; stroke:#9c9d9f; stroke-width:.28px;"/><path d="M100.95,325.21s.38-1.04.47-2.17c.09-1.13.47-3.77,1.32-3.02s1.32,2.54,1.04,3.58-1.22,3.02-1.22,3.02" style="fill:none; stroke:#9c9d9f; stroke-width:.28px;"/><path d="M113.86,327.28c1.13-.38,1.51-2.36,1.7-4.05.19-1.7,0-2.45-.38-3.86-.38-1.41-2.83-1.23-3.86-1.51-1.04-.28-.57-4.71-.09-5.94.47-1.23,1.22-.66,2.92-.75,1.7-.1,1.32-2.26,1.41-3.3s2.92-.85,4.52-1.23,1.98-2.54,1.98-4.05,1.48-.07,1.7,1.13c.19,1.04.09,2.92-.57,3.49-.66.57-3.49,3.2-3.67,3.96-.19.75,0,3.48,1.22,4.43,1.22.94,7.25,3.48,7.54,5.65.28,2.17,1.51,4.62,2.73,5.84s3.11,1.88,4.15,1.98c1.04.09,3.49,1.04,3.77,2.17.28,1.13.57,1.88,1.98,3.3s2.54,3.11,2.64,1.51-.75-3.96.47-4.05c1.23-.09,1.79-1.13,1.98-2.35.19-1.23.38-3.77-.38-5.18-.75-1.41-1.32-2.45-.66-3.39.66-.94,2.73-3.3,2.83-2.35.09.94-.09,2.07,2.26,1.51s2.73-1.04,2.92.38.09,2.07,2.92,3.2c2.83,1.13,3.86,1.13,3.86,1.13" style="fill:none; stroke:#9c9d9f; stroke-width:.28px;"/><path d="M187.72,209.04s-1.04.38-1.6.94c-.57.57-1.13,2.26-.09,3.11,1.04.85,3.77,2.07,4.62,1.41.85-.66,1.32-2.45,1.32-2.45" style="fill:none; stroke:#9c9d9f; stroke-width:.28px;"/><path d="M194.31,224.78s-.94-2.07-.94-3.3-1.04-4.15-1.88-4.15-8.48-.38-9.61.19c-1.13.57-3.3,2.64-3.67,3.39-.38.75-1.13,2.83-.66,3.58s1.13,1.98,1.13,3.67.19,4.9.09,6.22c-.09,1.32,1.13,4.99,2.45,5.37s6.88,2.26,6.97,2.83c.09.57,1.51,1.41,3.58,1.51s2.54-.38,3.86-.66,3.01-.28,3.01-.28" style="fill:none; stroke:#9c9d9f; stroke-width:.28px;"/><path d="M342.98,303.35s.57-1.41.19-2.07c-.38-.66-2.07-1.7-3.58-1.7s-3.02-.85-4.05.57c-1.04,1.41-2.73,2.36-1.7,3.77,1.04,1.41,1.51,1.98,1.51,2.83s0,3.3,2.83,3.3" style="fill:none; stroke:#9c9d9f; stroke-width:.28px;"/><path d="M323.95,346.5s.57-5.84.75-6.41,3.2-1.6,4.33-1.88c1.13-.28.94.19,2.36,1.04,1.41.85,2.64,2.92,3.96,3.77,1.32.85,3.67-2.17,4.05-2.83.38-.66,2.45.09,4.15.57,1.7.47,1.32-3.49,1.41-4.52s1.41-1.41,1.98-1.89c.57-.47-1.23-3.58-2.36-5.27-1.13-1.7-3.2-7.63-4.05-9.42-.85-1.79-4.15-1.6-5.46-1.6s-4.15-1.04-5.18-2.73c-1.04-1.7-3.02-1.79-3.39-3.11-.38-1.32.38-2.92,1.32-4.43.94-1.51.28-4.15.57-5.65s-5.65,2.17-6.5,3.02-3.67-1.6-3.96-3.3c-.28-1.7-2.64-4.05-3.2-5.75-.57-1.7.75-1.7,2.07-2.73,1.32-1.04-1.04-2.45-1.98-3.11-.94-.66-1.04-2.45-.28-4.05.75-1.6.94-2.36.66-4.05-.28-1.7.38-4.05.57-4.99.19-.94-3.58-1.79-5.56-1.88-1.98-.1-2.26.19-3.86,1.13-1.6.94-3.86-1.13-6.03-1.13s-3.02.66-4.52,1.23-4.33.47-6.22-.47c-1.88-.94-2.54-2.83-2.64-3.96-.09-1.13-1.7-2.73-2.73-3.77-1.04-1.04-.75-3.11-.57-3.39s3.49-1.13,4.62-1.23c1.13-.09,1.6-.75,2.73-1.6,1.13-.85,3.3.75,3.86,1.41.57.66,1.6,4.05,2.73,5.56,1.13,1.51,5.18,2.92,6.03,2.92s1.23-1.41,1.88-3.2,4.43-1.13,5.28-.38,2.17-1.41,2.45-2.07c.28-.66,1.41-.38,3.11,0s3.39-.66,4.62-1.51c1.23-.85.75-3.02-.47-4.24-1.23-1.23-2.83-1.23-4.05-1.51-1.23-.28-2.36-2.36-2.36-3.96s1.13-2.26,1.88-3.01c.75-.75,1.88.38,3.2,1.79s3.2,2.07,3.96,2.07,2.26.28,3.49.56c1.23.28,1.79.85,2.54.66s.66-1.13.38-2.73-.94-1.7-1.88-2.83c-.94-1.13-.57-2.35-.28-4.33s2.64-1.79,4.62-1.6,4.9.19,5.65.57-.19,1.32-1.23,2.07c-1.04.75,1.13,1.13,2.36,1.13s3.96.09,4.33.09-.85,1.98-1.23,3.01,2.45,1.51,3.49,1.6c1.04.1,3.29,1.22,3.67,2.07.47,1.04.66,1.7.94,2.83s1.7,3.39,1.7,4.62-.09,5.28,1.13,5.28,5.28,0,4.9,1.41c-.38,1.41-1.98,2.17-1.98,3.11s.47,3.96,0,5.37-2.17,5.46-2.17,5.46" style="fill:none; stroke:#9c9d9f; stroke-width:.28px;"/><path d="M322.35,351.68s-1.51.94-1.98-.38c-.47-1.32-.75-5.28-1.7-4.62-.94.66-2.54,3.39-3.58,4.99-1.04,1.6-.28,2.07-3.86,4.33-3.58,2.26-4.24,3.77-4.33,4.71s1.32,3.3,2.45,2.45c1.13-.85,2.92-2.73,4.05-2.92,1.13-.19,2.83.19,1.6,1.98-1.23,1.79-4.9,5.09-4.99,6.03" style="fill:none; stroke:#9c9d9f; stroke-width:.28px;"/><path d="M313.68,370.71s-.66,1.13-1.51,1.7-2.64,1.32-2.73,2.07c-.09.75.57,1.13,1.6,1.23,1.04.09,2.45.75,1.88,1.6-.57.85-1.32.75-.66,1.98s3.02,4.52,3.49,2.83c.47-1.7,1.04-4.99,2.36-4.15s2.92,2.07,3.58,1.04c.66-1.04,1.13-2.07,2.73-1.98,1.6.1,3.2.57,2.45,1.32s-2.17,1.41-2.26,2.83,1.88,5.84,1.88,5.84" style="fill:none; stroke:#9c9d9f; stroke-width:.28px;"/><path d="M329.89,383.9s.38-4.62.47-5.46c.09-.85,1.88-1.32,4.43-1.32s2.26-.1,3.3-.47c1.04-.38,3.11-1.88,3.2-2.92.09-1.04-.66-1.51-2.73-1.79-2.07-.28-3.58,1.04-5.65.66s-1.13-3.67-.75-4.43,1.6-.28,3.02.56c1.41.85,1.7,0,2.83-1.41,1.13-1.41,0-1.79-1.23-1.79s-.66-.85.28-2.26c.94-1.41.66-2.07.75-4.52.09-2.45.85-1.32,2.07-1.6,1.23-.28.75-3.67.28-6.12-.47-2.45.38-3.02.75-3.58.38-.57,2.36-.38,3.86.66,1.51,1.04,1.04-4.9,1.13-5.94.09-1.04,3.86-1.13,4.99-1.04,0,0,4.05.28,4.24.94.19.66,0,1.79,1.79,2.83,1.79,1.04,1.88,1.32,2.83.56s2.17-2.54,3.39-2.26,2.92.94,4.52,1.04c1.6.1,2.92.28,4.99.28s4.71-.19,5.84-.57c1.13-.38,3.39-.1,3.2.38-.19.47-.57,1.41-1.41,1.51-.85.1-2.64,0-3.2,1.04-.57,1.04-1.7,1.89-.28,2.07s4.24.09,5.65-.85c1.41-.94,3.67-1.79,4.62-2.36.94-.57,2.07-1.79.47-2.54s-2.36-1.7-2.45-2.07c-.09-.38-1.51-1.6-2.83-1.6s-4.99.19-6.22.19-3.48.19-4.71.19-3.67-.66-3.67-1.41.66-2.36-.75-3.11c-1.41-.75-3.48-1.41-5.09-1.89-1.6-.47-4.15-.57-4.15-1.79s-.28-2.26.94-2.26,3.02-.19,4.15.85c1.13,1.04,5.56,2.64,6.22,2.64s4.33-2.26,5.56-3.11c1.23-.85,2.45-2.36,2.45-2.83s-1.32-3.86-.38-4.15c.94-.28,7.73-.85,7.73.47s.38,2.07,1.98,2.07,2.92-.38,2.73-1.04c-.19-.66-1.79-4.8-.85-4.9.94-.09,2.64.47,3.2,1.6.57,1.13,2.26,2.07,2.83,1.89.57-.19,1.88-1.13,1.04-2.26-.85-1.13-1.79-2.26-.75-2.64,0,0,2.17-1.7,3.11-1.23s2.92,1.79,4.9,2.07c1.98.28,2.45.1,2.36-1.23-.1-1.32-.38-2.36-1.6-2.36s-3.58-.75-3.2-1.6c.38-.85.66-5.75,1.22-5.93.57-.19,2.17-1.7,2.54-2.07s1.79-1.51,1.79-1.88.85-3.96.85-3.96" style="fill:none; stroke:#9c9d9f; stroke-width:.28px;"/><path d="M360.79,337.55c-.67-.16-1.32-.28-1.6.28s-.66,1.98,0,2.26c.66.28,1.79.94,2.73.38.94-.57,1.6-2.26-1.13-2.92Z" style="fill:none; stroke:#9c9d9f; stroke-width:.28px;"/><path d="M383.59,328.89c-1.11-.85-2.64-1.89-3.2-1.32-.57.57-3.58,3.2-4.24,4.05-.66.85-3.11,1.98-2.36,2.83.75.85,1.88.85,3.86-.1,1.98-.94,2.64-1.7,4.62-1.79,1.98-.09,3.67-1.88,1.32-3.67Z" style="fill:none; stroke:#9c9d9f; stroke-width:.28px;"/><path d="M409.97,299.4s.66-1.51,2.64-2.07,1.7-1.6,2.17-2.73c.47-1.13,4.52-1.51,5.18-1.7.66-.19,4.24-6.6,4.81-8.1.57-1.51,2.17-1.7,3.58-2.26,1.41-.56,7.73-7.82,8.48-8.95.75-1.13-2.35-2.36-4.24-2.07-1.89.28-2.64,2.83-3.39,4.05s-1.32,1.35-2.45,1.51c-.66.09-1.98,1.51-2.92,2.54-.94,1.04-2.83,6.69-4.24,6.69s-4.05-.19-4.24,1.41-.28,3.67-1.41,3.77c-1.13.1-6.88-.09-7.63,1.04-.75,1.13-4.62,7.35-5.28,8.76s-1.13,2.73-2.36,1.51c-1.23-1.23-2.83-2.36-3.39-3.58s-3.11-3.77-3.96-3.67c-.85.09-2.45.19-3.67,1.04-1.23.85-3.02,2.17-4.24,1.88-1.23-.28-2.64-1.04-2.17-1.79.47-.75,1.6-2.92,1.32-3.39-.28-.47-1.13-1.23-1.98-.75-.85.47-1.7,2.07-1.7,2.07" style="fill:none; stroke:#9c9d9f; stroke-width:.28px;"/><path d="M336.48,263.6s.38-.66,1.98-.85,6.31-.94,6.5,0c.19.94.66,1.79.09,2.26-.57.47-2.92,1.7-2.92,1.7" style="fill:none; stroke:#9c9d9f; stroke-width:.28px;"/><path d="M354.01,286.49s2.92,1.23,3.02-.28c.09-1.51.28-3.86,1.32-4.43,1.04-.57,2.26-2.64,3.49-1.7,1.23.94,2.26,1.13,1.79,2.45-.47,1.32-.57,5.09.28,3.67.85-1.41,1.32-3.2,2.54-3.2s3.58,1.51,3.2,2.26-1.32,2.17-1.13,3.39c.19,1.23.66,2.17,1.32,2.26.66.09,1.7,1.41,1.13,2.35-.57.94-2.36,4.52-2.36,4.52" style="fill:none; stroke:#9c9d9f; stroke-width:.28px;"/><path d="M350.14,279.05s-2.17-.38-2.17.28,1.04,4.43,1.98,4.05c.94-.38,1.88-2.36,1.88-2.36" style="fill:none; stroke:#9c9d9f; stroke-width:.28px;"/><path d="M345.9,275.56c.46-.15,1.41-.94,1.32-2.26s-.38-1.23-2.36-1.7c-1.98-.47-3.86-.66-5.46-1.6-1.6-.94-3.39-2.54-4.33-1.98-.94.57-1.32,2.26-2.92,1.7s-3.02-.94-3.96-.28c-.94.66-2.73,2.17-2.07,3.3.66,1.13,1.7,4.15,1.7,4.62s-.57,4.9-1.41,5.18c-.85.28-3.39,2.92-1.7,3.02,1.7.09,5.28.28,4.99,2.26-.28,1.98,0,4.62,1.32,3.67,1.32-.94,5.75-5.84,6.12-3.77.38,2.07.47,4.33,1.88,4.52s3.77-.09,4.62.28c.85.38,1.6,1.23,1.6,2.17s.09,2.17.57,3.02c.47.85,1.7,2.54,1.79,3.3.09.75.57,2.83,1.6,3.3s2.54-.38,2.07-1.04c-.47-.66-1.51-2.36-1.51-3.39s.09-2.92-.57-3.2c-.66-.28-3.49-2.83-1.88-2.64s3.67.57,4.05.1c.38-.47,1.23-2.64.57-3.49-.66-.85-.19,1.32-2.26-.47s-1.32-1.98-2.36-3.11c-1.04-1.13-3.02-5.18-3.02-7.16s.19-3.86,1.6-4.33Z" style="fill:none; stroke:#9c9d9f; stroke-width:.28px;"/><path d="M373.13,296.38s.19.85.85,1.6c.66.75,1.6,1.6.75,1.98-.85.38-6.69-.57-7.16.94s-.66,1.98,0,2.64c.66.66,1.6.1.19,1.23-1.41,1.13-2.36,2.17-1.23,2.17s3.3-.75,4.05,0c.75.75.38,3.49-4.99,2.54-2.08-.36-4.9-1.6-6.88-1.6s-2.26,2.64-2.54,3.86c-.28,1.23-1.04.85-2.83.57-1.79-.28-2.17-1.23-2.07-2.64s-1.32-1.7-2.26-1.51c-.94.19-1.13,2.17-1.6,3.3s-4.52,1.6-7.63,2.54.19,2.92,3.2,3.39,5.09,1.04,7.07,1.13c1.98.09,1.23,1.7,1.98,3.2.75,1.51,3.11-.57,6.12-1.32,3.02-.75,2.45-.47,4.43-.19,1.98.28,3.77,0,5.37-.28,1.6-.28,2.45-.94,3.02-1.41.57-.47,1.41-1.32,3.02-2.07s2.45-4.05,2.64-5.65.94-.85,1.88-1.13c.94-.28.38-2.07.47-3.11.09-1.04,6.6,1.6,8.1,2.07,1.51.47.85-1.23.85-2.83s2.17-1.6,3.3-1.89c1.13-.28,1.79-1.7,2.45-2.26s-1.41-2.07-2.73-2.36c-1.32-.28-2.92.28-4.71,1.04s-1.88,2.64-2.36,3.2-4.8-2.17-5.56-3.3c-.75-1.13-2.54-2.83-2.54-3.67s.28-1.04.28-1.04" style="fill:none; stroke:#9c9d9f; stroke-width:.28px;"/><path d="M362.2,369.68c-.28,0-.38-3.86-.09-4.99s2.26-1.23,5.56-1.51c3.3-.28,3.49-1.13,5.28-2.07s2.64-3.39,3.39-4.99c.75-1.6.38-3.02.38-4.15s3.2-.66,4.33-.85.57,2.92.09,3.86c-.47.94.19,1.32.94,2.36s-.19,1.51-1.98,2.17.47,3.49.66,4.15,3.67-1.98,4.15-2.36,4.24-.47,4.71-.57c.47-.09,3.49-.09,4.05-.38.57-.28.28-2.26-.66-2.26s-2.64.66-3.58.85c-.94.19-1.7-1.41-1.41-1.98s1.41-1.98,1.79-2.36,2.36-1.23,4.05-.85,2.36.47,3.49.66,3.11,1.23,4.14,2.07c1.04.85,2.36-.38,2.26-1.89-.1-1.51-.57-2.45-1.23-2.64-.66-.19-.75-3.02-.38-4.99s.94-1.7,2.26-2.17,1.51.1,1.98,2.26c.47,2.17,1.79-2.07,2.26-3.39.47-1.32.47-.85,2.07-.85s-.28-.85-1.32-3.02-1.41-2.92-1.13-3.86c.28-.94,1.98-1.41,2.83.1.85,1.51,1.13,1.98,1.79,1.98s1.32-1.98,1.04-2.83c-.28-.85,2.45-.57,3.3-.57s1.41-1.6.85-3.49,1.88-2.36,3.02-2.92c1.13-.56.28-2.07.28-3.39s2.83.94,3.39.94.57-2.45.57-4.15.28-2.07,1.32-2.45.38-1.13.38-2.83,4.62-.1,5.84-.38c1.23-.28-.85-1.89-1.41-3.02-.56-1.13,2.07-2.26,3.11-3.3s-1.51-2.64-2.26-2.64-1.7-.66-1.32-2.26,2.26-2.54,3.49-3.39c1.23-.85,2.36.5,2.54,1.41.1.47,1.32,1.32,2.36,1.41,1.04.09,2.36,1.13,2.07,1.7-.28.57-1.32,3.11-1.7,4.52s-.47,3.2.66,2.92c1.13-.28,4.05,0,3.39,1.04-.66,1.04-2.45,5.65-3.11,8.2s-1.98,6.78-1.89,8.76c.1,1.98-3.02,3.49-3.02,3.49" style="fill:none; stroke:#9c9d9f; stroke-width:.28px;"/><path d="M436.91,342.64c-.29-.79-.57-3.67.85-4.43s3.58-1.04,4.99-2.17,3.96-2.26,3.67-.1c-.28,2.17-2.54,5.84-4.24,6.88-1.7,1.04-4.43,2.17-5.28-.19Z" style="fill:none; stroke:#9c9d9f; stroke-width:.28px;"/><path d="M456.79,323.04s.57-.28,1.04-.94c.47-.66-1.32-2.83-1.32-3.49s4.43-2.17,5.09-2.36,2.45.19,3.02.47c.57.28,1.79-.85,2.54-2.26s1.32-2.17,2.92-2.36.75,2.73.47,4.24c-.28,1.51,1.79,1.41,4.52,1.32,2.73-.09,2.83-1.23,5.28-3.3,2.45-2.07,3.02-3.77,4.14-5.09,1.13-1.32,1.7.1,3.67,1.04,1.98.94,2.17-2.26,2.64-3.3.47-1.04,1.32-1.04,2.45-.75,1.13.28,1.04,1.04.47,2.83s1.32,1.04,2.26.57.66,3.77.47,4.24c-.19.47-1.32,2.26-2.36,2.36-1.04.1-1.41,2.92-1.41,4.15s-1.79,2.54-2.92,2.45c-1.13-.09-1.04-2.45-.57-3.39.47-.94-1.79-1.7-3.39-.38-1.6,1.32-1.32,4.9-1.32,5.84s-.47.47-2.45-.57-1.32,2.07-2.92,1.98-4.14-1.7-4.71-2.54-1.32-.85-3.2-1.04c-1.89-.19-1.51-1.98-1.51-2.45s-4.24-.28-5.46.66c-1.23.94-2.35,1.04-3.67,1.04s.09,1.32.85,2.45c.75,1.13-.57,1.41-1.51,1.89s-1.41,3.3-1.7,4.52c-.28,1.23-5.09,3.48-6.22,3.58-1.13.09-4.05-1.98-6.22-3.77-2.17-1.79-2.92-5.37-2.73-7.91s1.51-4.43,1.98-5.65c.47-1.23,1.79-3.11,2.45-3.96.66-.85,2.73-.94,3.67-.47.94.47.81,1.81-.09,2.36-.94.57-1.7.75-2.17,1.51-.47.75-1.04,2.07.19,2.07s2.73-.66,2.92.47c.19,1.13.57,2.83.57,2.83" style="fill:none; stroke:#9c9d9f; stroke-width:.28px;"/><path d="M472.53,327.19c-.47,0-2.45.85-2.83,1.41s-.94,2.26-1.7,2.83c-.75.56-1.7,1.98-1.79,2.83-.09.85.47,4.52,1.32,4.24.85-.28,3.96-3.3,4.52-5.18.57-1.88,4.15-2.83,2.17-5.75" style="fill:none; stroke:#9c9d9f; stroke-width:.28px;"/><path d="M348.5,397.23s.6.45-.68,1.59c-1.28,1.13-2.34,1.81-1.74,3.02s1.21,1.66,1.28,3.1.98,3.25.08,4.23c-.91.98-2.04,2.72-2.64,4.23-.6,1.51-1.13,5.14-2.57,5.59s-4.61,1.81-4.68,2.72c-.08.91-.45,4.15,1.13,5.59" style="fill:none; stroke:#9c9d9f; stroke-width:.28px;"/></g><g id="g"><path d="M85.38,311.96c.75-2,.25-6.75-.25-8.25s1.25-1.5,2.75-2,2.75-3.25,3.25-4,1.75-.25,3-.25,2-1,2.75-2.25,3.5-1.75,5-1.75,3.75,1.25,3.75,1.25c0,0,1.25-4,2-5.25s2.25-1.5,3.5-1.75,2.5-1.5,2.75-2.25,2-6.25,2.75-7.75-1.25-4-1.75-5-.5-4-.5-5-.5-3-.75-4.25-5-4-6-5.5,2-4.75,2-4.75c0,0,2.12-.25,3.38-.25s4.38-.75,5.5-1,2-.88,2-.88c0,0,.62-2.38.12-3s-1.5-1.75-1.88-2.38-1.25-6.5-.5-7.12,2.12-1.38,2.25-2.5.62-2.75,1.25-3.5,1-.88.75-1.5-.62-2.88-.62-2.88" style="fill:none; stroke:#6a4322; stroke-width:.75px;"/><path d="M66.38,251.46s3.75,0,5.75-.25,6.75-.75,6.75-.75c0,0,2.5,3.25,3.5,4.25s2.25,5,3.75,6.25,5.5,4.5,5.75,6,1.75,7,2.75,8,4,1.25,5,1.25,5.75-1.25,6.75-2,2.5-1.25,3.25-1,5.25-.5,5.25-.5" style="fill:none; stroke:#6a4322; stroke-width:.75px;"/><path d="M110.13,180.96s5.25,3.5,5.5,5,.25,3.75.5,4.5.25,2.75,1.5,3,5.75,5,5.75,6,0,4.25.5,5,3.75,4.25,2.75,4.75-2.5.5-3.5,2-3.75,6.25-4.25,7.5-2,3.5-1.25,4.75,1.5,4,4.25,4.75c0,0,.38-1.12.62-1.62s.75-.75,1.88-1.12,1-1.25,1-1.25l1.5,1.75s8-2,8.5.25,2.75,6.25,3,7.25,2.5,5.5,5.75,7c0,0,2-5.5,3.5-5s1,1.5,2.5,2,6.75,2.5,6.75,4-1.75,5.75-.5,7.25,2.25,3,3,3,3.5,0,3.25,2.25-2,4-2.25,4.75-.25,4.75.5,6.25,2.75,4.75,2.75,4.75l-3.5,7s1.5,6.25-3,6.25-13.25,1-13.75,1.75-3,5.75-1.5,7.25,8.75,5.5,8.75,6.25-.25,10.75,1,12.25,3.25,2.75,3.25,2.75c0,0,.38.38,1.38.62s4.25,1.25,4,2.12-1.5,3.75-1.25,4.25.75,1.25.75,2-.25,1.38,0,2.12.75,2,.75,2l-2.5,6.5s-8.38,5.25-9,5.62-10.62,5.62-10.62,5.62" style="fill:none; stroke:#6a4322; stroke-width:.75px;"/><path d="M187.63,261.96s4.5,1.75,5.75,1.75,11.25,3,11.25,3c0,0,1.75,5.75,3,7s2.75,1,2.75,2.5-.25,3.5.75,4.25,4,4,5,4.5,4.5,3.5,3.5,4.5-3,2-3.75,2.25-8.25,2-8.5,3.25-.5,6.5-1.75,7.25-2,1.25-2.25,2-.5,2-1.25,2.25-1.75.25-2.25,1.25-.25,1.75-1.5,2.25-4.75.75-5.25,1.75-.75,3.25-1.75,3.5-3.25,1.5-3.75,2.5-2,2.75-4.5,3.5-3.25.75-4.25,2.25-6.25,6-4,8.75,5.5,4.75,5.5,4.75l-4.5,4.5" style="fill:none; stroke:#6a4322; stroke-width:.75px;"/><path d="M217.88,290.71s.5,1.75,3.25,2.75,17,5.25,17,5.25l3.5-.5s5.75,4.75,3.25,7.5c0,0-1.25,2.5-2.5,2.75s-3.25.5-4.5,1.25-2.75,1.75-4.25,1.75h-7.5s-.5,2.5-1.75,3-4.5,2.5-2.75,3.25,5,2.75,5,2.75c0,0-2,4.5-.75,4.75s3,.25,3.75,1,9.5,7.25,9.5,7.25c0,0,4-2.5,6.5-2.25" style="fill:none; stroke:#6a4322; stroke-width:.75px;"/><path d="M264.13,381.46s-3-.5-4.5-1-7-4-8-5.25-4-.25-5.75-1.75-1.25-3.5-1-4.5,1.5-2.75,2-4.75-5.25-3.5-6.5-4-5.25-.5-5.25-.5c0,0-.62.12-.62.75s-.38,2.62-1.12,3.38" style="fill:none; stroke:#6a4322; stroke-width:.75px;"/><path d="M355.63,292.71s-5.25,5.75-5.75,7-3.25,2.75-4,3-4.5.5-5.5,2.25-2.75,7.5-3.75,8.5-4.5,5.25-4.5,6-.5,2.75-.5,2.75c0,0-2.5,2.75-3,3.5s-2.5,5-3.25,5.75-2.5,2.25-1.5,4,6.75,7.25,6,8.75-1.5,4.25-3,3.5-4.75-2.25-4.75-1,.25,6.5.25,6.5c0,0-2,7.5-2,8.75s-1.5,7.5-3,8.25-2.75,1.25-4,.5-5.5-4.25-6.25-3.5-3.25,6.75-2.25,7.5,3.25,2.75,2.5,4.5-2.75,4.25-4.25,4.25-3-1.25-4.25-1.25-5,.25-6.5-.25-3-1.5-3.75-1.25-6,.5-7.25.5-9-2.25-9-3.25.25-4.5.25-4.5c0,0,0-3.5-2.5-2.25s-4.75,2-4.75,3.5-1.5,6.25-1,8,5.25,4.25,5.25,4.25c0,0,1,4.75,1.5,6.25s2.25,4.5,3,5,3,1.75,3,1.75c0,0,.5,6.5,1,8.25s1.5,4.75,1.5,4.75c0,0-4.25,3.25-5.5,3.75s-3.25.5-3.25.5" style="fill:none; stroke:#6a4322; stroke-width:.75px;"/><path d="M293.63,381.96s-1,9,.25,9.75,10,4.25,10.5,5.5,5,4.5,6.25,4.5,3.5-1.25,4.5-2,3.25-5.25,4.25-5.5,5-1.5,5.75-2,1.75-9,2.75-8.75,3.5.75,3.5.75c0,0,0-.75.83-1.08s1.67-.17,2.5-1.17.33-1.67,1.83-1.67,4,.5,4.17,0,.5-2.5,1.33-2.5,1.67-.5,1.67-.5" style="fill:none; stroke:#6a4322; stroke-width:.75px;"/><path d="M141.13,156.59l10.5-4.25,20.38,6.12s1.25,6.75,1.88,8,4.88,4.88,5.88,5.88,6,2.88,6,4-.38,3.75-.38,4.62-.12,5.88.5,6.62,2.12,2.62,3,3.38,3.5,2.12,3.5,2.12c0,0-2.5,2-2.88,2.38s-.75,1-.88,1.88.38,2.12-.12,2.62-.88,1.25-1,2.38.38,6.88.38,6.88c0,0,3,2.75,3.75,2.75s2.38-1,3.38-.75,2.12,0,2,1.88-.12,3.75-.75,4.88-1.62,4.5-1.62,5.12-.88,4.62-.75,5.5" style="fill:none; stroke:#6a4322; stroke-width:.75px;"/><path d="M231.26,107.46s.25,4.12-.62,4.12-2.38.5-3.12,1.25-1.38,1.75-1.25,2.25.88,1.38.25,2-1.88,1.88-2.38,2.25-2.38,3.25-1.5,3.38,1.62-.38,1.75.38.12,3.25.75,2.88.88-.88,1.38-.25,1.12,1.5.75,2.12-.75,3-1.62,3-2.5-.38-2.75.12-1.12,1.38-1.62,1.5-2,1.5-1,2,1.62.88,1,1.25-2.5,3.38-1.5,3,2.25-1.62,2.38-.62.5,1.88.5,1.88c1,.38,3.38.12,3.5,1.12s1.75,3.75.62,4.25-1.88.75-1.5,1.62,2,2.25.38,1.88-3.25-.75-3.25.12-.12,2-.75,2.25-1.5.62-1.38,1.38.25,1.88-.38,2.5-2.12,1.88-1.62,2.5,1.12.75,1.12,1.75.38,1.75.75,1.88,1.5,3.25.12,2.75-4.5-.75-3.5,0,2.5,1.5,2.75,2.25.75,2,.12,2.5-1.88.88-2.75,1.62-1.88,2.38-1.62,3.25,1.88,3.25.38,3.62-3,.38-3.5.88-.25.88-1.25.88-2.12-.12-2,.5,1.5,1.62.62,2-1.62.88-1,1.25,1.25,2.62.38,2.75-3.5,2.38-2.75,3,2.38,1.62,2.38,2.25-.62,3.38,0,3.75,2.12,1,3.12.88.75-1.12,2.25,0,3.12,1.12,3.12,2,0,2.38.88,2.25,1.5.25,2.38.5,2.25.75,2.62,1.38.88,1.25,1.75.88,2.88-1.12,3.25,0,.5,1.12,1,1.75,1.5,1.12.88,2.75-1.25,3.25-1.38,4.12-.25,1.75,0,2.5,1.88,2.25,1.25,3.12-.88,1.5-.62,2.38,0,3,1.88,3v1.75s-2.25,2.25-3.25,3-12.75,7.25-15.75,9.75-18.25,14.5-20,15.75.75,3.75,1,4.5-.25,2.25-1.25,3-2.25,2-4,2.25-6.5-1.5-7.75-1.5-2.75,1.5-3.75,2-2-1-3.5-1.5-5.5,1.25-5.5,1.25l-3.5,7.5" style="fill:none; stroke:#6a4322; stroke-width:.75px;"/><path d="M229.01,217.46s6.88-1,8-1.12,3.38-.38,4.25.25,1.25,1.75,2,1.12.25-1.62,1.25-1.38,2.75,1.12,2.75.25-.25-1.38.38-1.75,3-2.62,4.38-2.12,2.38.5,3.5,2,1.62,5.75,3,6.25,3.62,1.88,3.88,2.75.12,5.62,1.5,6.12,4.5.88,5.25.12,3-3.75,3.75-3.75,3.5,1.5,4.5,1.5,2.5-.38,2.88.12.62,2,1.62,1.75,1-1,1.88-.75,3.25,1.75,3.25,2.88.5,3.62.5,4.62-.25,1-.5,2-1.62,4.62-1.25,5.5.88,1.5,1,2.25.62,2.88.62,2.88" style="fill:none; stroke:#6a4322; stroke-width:.75px;"/><path d="M387.01,125.34s-.75,4.62.25,5,3,.88,3.38,1.75,1.38,3.12,2,3.62,2.12,1.75,3,2,1.75.62,1.5,1.75-4.38,10.38-4.38,11.12-.25,1,.38,2.12,1,1.75,1.38,1.62.88-.5,2-.5,3.38.12,3.75.75,1.75,2,1.75,2c0,0,6-1.38,6.75-.62s2.25,2.25,2,4-1.5,10.88-1.5,10.88l-10.75,8.62s-6.25-5.75-7.75-6.38-3.38-.75-4-1.88-1.38-2.62-2.25-2.12-1.88,1.25-2.25,2.12-1.12,1.62-2,1.75-12,2-12.75,2.88-1.25,2.88-2.38,2.88-3,0-4.5.25-11.75,3.25-12.75,4.88-2.88,8-4.88,8.62-4.12,1.75-4.5,2.38-2.25,2.25-2.75,2.75-3.38,4.75-3.62,5.5-.75,4.12,0,4.88,2.12,1.25,2.12,1.25l-9.38,9.12s-6.75,0-7.5-.38-3.12-1.5-4.5-1.38-4.75.88-5.62,1.12-5.5,1-6.25,1.25-1.5,1.62-1.5,2.62-.25,7-.88,7.75-2.38,3-2.5,4.12.25,3.5-.5,4.38-1.75,2.12-2.5,2-1.88-.88-2.25.12-2.75,8.5-3.5,9-.88,2-1.25,2.75-1.88,4.12-2.88,4.5-2.5,1.38-3.12,2.12-2.12,4.62-2.38,5.88-.38,2.88-.38,2.88c0,0-4.75-3-5.62-1.25s-1,5.38-1.88,6.12-3.5,2.88-4,3.5-2,3.62-1.88,4.75,1.25,2.88,2.38,3.88,4,2.5,4.38,3.5,1.75,2.88,1.75,3.75.38,7.62-.25,8.25-5.5,4.12-5.88,4.75-1.25,1.62-.75,3.12,2.5,4.62,2.38,5.88.5,1.88-.75,2.75-3.75,2.75-4.88,4.12-3.5,4.62-4.25,5-7.62-.75-7.62-.75c0,0-3,3.12-3.5,3.5s-1.75,2.12-1.12,4.38,3.38,13,3.25,14-1.62,8.38-2,9.62-.75,5.88-.38,7.5" style="fill:none; stroke:#6a4322; stroke-width:.75px;"/><path d="M225.63,130.84s1.75.62,2.17,1.04,3.67,2.92,4.33,3.17,5.75,3.25,5.83,4.08,2.08,11.42,2.25,11.75,2.17,4.33,5.33,5.17,9.33.75,10.58.5,2.92-.67,3.67-.67,1.92-.42,2.42-.75,3.5-2.5,4.67-1.5,1.17,2.25,1.17,3.17.17,4.33,1.25,5,4.17,2.92,5.58,3.42,4.67,1.25,5.5.75,3.33-1.75,4.58-1.83,7.08-.17,8.17-.75,4.67-3.75,5.25-3.67,4.08.17,4.67,0,1.83-.33,2.42-.33,6.67-.33,7.67-.92,5.92-4.67,5.92-4.67l27.83,1.17s7-2.58,7.75-3.33,2.92-2.5,3.75-2.92,8.5-2.83,9.42-2.58,4.5,2.08,5.17,2.08,2.42.5,3.25.58,2.08.83,3.08.25,3.58-1.67,4.58-1.67,2.83.75,3.5,1.25.83,1.42,1.67,1.58,2.42-.17,3.83,1" style="fill:none; stroke:#6a4322; stroke-width:.75px;"/><polyline points="405.26 173.96 427.51 172.21 472.38 142.34 498.26 160.59 515.63 164.59 522.26 182.21 541.26 188.21 556.63 210.09" style="fill:none; stroke:#6a4322; stroke-width:.75px;"/><line x1="554.63" y1="97.96" x2="557.38" y2="249.71" style="fill:none; stroke:#6a4322; stroke-width:.75px;"/><path d="M324.88,218.34l8.38,9.5s.38,1.88.38,2.62-.75,3.5-.75,3.5c0,0-.25,1.12-.25,1.62s.12,1.75.12,2.62-.38,4.5-.75,5.38-1.25,2.75-1,4.12,1.12,5,1.75,5.5,1,1.5,1.25,2.38.75,6.75,1.75,7.62,9,4.62,10.25,5c0,0,4.88,8.5,4.75,9.12s-1,1.25-.25,2,2.38,2.88,2.75,4,.88,4,1.25,4.5.88,1.25.88,1.25l-1.25,1.12-.12,1.75,13.38,6.12,12.5-3.62s2.38,1.25,3.5,1.38,3.62.75,4.12,1.38,5.38,5.5,5.38,5.5l17-3.5,11.75,16.75s1.12,1.62,3,1.88,9.5,1.12,10.25,1.12,2.25-.88,2.25-.88l48.38,12.25s4.38,2.38,5.5,5" style="fill:none; stroke:#6a4322; stroke-width:.75px;"/></g><g id="h"><path d="M318.5,87.03c.82.51,3.5,1.96,4.43,1.65s.93-.72,2.06-.82,5.56-.82,5.98-1.24.1-1.44.52-2.06.93-2.06.41-2.06-1.55.1-1.96.1-1.65-.1-1.65-.1c-.93-.1-2.68-.31-3.19,0s-.93.62-1.44.93-5.25,1.44-5.36,2.06-.62,1.03.2,1.55Z" style="fill:none; stroke:#6a4322;"/><path d="M361.36,64.47c.93-.21,4.22-4.33,5.05-4.43s6.7-1.85,7.73-2.37,8.04-4.94,8.76-4.94,2.89.21,3.81-.51,4.95-3.71,5.67-3.5,2.68,1.24,3.19.41,2.58-2.47,2.99-2.27.93,1.13,1.65.72,1.65-.82,2.16-.82,4.12.31,4.74.31,1.85-.21,2.37-.62.93,0,.52-.41-2.78-.72-2.78-.72c-.62-.1-3.5-.31-4.22-.51s-2.27-.51-3.09-.51-4.43-.21-4.95,0-1.13,1.03-2.06,1.03-5.46.51-6.08.62-4.43,2.68-5.67,3.3-6.49,2.99-7.31,3.19-7.62,3.92-8.65,4.53-3.3,2.37-3.61,2.68-1.34,2.16-1.34,2.88.21,2.16,1.13,1.96Z" style="fill:none; stroke:#6a4322;"/><path d="M416.89,45.72c.72-.21,2.78-.93,2.16-1.13s-3.09-.1-3.09-.1c-.62,0-1.44.1-1.34.62s1.55.82,2.27.62Z" style="fill:none; stroke:#6a4322;"/><path d="M440.38,47.47c.82-.1,2.06-1.44,2.68-1.85s1.44-1.03,2.06-1.75.41-1.13,1.34-1.65,4.74-2.27,4.74-2.27c.62-.51,3.4-2.68,3.4-3.09s-.41-1.03-1.13-1.03-1.96.31-2.27,0-1.24-.72-1.75-.62-1.75.72-2.16,1.34-3.4,4.84-4.02,5.46-1.44,1.75-1.85,2.37-1.85,3.19-1.03,3.09Z" style="fill:none; stroke:#6a4322;"/><path d="M770.26,215.84c-.76-.38-5.76-1.75-7-2.5-1.26-.75-7.26-5.25-8.26-6.38-1-1.12-2.62-4.75-2.74-5.87-.13-1.13-.88-3.38-.88-4.13s-1.25-2.75-1.88-3.75c-.62-1-1.24-2.25-2.12-3.25s-5.38-4.5-6.12-4.75c-.76-.25-5-2.12-6-2.12s-7-2.75-8.5-3.63c-1.5-.87-10-4.12-11.13-4.75-1.13-.62-4.25-2.75-4.25-2.75-.5-.62-.25-.75-1.25-1.37-1-.63-2.75-1.13-3.75-.63-.46.23-1.07.72-1.52,1.24-.53.62-.83,1.3-.36,1.64.88.62,3,1,3.88,1.62.88.63,1.5,1.5,2.38,1.63.87.12,1.62.12,2.12.62s4,2.25,4.62,2.75c.63.5.76,1,1.76.88,1-.13,1.5-.13,2.12,0,.54.1,2.95,1.67,4.02,1.87.15.03.27.03.36,0,.74-.25,1-.62,1.74-.37.76.25,1.63.25,2,1.5.38,1.25,1.13,4.75,1.76,5.37.62.63,3,2,2.74,2.88-.24.87-1,1.5-1.62,1.5s-3.62-.5-3.88-.13c-.24.38-1,2-1.74,2.5-.76.5-2.5,1.88-2.63,2.5-.13.63-1.75,1-2.13.5-.37-.5-.37-1.12-.62-2-.25-.87-.5-2.75-1.12-2.75s-1.5-.25-1.5.75-.13,2.5-.5,2.75c-.38.25-1.5,0-1.5-1.25s.24-2.62.87-3c.63-.37,1.25-.87,1.75-1.62s.38-1.88,1.5-1.75c1.12.12,2.75.5,3.12,1.37.38.88,1.5,2.75,2.13,2.13.63-.63.87-2,1.63-2.75.74-.75,1-1,1-2s-.76-2.5-.76-3.38-.24-1.75-1-1.5c-.41.14-.99.24-1.55.28-.44.03-.87.03-1.19-.03-.76-.12-2.26-.5-3.26-.87-1-.38-4.62-1-4.62-.13s.25,1.88-.5,2.75c-.75.88-1.38,2-2.25,2.13-.87.12-1.5.12-2,.75-.5.62-3.37,2.75-4,3.25s-1.75,1.2-1.75,1.2c-1,.34-1,0-1.83-.5-.84-.5-.84.17-1.34.67s-1.33.67-2,.5c-.66-.17-.66-2.83-.66-3.67s-.84-1.83-1.5-2.5c-.67-.66-1-1.83-1.17-2.5-.17-.66-1.33-2.83-1.83-4-.5-1.16-5.67-3.5-6.5-3.66-.84-.17-4.84-3.84-5.67-4.67s-3-1.67-4-2.17-4-2.16-4.83-2.5c-.84-.33-4.67.5-5.5.84-.84.33-.34.83-.17,1.83.08.5.96,1.38,1.9,2.25.94.87,1.94,1.75,2.27,2.25.66,1,2.66,1.17,3.83,1.17s10.33,5,11,5.66c.67.67,3,1.5,3.83,1.84.84.33,1.17,1,1.17,2s-1.67,1.33-2.5,1.33-1.5.33-2.67.33-2.33-.5-3.66-.83c-1.34-.33-3-.33-4-.67-1-.33-2-1.5-2.34-2.16-.33-.67,1.84-1.84,2.5-2.34.67-.5-2.5-.66-3.5-.5-1,.17-3,0-4.33-.5s-1-2.66-1-4-.83-1.83-1.5-2.5c-.07-.07-.13-.1-.17-.1-.36,0,.15,2.19,0,2.94-.16.83-1.5.5-2,.16-.5-.33-4.16-1.16-5.16-1.66s-2.84-3.67-3.17-4.67-1-3.33-.83-4.33c.16-1,2.5-1.17,3.33-1.84.83-.66.33-1.83-.33-2.66-.67-.84-3-3-3.67-3.84-.67-.83-.67-1.83-.83-2.66-.17-.84-.5-1.34-1.5-1.84s-1.17,2.34-2,3.17q-.84.83-2,1.67c-1.17.83-.67,0-.67-1.5s-2.83-2.84-3.17-4.34c-.33-1.5,2.34-.66,3.5-.83,1.17-.17,3-.5,4.67-.17,1.67.34,3.17,4.17,4.17,5.17s1.83,2.33,2.5,2c.66-.33-1.34-2.33-2.17-3.33s-.33-2.5-.5-3.34c-.17-.83,1.5-.33,2.5-.16,1,.16.83.83,1.5,2.33s1.17,1.83,2.17,1.83,2.16-2.16,2.66-2.66,6.17,2.5,6.84,3c.66.5,1.5.16,2.33,0,.83-.17,2.17,1.66,3,3.33s1.17,2,1,3.17c-.17,1.16,3.83.83,4.67.83s5.16,2.17,6.16,2.5,1.5,1.5,2.67,2.17c1.17.66,5.17,2.16,6.17,2.33.21.04.38.03.52,0,.48-.15.48-.79.48-1.83,0-1.34-6.5-2.5-7.34-3-.83-.5-6-3.34-7.33-4.5-1.33-1.17-10-10-11.33-11.17-1.34-1.17-8.17-7.83-8.84-8.5-.66-.67-2.33-2.5-3.33-2.83-1-.34-2.83-2.5-3.5-3.67s-5-3.33-6.17-4c-1.16-.67-2.16-2-3.16-2.67-1-.66-4.67-5-5-5.5-.34-.5-4.34-3.83-5.34-4.33s-4-.83-6-1-3-.33-4-1-3-.33-4.33,0-4.17-.17-5.5-.5-10.67-1.83-12.17-2.33-4.33-.5-5.83-.5,0,1.16.67,1.33c.66.17,3.5,1,4.66,1.17,1.17.16,9.5,1.5,10.84,1.66,1.33.17,3.83.5,4.33.84.5.33-1.67,1.16-2.5,1.16s-2.33-.33-3.83,0c-1.5.34-2,2.17-3,3-1,.84-5.5,0-6.34-.16-.83-.17-2.16-2.84-3.33-3-1.17-.17-1.33,3.5-1.33,4.5s-1.17,1-2.67.5-2.33-4-3-5.17.67-4.33,1.5-5.5-5.17-2.67-6.67-2.83c-1.5-.17-10.16-3.84-12.16-4.34s-17.17-6.83-18-7c-.84-.16-4.34-1-6.34-1.33-.42-.07-.97-.04-1.58.05-2.28.34-5.54,1.59-7.25,2.12-2.17.66-6,5.33-7,6-1,.66-7.5,2-8.67,2.16-1.16.17-3.83.67-5,.67s-10.83-.33-12.5-.33-3,.33-4.16.66c-1.17.34-3.5,1.34-6,1.34s-4.34,0-5.67-.5-4.5,0-5.67,0-8.66-3.34-10-3.67c-1.33-.33-6.16-3.67-7-3.83-.83-.17-1.83,2-2.66,2.5-.84.5-.67-3.17-.84-4-.16-.84-3-1.67-3.83-2-.83-.34-2.5-.84-3.5-1.67s-2.83-.17-4.5-.17-6-1.66-7.33-2.33c-1.34-.67-2.84.17-3.5.67-.67.5-3,.16-3.84,0-.83-.17-3.33-.5-4.83-.5s-3.83-.5-6-.5,2.17,2.5,3.33,2.83c1.17.33,2.67.17,4.17.17s3,.5,4.17,1.33c1.16.83-.67,4.67-3.67,7s-6.5,4-9.17,4-10.66,0-12.16.17c-1.5.16-2,.16-3,1-1,.83-2.5.66-4,.83s-4.5,1.67-5.67,3-3.5,3.5-3.5,3.5c-1.5,1-8.83,4.67-10.5,5.17s-5,2-6.83,2c-.29,0-.65-.09-1.06-.24-2.13-.79-5.49-3.31-6.61-3.6-1.33-.33-1.67-.16-2.5.17s-2.67,0-4,0-5.33,1-6.67,1-3.66-.5-4.5-.67c-.83-.16-8.83,1-10.33,1.17s-5.17-.67-7.17-.83c-2-.17-6.33,2.33-7.83,3.16-1.5.84-4.33.17-5.33.17s-5.84,1.33-7,1.33-7.84-2-9-2.33c-1.17-.33-7.34-1.5-8.34-1.67-1-.16-2.5-.16-3.66-.16s-3.67-1-4.67-1.17-2-.83-2.67-1.33c-.66-.5-6.83-1.5-7.83-1.67s-5.67-1.5-6.67-1.5-4-.83-6-1.17c-2-.33-.83.17-3.33,1.67s-4,1.5-5,1.33c-1-.16-4.17,3.84-5,4.17s-6.5-2.5-7.17-3.17-4.5-3.16-5.16-4c-.67-.83-3.84-3.33-4.84-4.66-1-1.34-.16-2-.16-3s1.66-1.84,2.5-2.34c.83-.5.16-1-.67-1.16-.83-.17-4,2.33-4.67,3.16-.66.84.34,2.67-.16,3.34-.5.66-2-1.84-3-2.34s-4.67-3.16-5.84-3.16c-.93,0-1.43.53-2.45,1.33h0c-.25.21-.54.43-.88.67-1.67,1.16-3.67,1-5.17.83s-6,1.33-7.16,1.67c-1.17.33-2.67.66-4.34,1.16-1.66.5-5.5,1.67-7,1.67s-1.66.33-1.66.83,1.5,1.5,2.83,1.84c1.33.33-.33,1.5-1.5,2.5s-3.67,3-4.83,4c-1.17,1-4.34.5-5.5.5s-1.34,0-1.67.83-1,1-2,2.83c-1,1.84-1.67,2.67-4.17,3.34-2.5.66-1.33,3.16-2,4.33-.66,1.17-4.83.67-6.66.17-1.84-.5-4.17-3.5-5.34-4.34-.22-.16-.55-.34-.93-.53l-2.65,1.45s-1.25,3.87-1.87,3.87-2.76-.37-2.88.13-.25,1.25-.88,1.37c-.62.13-2.62.38-2.62.38,0,0-.33,3-1.83,4-.98.65-11.52,9.24-18.78,15.36-3.88,3.28-6.83,5.85-6.89,6.14-.17.83-.5,1.83-1.5,2.17-1,.33-2.83.66-4,1.5-1.17.83-10.17,9.66-13.33,11.5-1.15.66-3.31,1.99-5.69,3.48-4.22,2.64-9.14,5.77-10.31,6.52-1.84,1.16-15.67,13-17,13.66-1.34.67-12,3.84-12.67,4.17s-6.5,3.67-7,4-2.83,2.67-3,3.33c-.17.67-1.33,3.84-.33,4.34s3,2.16,2.66,2.66c-.33.5-3.33,7.34-4,8.17-.66.83-5.5,6.17-4.16,8.33,1.33,2.17,6.16,10.5,7.66,11.84,1.5,1.33,3.84,3.33,3.84,3.33,0,0-2.34,5.5-2.34,7s-.83,11.17-2.66,10.83c-1.84-.33-3.67-1.33-4.67-1.5-1-.16-3.17-.5-3.83.34-.67.83-7.84,6.83-7.84,7.66s.34,2.17-.5,2.5c-.83.34-3.16.5-3.83,1.5s-1.33,6.67-1,7.84c.33,1.16,1,1.33,2.33,1.66,1.34.34,14.5,4.34,15.34,4.84.83.5,3.33-.17,3.33-.17l3.5,3.67s3.67-3.34,5.17-3.5c1.5-.17,2.5-1.34,2.33,0-.17,1.33-1.67,2.5-.33,3,1.33.5,8,2.66,8,3.83s-1,2.67.5,4.17,3.66,3.83,4.5,5c.35.49.83,1.16,1.34,1.8.7.87,1.49,1.67,2.16,1.86,1.16.34,6.83,1.67,8.16,3.84,1.34,2.16,4.67,7.33,5.67,8.16,1,.84,2.5,2,3.5,1.34,1-.67,1.17-1.34,2.33-1.34s2.17.17,3.34.17,2.5-1.17,2.83,0,.83,2.83.33,3.33-2,1.84-1,2.67,5.17,4.33,5.84,5c.66.67,5.16,3.17,6.16,3.67s5.34,1.83,6.17,2c.83.16,7.33,1.16,7.33,1.16,0,0,.1.1.19.28.13.25.25.64.1,1.14-.24.87-1.37,3.87-1,4.87.38,1,1.26,2.13,1.38,3.13s.62,3.5.62,3.5c0,0,2.26,1.75,2.88,1.63.62-.13,2-1.38,2.75-1.13l.75.25s3.5-2.88,4.75-2.88,4.46.51,5.92,2.38l2-3.17s4.83.5,5.83-.66c1-1.17,2.5-3.5,3.83-3.67,1.34-.17,3.34-.17,3.34-.17,0,0,1.66-2,.66-2.5s-1.5-1.5-1.66-2.33c-.17-.83-1-3.17.5-3.33,1.01-.11,3.07.3,4.72.74.8.21,1.5.43,1.94.59,1.34.5,3.84,0,5-.67,1.17-.66,3-1,4-1s4,0,4.34,1.34c.33,1.33.16,5.16.16,5.16l2,1.5s-.21,1.17.29,1.79c.5.63,3,2.88,3.13,3.76.13.87.25,2.12.25,2.12,0,0,5.88-3.12,6.88-2.88,1,.26,4.37,1.88,4.74,1.26.38-.63.26-1.26,1.26-1.38s5.12-1.17,5.12-1.17l1.83.67s.5-3,1.84-2.83c1.33.16,3.66-.84,4.33,0,.67.83,3.5,4.83,4.83,6.33,1.34,1.5,2.34,2,2.67,2.83.33.84.33,1.84,1,2.34s2,2.16,2,2.16c0,0,0,.02,0,.05-.07.39-.54,3.06-1.11,3.74-.63.76-1.88,2.5-1.88,3.26s-.12,5.37-.75,6c-.63.62-2,2-2,3s-.13,6-.63,7.5-3,9.62-3.12,10.12-.25,1.38.38,2.25c.62.87,1,2,1.74,1.5.76-.5,1-1.13,1-1.13l4.26.88s1,2.12.74,3.12c-.24,1-.74,4.63-1.62,4.76-.88.12-2,.12-2.88.37-.87.25-3.37,1-3.74,1.63-.37.6-1.21,1.68-2.18,1.98.07.03.11.08.13.14.17.5,2,2.5,2.5,3.17.5.66,2.84,3.33,3.84,3.33s2.5.17,3.5-.17c1-.33,3.33.34,4.33-.66s1.17-2.5,1.67-3.5.83-2.5.83-3.5.33-3.5,2-3.67,2.83,1.17,2.83,2c0,0-1,2.17-1,2.83s.34,1.84.5,2.34c.17.5,1.17,1.83,2,2,.84.16,3.5,1,4.5,1.5s2.84,2,4,2,1.84-.67,2.34-1.34c.5-.66,3.16-3.66,3.83-4.16s3.5-3,4.17-2.34c.66.67,1.5,1.17,2.5,1.17s1.66-.16,2.5,0c.83.17,2.66.67,2.5,2.17-.05.41-.07.76-.1,1.08-.05.85-.13,1.39-.74,1.75-.83.5-3.16,1.5-4.16,1.5s-2.34-.17-3,.33c-.67.5-1.67,2.67-2.5,3.34-.84.66-5.17,3.66-5.5,4.5-.34.83-.67,1.5.33,1.83,1,.33,3,.67,3.17,1.5.16.83.66,1.17,1.5,1.5.83.33,1.5,1,1.5,2.5s0,2.17,1,2.83c1,.67,1.83,2.17,2,3,.16.84,1.33,5.17,1.33,5.67s.5,2.33,1.5,2.33,4.67.34,5.33.5c.67.17,4.84.84,5.5.84s1.34,1,.34,1.16c-1,.17-4.5.84-4.5,2.17s1.5,2.33,1.83,3.17c.33.83.83,1.66,2,2,1.17.33,3,.33,4,.33s2.5.5,1.67,1.17c-.84.66-3,2.66-3.5,3.5-.06.09-.12.2-.2.31l.03.02,29.67-1.17s1.5,1.84,2.66,1.84,2-1.34,2.5-2c.5-.67.84-.67,1.5-.67s1-1.17,1.5-2.17,3.84-1.5,4.67-2,.5-1.66.67-2.83c.16-1.17,2.83-2.83,3.66-3.5.84-.67.67-1,.17-1.83-.5-.84-1-1.84-1-3s.67-2.5,1-3.5-.67-1.84-1-2.5c-.33-.67.33-1.17.67-2,.33-.84.66-2,.66-3s1-2,1-2l1.67-2.67s3-.5,3.83-1.17c.84-.66,3-2.33,4-3,1-.66,2.84-.5,4,.17,1.17.67,5.67,3.33,6.34,4.17.66.83,4.66-3.17,5.5-4.34.83-1.16,0-6.16-.34-7.16-.33-1-1.83-1.67-3.33-2.5-1.5-.84,1.5-5.67,1.83-7,.34-1.34-.5-5.84-.83-6.5-.33-.67-3.83-12.34-4.33-13.34s.83-4.16,1.16-5c.34-.83-2.83-2.33-3.83-3.5-1-1.16-.17-5.5-.17-5.5l.84-5.33c1.5-1.33,9.66-2.5,10.66-2.5s4.67.83,5.67.5,6-.83,7.17-.83,2.16-.5,2.66-1,2-.84,3-.67,5.17,2.17,6.34,2.83c1.16.67,2.83-.5,3.5-.83.66-.33,2,.5,2.83.83.83.34,4,1.5,4.83,1.34.84-.17,3.34-.67,4.34-.84,1-.16,4.5-1.33,5-2,.5-.66,1-3.83,1.16-5.16.17-1.34,3.67-5.34,4.17-5.67s4-3.5,5-4.33c1-.84,5-7.5,5.5-8s2-1.34,3-1.5c1-.17,3.33-5.5,4-7s3-1.67,3-1.67c0,0,6.5-1.17,7.25-1.33.75-.17,2.75.41,2.25,1.41s-2.33,3.42-2.42,4.09c-.08.66.17,2.33,1.25,3,1.09.66,2.75,1.5,3.25,2.16.5.67,2,2.42,3.09,3,1.08.59,3,1.25,3.33,1.75s3.25,4.17,3.92,3.75c.66-.41,1.16-1.41,2.16-1.33s4.34.25,4.59.75.66,2.33.75,3c.08.67,1.08,2.92,1.91,3.67.84.75,3.5,3.41,4.17,3.08s1.5-2,2.75-1.92c1.25.09,3.08,1,3.08,1,0,0,.34-1.58.25-2.58-.08-1-3.5-3.08-3.25-3.67l.25-.58s1.09-1.5,1.42-3.25-.17-4.08.33-4.67c.5-.58,2-.4,2.5-.33,2.25.33,4.5-2.08,4.92-2.5s1.75-.17,2.25-.17.33-.5.67-1.25c.33-.75,4.08-2.08,4.58-2.41.5-.34,1.33-1.42,1.67-1.75.33-.34,6.25-2.42,7.25-2.75.14-.05.28-.17.42-.35.89-1.12,1.81-4.41,2.24-4.99.5-.66,2.34-.58,3-.75.67-.16,5.84-3.16,6.42-3.75.58-.58,1.75-3.33,2.33-4.91.59-1.59,2.34-3.75,2.75-4.09.42-.33.25-1.25.25-2s1.17-2.16,1.5-2.41c.34-.25,2.42-.59,3.09-.67.66-.08.83-2.33.83-2.33,1.83-2.59,10-4.34,10-4.34l.42.84s2.91.5,3.41.5,5.42-3.25,6.42-3.67,1.67-2.5,1.75-3.33c.08-.84-1.58-2.5-2.25-3.25s-2.83-3.92-3.08-4.34c-.25-.41,1.91-3.16,2.33-3.66s.58-1.59.75-2.42,1.42-1.75,2.33-2.58c.92-.84,1-6.34,1-7.42s-.66-3.33-.66-3.33l3.83-.84s1.67,2.09,2.25,2.92,2.42,1.08,2.92.92c.5-.17,4.33-3.25,4.91-3.84.59-.58,1.34-1.75,1.5-2.5.17-.75-2.16-1.83-2.16-1.83,0,0,.75-1.58,1.08-2.33s-1.83-2.17-2.92-3.09c-1.08-.91,1.59-1.41,2-1.58.42-.17,1.34-3.08,1.34-3.08l-.42-1.34s2.25-1.16,3-1.83,3.75-3.92,4.08-4.08c.04-.02.11-.04.19-.05.6-.12,2.13-.14,2.65-.29.58-.16,1.5-3.5,1.5-4.08s3-2.17,3.5-2.33c.5-.17,5.33-1.5,6.08-1.67s1.58-1,2.08-1.33c.5-.34,3.5.33,3.92.66,0,0,1.25,2.5,1.58,3.42.34.92,1.34,2.67,1.84,2.75s1.91.5,2,1.33c.08.84-.59,2.25-.09,2.5s1,.34,1,.84-.25,3,1,3.5,2.34.33,2.59,1.16c.25.84.58,3.67,1.75,3,1.16-.66,3.75-1.41,3.75-1.41,0,0-.42,1.58,1.33,1.41,1.75-.16,2.75-.66,3.42-.08.66.58,2.25,1.92,3.16,2,.92.08,1.67-.67,2.34-.25.66.42,2,1.08,2.33,1s.83-.17.83-.17l3.42,2.67s3-.67,3.33,0c.34.67.5,1.5,1.17,1.25s4.17-.67,4.92-1,1.41-.83,2.16-1.25,4.84-4,5.25-4.92c.42-.91,1.84-3.5,2.5-3.5s2.09.25,2,1.09c-.08.83-.75,2.33.5,2.75,1.25.41,4.42-.17,4.42-.17,0,0,1.17,2.08,2.08,1.83.92-.25,2.75-.75,2.84-1.91.08-1.17-1.34-7-.75-7.67.58-.67,3.83-3.25,4.33-2.25s1.5,2.42,2.08,2.92c.59.5,2,2.33,3.17,2.5,1.17.16,4.42.08,5.08-.17.67-.25,2.67-2.42,3.25-2.33.59.08,1.92.75,2,.25.09-.5.34-1.84.09-2.17s-1.92-1.08-2.17-1.92c-.25-.83-.58-2.5.33-2.91.92-.42,3.84.08,3.84.83s.25,2.75.83,2.5,2.58-.83,2.58-.83l2.84,2.41s3.83-1.33,4.75-1.08c.91.25,2,.67,2.66.42.67-.25,1.09-.92,2.09-.67s2.41.5,2.58-.33c.17-.84-.17-3.5,1.42-4.25,0,0,2.83,1.91,3.41,2.08,0,0,1.42-2,1.84-1.33.41.66.25,1.41,1.16,1.25.92-.17,2.75-.75,3.34-1.17.58-.42,2.83-1.42,2.83-1.92s-.92-.66-1.08-1.16c-.17-.5-.25-1.25.5-1.34.75-.08,2.91-.16,3.66-.16s4.17-.75,4.5-1.42c.34-.67.25-1.83,1-1.83s2.34-.34,2.59.08.66,1.42,1.08,1.08c.42-.33.75-.5.33-1.08-.41-.58-2.25-1.92-1.58-2.33.67-.42,2.83-1.5,3.75-1.5s4.42-1.25,5.25-.92,2.5,2.25,3.17,1.58c.66-.66.91-1.25.83-1.91-.08-.67-.08-1.92.25-2.17s1.33-1.83,1.83-1.5.67.83,1.17.33,4-2.5,3.83-3c-.16-.5-1-1.33-.25-1.33s1.59-.17,1.5-.58c-.08-.42.09-2.5.67-2.25s1.25.33,1.5-.17,2.42-4.42,2.42-4.42c0,0,2.66,2.75,3.41,3.17s2,1.33,2.5.67c.5-.67.84-1.5,1.5-1.67.67-.17,2.34-.58,2.92-1.5s1.17-3.08,1.92-2.42c.75.67,1.41,1.67,2.08,1.67s1.92-.08,2.17.5,1.08,2.25,1.66,1.58c.59-.66.92-1.41,1.59-.91.66.5,1,.75,1.58.66.58-.08,3.58-1,4.08-.75s.92.84.42,1.09-1.33.66-1,1.25c.33.58,1.25.41,2,.41s4.83.25,5.67-.16c.83-.42,1.75-1.75,2.58-1.59.83.17,3.67.75,4.5.75s1.25-.33,1.67-.5c.41-.16,2.08-.83,2.75-.75h.2c-.48-.59-4.33-2.12-4.99-2.45ZM199.63,227.21c.5,0,1.37,1.37,1.5,1.75,0,0,.63,1.12,1.13,1.12s.74-.5,1.12-.24c.38.24,1.62,1.87,1.75,2.24.13.38.25,2.26,0,2.76s-1.37,2.87-1.63,3.87c-.24,1-.5,2.5-.5,2.87s-.5,2.13-.87,2.5c-.05.05-.1.1-.17.14-.44.33-1.26.65-1.7.86-.5.26-1.5-1.12-1.5-1.74s-1.13-1.63-.76-2.5c.38-.88,1-2.13,1.13-2.76.13-.62.37-2.24.37-2.87s-1-2.13-2-2.13-2-1-2-1c-.62-.62-.37-1-.37-1.62s-.87-.88-1.13-1.75c-.02-.06-.03-.13-.03-.19,0-.81,1.34-1.6,2.03-2.06.76-.5.76.12,1.63.62s1.5.13,2,.13Z" style="fill:none; stroke:#6a4322;"/><path d="M269.55,417.79c.16-.83-.5-1.83-1-2-1.02-.33-2.34-1-2.5,0-.17,1-.67,3.17.16,3.17s3.17-.33,3.34-1.17Z" style="fill:none; stroke:#6a4322;"/><path d="M250.71,420.96c-1-.33-2.33-1.83-2-.33.34,1.5.34,2.33,1.17,2.33s1.83.33,2.17-.17c.33-.5-1.34-1.83-1.34-1.83Z" style="fill:none; stroke:#6a4322;"/><path d="M245.21,418.63c-.83-.5-2-.5-2.83-.34-.83.17-3.5,1.34-3.33,2.67.16,1.33,1.33,2.5,2,3.5.66,1,1.33,1,2.16,1.33.84.34,1.5.5,2.17-.33s1.83-2,1.83-2.67-.66-2.83-.66-2.83c-.5-.67-.5-.83-1.34-1.33Z" style="fill:none; stroke:#6a4322;"/><path d="M242.55,428.13c-.67-.17-2.34-.84-2.34-.84-1,0-3,.67-3.16,1.34-.17.66-.84,2.83.66,3.5,1.5.66,2.67.33,3.17.66.5.34,1.83.84,2.33-.16s.5-2,.34-2.84c-.17-.83-.34-1.49-1-1.66Z" style="fill:none; stroke:#6a4322;"/><path d="M234.55,440.79c-1-.66-1.5-.99-1.5-1.66s.16-1.34.16-1.34c0-1.16-.5-2.66-1.33-2.33s-1.17,0-1.33,1.67c-.17,1.66-.84,4.66.66,5.16s2.5,1.17,3,.5c.5-.66,1.34-1.33.34-2Z" style="fill:none; stroke:#6a4322;"/><path d="M230.71,428.29c-.83,0-1.66-.16-1.66.67s.16,1.5,1,1.33c.83-.16.66-2,.66-2Z" style="fill:none; stroke:#6a4322;"/><path d="M227.05,424.96c-.67,0-1.5.67-1.5,1.17s.66,1.67,1.33,1,1.33-.83,1.17-1.5c-.17-.67-1-.67-1-.67Z" style="fill:none; stroke:#6a4322;"/><path d="M226.05,433.63c-.5-.5-2.84-.17-2.34.66.5.84,1.34,1.5,2,1.17.67-.33,1.34-.5,1-1-.33-.5-.66-.83-.66-.83Z" style="fill:none; stroke:#6a4322;"/><path d="M665.88,158.63c-.83-.33-2,.33-1.33,1.33s1.5,2.33,1.67,3.5.33,2.83,1,3.17,1,.33,1-.67,0-2.17-.33-2.83-.83-2.33-.83-2.33c-.17-1.33-.33-1.83-1.17-2.17Z" style="fill:none; stroke:#6a4322;"/></g></g></g></svg>