<?xml version="1.0" encoding="UTF-8"?><svg id="b" xmlns="http://www.w3.org/2000/svg" viewBox="0 0 325.1 352"><g id="c"><path d="M61.7,125.41C27.68,125.41,0,153.09,0,187.11c0,67.46,56.32,138.32,58.73,141.3.73.9,1.82,1.44,2.97,1.44h.06c1.18-.01,2.29-.58,2.99-1.52,2.39-3.17,58.65-78.27,58.65-141.21,0-34.02-27.68-61.7-61.7-61.7h0ZM61.61,319.6c-11.85-15.95-53.96-76.57-53.96-132.49,0-29.8,24.24-54.05,54.05-54.05s54.05,24.24,54.05,54.05c0,52.28-42.4,115.9-54.13,132.49h0Z" style="fill:#6a4322;"/><path d="M277.47,156.64h.06c1.18-.01,2.29-.58,2.99-1.52,1.82-2.41,44.59-59.52,44.59-107.47.01-26.28-21.36-47.65-47.63-47.65s-47.63,21.38-47.63,47.65c0,51.39,42.84,105.28,44.66,107.56.73.9,1.82,1.44,2.97,1.44h0ZM277.47,7.65c22.05,0,40,17.94,40,40,0,38.28-30.33,84.76-40.07,98.72-9.83-13.41-39.91-57.78-39.91-98.72,0-22.06,17.94-40,39.98-40h0Z" style="fill:#6a4322;"/><path d="M94.07,302.02c-1.87-.99-4.19-.24-5.16,1.64-.97,1.87-.24,4.19,1.64,5.16,7.7,3.98,12.11,9.33,12.11,14.65,0,11.33-18.77,20.9-40.98,20.9s-40.98-9.57-40.98-20.9c0-5.25,4.07-9.31,7.46-11.81,1.7-1.24,2.08-3.63.84-5.35-1.24-1.7-3.63-2.08-5.35-.84-6.94,5.07-10.6,11.29-10.6,17.98,0,16.01,21.36,28.55,48.64,28.55s48.64-12.54,48.64-28.55c.01-8.28-5.92-16.1-16.25-21.43h0Z" style="fill:#6a4322;"/><path d="M303.58,142.27c-1.7-1.26-4.1-.9-5.35.79-1.26,1.7-.9,4.1.79,5.35,1.97,1.47,4.31,3.79,4.31,6.7,0,5.93-10.61,12.56-25.86,12.56s-25.86-6.62-25.86-12.56c0-1.72.84-3.45,2.48-5.13,1.48-1.51,1.47-3.93-.04-5.41-1.51-1.48-3.93-1.47-5.41.04-3.07,3.11-4.68,6.74-4.68,10.49,0,11.33,14.72,20.21,33.51,20.21s33.51-8.88,33.51-20.21c0-4.74-2.63-9.31-7.4-12.84h0Z" style="fill:#6a4322;"/><path d="M116.37,293.86l-2.27,2c-1.59,1.4-1.73,3.81-.33,5.39.75.85,1.81,1.28,2.87,1.28.9,0,1.81-.32,2.54-.96l2.27-2c1.59-1.4,1.73-3.81.33-5.39-1.4-1.57-3.81-1.72-5.41-.33h0Z" style="fill:#6a4322;"/><path d="M230.94,192.37l-2.87,2.54c-1.59,1.4-1.73,3.81-.33,5.39.76.85,1.81,1.28,2.87,1.28.9,0,1.81-.32,2.54-.96l2.87-2.54c1.59-1.4,1.73-3.81.33-5.39-1.42-1.59-3.83-1.73-5.41-.33h0Z" style="fill:#6a4322;"/><path d="M216.62,205.06l-2.87,2.54c-1.59,1.4-1.73,3.81-.33,5.39.76.85,1.81,1.28,2.87,1.28.9,0,1.81-.32,2.54-.96l2.87-2.54c1.59-1.4,1.73-3.81.33-5.39-1.4-1.59-3.83-1.73-5.41-.33h0Z" style="fill:#6a4322;"/><path d="M245.26,179.68l-2.87,2.54c-1.59,1.4-1.73,3.81-.33,5.39.76.85,1.81,1.28,2.87,1.28.9,0,1.81-.32,2.54-.96l2.87-2.54c1.59-1.4,1.73-3.81.33-5.39-1.4-1.59-3.83-1.73-5.41-.33h0Z" style="fill:#6a4322;"/><path d="M202.3,217.74l-2.87,2.54c-1.59,1.4-1.73,3.81-.33,5.39.76.85,1.81,1.28,2.87,1.28.9,0,1.81-.32,2.54-.96l2.87-2.54c1.59-1.4,1.73-3.81.33-5.39-1.42-1.59-3.83-1.72-5.41-.33h0Z" style="fill:#6a4322;"/><path d="M173.66,243.12l-2.87,2.54c-1.59,1.4-1.73,3.81-.33,5.39.76.85,1.81,1.28,2.87,1.28.9,0,1.81-.32,2.54-.96l2.87-2.54c1.59-1.4,1.73-3.81.33-5.39-1.42-1.59-3.84-1.73-5.41-.33h0Z" style="fill:#6a4322;"/><path d="M145.01,268.5l-2.87,2.54c-1.59,1.4-1.73,3.81-.33,5.39.76.85,1.81,1.28,2.87,1.28.9,0,1.81-.32,2.54-.96l2.87-2.54c1.59-1.4,1.73-3.81.33-5.39-1.4-1.59-3.83-1.73-5.41-.33h0Z" style="fill:#6a4322;"/><path d="M159.33,255.81l-2.87,2.54c-1.59,1.4-1.72,3.83-.33,5.39.76.85,1.81,1.28,2.87,1.28.9,0,1.81-.32,2.54-.96l2.87-2.54c1.59-1.4,1.72-3.83.33-5.39-1.4-1.59-3.83-1.73-5.41-.33h0Z" style="fill:#6a4322;"/><path d="M187.98,230.43l-2.87,2.54c-1.59,1.4-1.73,3.81-.33,5.39.76.85,1.81,1.28,2.87,1.28.9,0,1.81-.32,2.54-.96l2.87-2.54c1.59-1.4,1.73-3.81.33-5.39-1.42-1.59-3.83-1.73-5.41-.33h0Z" style="fill:#6a4322;"/><path d="M130.69,281.17l-2.87,2.54c-1.59,1.4-1.73,3.81-.33,5.39.76.85,1.81,1.28,2.87,1.28.9,0,1.81-.32,2.54-.96l2.87-2.53c1.59-1.4,1.73-3.81.33-5.39-1.4-1.6-3.83-1.73-5.41-.34h0Z" style="fill:#6a4322;"/><path d="M63.04,192.42c-.86-2.32-1.42-3.67-2.54-5.43-2.99-4.71-6.27-5.81-6.82-11.46-.62-6.3,2.89-10.6,4.85-15.12.95-2.19-.72-4.64-3.19-4.65-.02,0-.03,0-.05,0-13.86,0-25.1,14.82-25.1,33.1s11.24,33.1,25.1,33.1h.03c3.07,0,5.38-2.5,6.2-3.38,3.95-4.26,5.06-16.56,1.5-26.14Z" style="fill:#6a4322;"/><path d="M67.79,156.63c-2.88,1.13-4.13,3.74-5.88,7.43-.47.98-2.91,6.25-2.37,11.31.18,1.64.6,2.68.75,3.03.61,1.38,1.53,2.42,2.65,3.68.98,1.11,2.1,2.37,3.18,4.07,1.25,1.96,1.85,3.47,2.68,5.73,1.76,4.74,2.53,10.32,2.16,15.71-.27,3.98-1.16,7.44-2.5,9.91-.22.41-.78,1.14-1.36,1.84-.79.94-.27,2.37.96,2.6.01,0,.02,0,.03,0,9.1,1.65,25.1-15.34,25.1-33.1s-13.14-30.87-20.07-32.43c-.85-.19-3.04-.68-5.34.21Z" style="fill:#6a4322;"/><path d="M302.85,37.71c-1.03-.51-2.15-.64-3.3-.68-1.63-.04-3-.05-4.11,0-.1,0-.19-.09-.17-.19l.48-3.87c.04-.33-.1-.67-.37-.87-.9-.68-2.08-.89-3.4-1.13-1.07-.2-1.83-.31-2.27-.35-7.87-.75-15.94-.83-24.2-.25-1.78.12-3.68.36-5.72.72-.8.14-1.59.38-2.36.73-.59.27-.85.71-.77,1.34,1.59,12.05,2.81,21.63,3.64,28.72.32,2.71.61,4.35.86,4.9,1.48,3.22,5.32,3.88,8.64,4.11,5.1.35,9.84.3,14.21-.17,3.31-.35,6.34-1.41,7.37-4.79.29-.95.36-2.44.54-3.6.01-.1.09-.17.19-.19,5.97-.97,10.83-4.22,12.67-10.14.47-1.51.85-3.18,1.13-5.03.32-2.08.44-3.54.34-4.37-.26-2.27-1.4-3.89-3.41-4.88ZM290.15,33.83c-4.58.51-9.22.7-13.94.69-4.72,0-9.36-.2-13.94-.71-1.33-.15-2.64-.4-3.93-.76-.29-.08-.43-.17-.43-.28,0-.12.14-.23.43-.31,1.29-.36,2.6-.61,3.92-.75,4.58-.51,9.22-.7,13.94-.69,4.72,0,9.36.2,13.94.71,1.33.15,2.64.4,3.92.76.29.08.43.18.43.31,0,.11-.14.2-.43.28-1.29.36-2.6.61-3.92.75ZM302.19,43.57c-.22,2.86-.78,5.49-1.67,7.91-1.27,3.45-4.41,5.5-7.84,6.41-.03,0-.06-.02-.06-.05l2.06-16.5c.01-.09.09-.16.18-.16,2.8-.05,4.64-.02,5.55.08,1.3.15,1.89.92,1.78,2.32Z" style="fill:#6a4322;"/></g></svg>