<?xml version="1.0" encoding="UTF-8"?><svg id="b" xmlns="http://www.w3.org/2000/svg" viewBox="0 0 270 289.72"><g id="c"><path d="M114.35,244.95c.31,4.97,4.45,8.85,9.43,8.85h22.44c4.98,0,9.12-3.89,9.43-8.87l.47-7.68c10.45-2.38,20.29-6.44,29.32-12.11l5.74,5.07c3.72,3.3,9.4,3.12,12.94-.4l15.86-15.86c3.53-3.51,3.7-9.2.4-12.94l-5.07-5.74c5.67-9.03,9.75-18.87,12.11-29.32l7.68-.47c4.97-.31,8.87-4.45,8.87-9.43v-22.44c0-4.98-3.9-9.12-8.87-9.43l-7.68-.47c-2.38-10.45-6.44-20.29-12.11-29.32l5.07-5.74c3.3-3.74,3.12-9.41-.4-12.94l-15.86-15.86c-3.51-3.51-9.2-3.7-12.94-.4l-5.74,5.07c-9.01-5.67-18.85-9.75-29.32-12.11l-.47-7.69c-.31-4.97-4.45-8.85-9.43-8.85h-22.44c-4.98,0-9.12,3.89-9.43,8.87l-.47,7.68c-10.47,2.38-20.31,6.44-29.32,12.11l-5.74-5.09c-3.74-3.3-9.41-3.12-12.92.4l-15.88,15.86c-3.53,3.53-3.68,9.2-.4,12.94l5.07,5.74c-5.67,9.03-9.75,18.85-12.11,29.32l-7.69.47c-4.97.31-8.87,4.45-8.87,9.43v22.44c0,4.98,3.9,9.12,8.87,9.43l7.69.47c2.38,10.45,6.44,20.29,12.11,29.32l-5.07,5.74c-3.3,3.74-3.12,9.41.4,12.94l15.88,15.86c3.53,3.53,9.2,3.7,12.92.4l5.74-5.07c9.01,5.67,18.85,9.73,29.32,12.11l.47,7.7ZM84.21,216.39c-.92,0-1.84.33-2.58.98l-7.96,7.04c-.65.59-1.66.55-2.28-.07l-15.88-15.86c-.63-.63-.65-1.63-.07-2.3l7.04-7.96c1.18-1.32,1.3-3.29.31-4.74-6.51-9.67-10.96-20.42-13.21-31.94-.33-1.74-1.8-3.03-3.58-3.14l-10.64-.65c-.88-.05-1.58-.79-1.58-1.67v-22.44c0-.88.69-1.62,1.58-1.67l10.64-.65c1.76-.11,3.23-1.4,3.58-3.14,2.24-11.52,6.68-22.27,13.19-31.94.99-1.47.87-3.42-.31-4.75l-7.04-7.96c-.59-.65-.55-1.67.07-2.3l15.88-15.86c.63-.63,1.63-.65,2.28-.08l7.96,7.04c1.34,1.19,3.29,1.31,4.75.32,9.65-6.51,20.4-10.96,31.94-13.21,1.74-.33,3.03-1.8,3.14-3.58l.65-10.63c.05-.88.79-1.58,1.67-1.58h22.44c.88,0,1.62.69,1.67,1.58l.65,10.64c.11,1.78,1.4,3.23,3.14,3.58,11.54,2.24,22.28,6.68,31.94,13.21,1.47.99,3.42.87,4.75-.32l7.96-7.04c.65-.59,1.67-.55,2.3.07l15.86,15.86c.63.63.65,1.63.07,2.3l-7.04,7.96c-1.18,1.34-1.3,3.29-.31,4.75,6.51,9.67,10.96,20.4,13.19,31.94.33,1.74,1.8,3.03,3.58,3.14l10.64.65c.88.05,1.58.79,1.58,1.67v22.44c0,.88-.69,1.62-1.58,1.67l-10.64.65c-1.76.11-3.23,1.4-3.58,3.14-2.23,11.52-6.68,22.27-13.21,31.94-.99,1.47-.86,3.42.31,4.74l7.04,7.96c.59.67.56,1.67-.07,2.3l-15.86,15.86c-.63.63-1.64.65-2.3.07l-7.96-7.04c-1.32-1.18-3.29-1.3-4.74-.32-9.65,6.51-20.4,10.96-31.94,13.21-1.74.33-3.03,1.8-3.14,3.58l-.65,10.63c-.05.88-.79,1.58-1.67,1.58h-22.43c-.88.01-1.62-.68-1.67-1.56l-.65-10.64c-.11-1.78-1.4-3.23-3.14-3.58-11.54-2.24-22.28-6.68-31.94-13.21-.65-.43-1.42-.65-2.18-.65h0Z" style="fill:#6a4322;"/><path d="M7.78,144.87c0-70.13,57.06-127.2,127.2-127.2,5.83,0,11.64.51,17.38,1.3l-2.75,11.12,29.77-8.61L157.05,0l-2.82,11.39c-6.35-.91-12.8-1.48-19.27-1.48C60.55,9.91,0,70.45,0,144.88c0,33.31,12.26,65.3,34.52,90.07.76.86,1.83,1.3,2.88,1.3.92,0,1.86-.33,2.6-1,1.6-1.43,1.72-3.89.29-5.49-20.96-23.34-32.51-53.48-32.51-84.87h0Z" style="fill:#6a4322;"/><path d="M235.49,54.75c-1.44-1.59-3.89-1.72-5.49-.29-1.6,1.43-1.74,3.89-.31,5.49,20.97,23.39,32.52,53.55,32.52,84.93,0,70.13-57.08,127.2-127.25,127.2-5.81,0-11.63-.52-17.38-1.31l2.76-11.12-29.77,8.57,22.31,21.51,2.83-11.37c6.38.92,12.83,1.49,19.27,1.49,74.45,0,135.02-60.55,135.02-134.97,0-33.3-12.26-65.3-34.52-90.12h0Z" style="fill:#6a4322;"/><path d="M137.39,151.13c-1.54-4.15-2.53-6.55-4.53-9.7-5.34-8.4-11.19-10.38-12.18-20.47-1.11-11.25,5.16-18.93,8.67-27.01,1.7-3.92-1.29-8.29-5.69-8.3-.03,0-.05,0-.08,0-24.75,0-44.82,26.46-44.82,59.1s20.07,59.1,44.82,59.1h.06c5.48-.02,9.61-4.47,11.08-6.04,7.06-7.61,9.04-29.56,2.68-46.68Z" style="fill:#6a4322;"/><path d="M145.87,87.23c-5.15,2.01-7.37,6.68-10.5,13.28-.83,1.75-5.19,11.17-4.23,20.2.31,2.93,1.07,4.79,1.34,5.4,1.1,2.47,2.74,4.32,4.73,6.56,1.76,1.98,3.75,4.23,5.69,7.28,2.23,3.51,3.3,6.2,4.79,10.23,3.14,8.46,4.51,18.42,3.86,28.06-.48,7.11-2.06,13.29-4.46,17.7-.4.73-1.4,2.04-2.43,3.28-1.4,1.68-.48,4.23,1.72,4.64.02,0,.04,0,.06.01,16.24,2.94,44.82-27.4,44.82-59.1s-23.47-55.13-35.85-57.91c-1.51-.34-5.43-1.22-9.53.38Z" style="fill:#6a4322;"/></g></svg>