<?xml version="1.0" encoding="UTF-8"?><svg id="b" xmlns="http://www.w3.org/2000/svg" viewBox="0 0 149.68 190.36"><g id="c"><path d="M62.29,17.12h8.59c1.09,0,1.97-.88,1.97-1.97s-.88-1.97-1.97-1.97h-8.59c-1.09,0-1.97.88-1.97,1.97s.88,1.97,1.97,1.97Z" style="fill:#6a4322;"/><path d="M149.56,187.7l-5.46-14.32v-11.82c0-.52-.21-1.02-.58-1.39s-.87-.58-1.39-.58h-6.09v-62.02h.81c1.89,0,3.68-.85,4.89-2.3,1.21-1.45,1.7-3.37,1.36-5.23l-.65-3.35c-.27-1.46-1.04-2.77-2.19-3.72-1.14-.95-2.58-1.46-4.06-1.46h-10.15v-22.7c0-4.92-1.96-9.63-5.44-13.11-3.47-3.48-8.19-5.44-13.1-5.45h-3.45c22.14-25.93,20.25-23.66,20.53-24.14s.28.49.28-14.15c0-.52-.21-1.02-.58-1.39s-.87-.58-1.39-.58H26.75c-1.09,0-1.97.88-1.97,1.97,0,14.4,0,13.4.14,13.91s-.75-.71,20.67,24.37h-3.53c-4.9.03-9.6,2-13.06,5.48-3.46,3.48-5.4,8.18-5.41,13.08v22.64h-10.15c-1.49,0-2.93.53-4.08,1.48-1.14.96-1.91,2.29-2.17,3.76l-.65,3.41c-.34,1.86.15,3.77,1.36,5.23,1.21,1.45,3,2.3,4.89,2.3h.81v61.96h-6.09c-1.09,0-1.97.88-1.97,1.97v11.82L.09,187.8H.09c-.19.59-.08,1.24.28,1.74.36.5.94.81,1.56.82h145.8c.64,0,1.25-.32,1.61-.85.37-.53.45-1.2.22-1.81h0ZM107.59,44.19c3.86.03,7.55,1.58,10.27,4.32,2.72,2.74,4.25,6.44,4.25,10.3v22.64h-8.35v-20.1c0-2.31-.92-4.52-2.55-6.16-1.63-1.63-3.85-2.55-6.16-2.55h-11.56l7.23-8.45h6.88ZM109.82,81.45h-20.49s0-23.92,0-23.92l.81-.95h14.92,0c2.63.01,4.76,2.14,4.77,4.77v20.1ZM85.38,81.45h-21.12s0-22.68,0-22.68h21.12v22.68ZM60.32,57.53v23.92h-20.49v-20.1c.01-2.63,2.14-4.76,4.77-4.77h14.92l.81.95ZM120.93,3.94v9.24h-30.34c-1.09,0-1.97.88-1.97,1.97s.88,1.97,1.97,1.97h28.04l-32.17,37.71h-23.25L31.02,17.12h17.53c1.09,0,1.97-.88,1.97-1.97s-.88-1.97-1.97-1.97h-19.84V3.94h92.21ZM27.54,58.81c0-3.87,1.54-7.59,4.27-10.33,2.74-2.74,6.45-4.28,10.32-4.29h6.88l7.23,8.45h-11.64c-2.31,0-4.53.92-6.16,2.55-1.63,1.63-2.55,3.85-2.55,6.16v20.1h-8.35s0-22.64,0-22.64ZM10.95,92.76c-.46-.54-.65-1.27-.51-1.97l.63-3.41c.22-1.14,1.22-1.97,2.38-1.97h122.75c1.16,0,2.17.83,2.38,1.97l.63,3.41c.14.71-.04,1.44-.5,1.99-.46.55-1.14.87-1.86.86H15.58c-2.88-.02-3.8.2-4.63-.89h0ZM17.55,97.56h114.55v62.02h-25.61v-48.1c0-.52-.21-1.02-.58-1.39s-.87-.58-1.39-.58h-59.43c-1.09,0-1.97.88-1.97,1.97v48.1h-25.61l.04-62.02ZM47.1,141.34h55.48v18.24h-55.52l.04-18.24ZM58.25,113.46h33.18v9.06h-33.22s.04-9.06.04-9.06ZM56.28,126.47h37.12c.52,0,1.02-.21,1.39-.58.37-.37.58-.87.58-1.39v-11.03h7.21v23.94s-55.52,0-55.52,0v-23.94h7.21v11.03h0c0,1.09.88,1.97,1.97,1.97h.04ZM9.49,163.53h130.66v8.24H9.49v-8.24ZM4.8,186.42l4.08-10.82h131.89l4.08,10.82H4.8Z" style="fill:#6a4322;"/><path d="M29.63,111.02c-1.86,0-3.64.74-4.95,2.05-1.31,1.31-2.05,3.09-2.05,4.95,0,1.86.74,3.64,2.06,4.95,1.31,1.31,3.1,2.04,4.95,2.04,1.86,0,3.64-.74,4.95-2.06,1.31-1.32,2.04-3.1,2.04-4.95,0-1.85-.74-3.63-2.05-4.93-1.31-1.31-3.09-2.04-4.94-2.04h0ZM29.63,121.05h0c-1.24,0-2.35-.75-2.82-1.89-.47-1.14-.21-2.45.66-3.33.87-.87,2.19-1.13,3.33-.66,1.14.47,1.89,1.59,1.89,2.82,0,1.69-1.37,3.05-3.05,3.05h0Z" style="fill:#6a4322;"/></g></svg>