<?xml version="1.0" encoding="UTF-8"?><svg id="b" xmlns="http://www.w3.org/2000/svg" viewBox="0 0 198 251.93"><g id="c"><path d="M166.68,94.62c3.93,3.49,7.57,7.42,10.9,11.51,3.18,4.24,6.05,8.62,8.62,13.32.15.15.3.3.3.45.15.15.3.3.3.6,3.63,6.65,6.35,13.77,8.32,21.34,1.82,7.42,2.87,15.29,2.87,23.31,0,18.48-5.3,35.88-14.69,50.55-9.54,15.29-23.31,27.7-39.66,35.73-1.97.9-4.24.15-5.15-1.67-.75-1.52-.45-3.03.45-4.24,3.93-4.69,7.12-9.99,9.24-15.74,1.97-5.6,3.03-11.66,3.03-18.01,0-14.37-5.75-27.4-15.29-36.93-9.39-9.39-22.56-15.29-36.93-15.29s-27.55,5.9-36.93,15.29c-9.54,9.54-15.29,22.56-15.29,36.93,0,6.35,1.07,12.41,3.03,18.01,2.12,5.75,5.3,11.21,9.24,15.74,1.37,1.67,1.22,4.09-.45,5.45-1.22,1.07-3.03,1.22-4.24.45-16.36-8.17-30.13-20.59-39.66-35.73C5.3,201.03,0,183.62,0,165.16c0-38.15,21.04-59.65,41.94-81.14,20.59-21.19,41.17-42.23,39.05-79.94-.15-2.12,1.37-3.93,3.49-4.09,1.37,0,2.57.45,3.34,1.52,8.02,9.54,14.54,16.66,19.82,22.71,11.66,13.02,18.16,20.29,21.94,29.52,4.69,11.36,4.69,24.83,4.54,54.81v6.97c0,3.63,1.52,6.82,3.93,9.24,2.27,2.27,5.6,3.78,9.09,3.78s6.82-1.52,9.24-3.78c2.27-2.42,3.78-5.6,3.78-9.24v-18.32c0-2.12,1.67-3.78,3.78-3.78,1.07,0,2.12.45,2.72,1.22h.02ZM171.54,110.98c-1.22-1.52-2.42-3.03-3.63-4.39v8.94c0,5.75-2.42,10.9-6.2,14.69-3.63,3.63-8.79,6.05-14.54,6.05s-10.75-2.42-14.54-6.05c-3.78-3.78-6.05-8.94-6.05-14.69v-6.97c0-28.91,0-41.79-4.09-51.93-3.34-8.02-9.54-14.84-20.59-27.4-3.78-4.24-8.32-9.24-13.17-14.84-1.67,34.21-21.49,54.64-41.32,74.93C27.57,109.77,7.73,130.2,7.73,165.17c0,17.11,4.85,33,13.47,46.47,6.05,9.69,13.92,18.01,23.16,24.83-.6-1.37-1.22-2.72-1.67-4.09-2.42-6.35-3.63-13.32-3.63-20.59,0-16.51,6.65-31.48,17.56-42.39,10.9-10.75,25.88-17.56,42.39-17.56s31.48,6.82,42.39,17.56c10.9,10.9,17.56,25.88,17.56,42.39,0,7.27-1.22,14.22-3.63,20.59-.45,1.37-1.07,2.72-1.67,4.09,9.24-6.82,17.11-15.14,23.16-24.83,8.62-13.47,13.47-29.37,13.47-46.47,0-7.42-.9-14.54-2.57-21.34-1.82-6.97-4.39-13.62-7.72-19.82-.15-.3-.15-.45-.3-.6l-.15-.15c-2.27-4.39-5-8.47-8.02-12.26h.01ZM138.99,245.56c.3-.3.75-.75,1.22-.9l-1.22.9Z" style="fill:#6a4322;"/><path d="M100.43,216.96c-.92-2.48-1.51-3.91-2.71-5.79-3.19-5.02-6.68-6.2-7.27-12.22-.66-6.72,3.08-11.3,5.18-16.13,1.02-2.34-.77-4.95-3.4-4.96-.02,0-.03,0-.05,0-14.78,0-26.76,15.8-26.76,35.29s11.98,35.29,26.76,35.29h.04c3.27,0,5.74-2.67,6.61-3.61,4.21-4.54,5.4-17.65,1.6-27.87Z" style="fill:#6a4322;"/><path d="M105.49,178.8c-3.07,1.2-4.4,3.99-6.27,7.93-.5,1.05-3.1,6.67-2.53,12.06.19,1.75.64,2.86.8,3.23.65,1.47,1.64,2.58,2.82,3.92,1.05,1.18,2.24,2.52,3.4,4.35,1.33,2.09,1.97,3.7,2.86,6.11,1.88,5.05,2.69,11,2.3,16.75-.29,4.24-1.23,7.94-2.66,10.57-.24.44-.83,1.22-1.45,1.96-.84,1.01-.29,2.53,1.02,2.77.01,0,.02,0,.03,0,9.7,1.76,26.76-16.36,26.76-35.29s-14.01-32.92-21.41-34.58c-.9-.2-3.24-.73-5.69.23Z" style="fill:#6a4322;"/></g></svg>