<?xml version="1.0" encoding="UTF-8"?><svg id="b" xmlns="http://www.w3.org/2000/svg" viewBox="0 0 351 351.01"><g id="c"><path d="M176.56,264.84l9.38,9.38c5.22-4.03,12.74-3.61,17.46,1.11l38.75,38.75c5.15,5.15,5.15,13.56,0,18.73l-14.33,14.33c-5.15,5.15-13.56,5.15-18.73,0l-38.75-38.74c-4.74-4.74-5.15-12.24-1.11-17.46l-9.38-9.38c-22.73,14.94-53.26,12.14-72.89-7.51-22.67-22.67-22.67-59.43,0-82.1,22.67-22.67,59.43-22.67,82.1,0,19.63,19.63,22.43,50.15,7.49,72.89h0ZM179.32,280.69l-8.5-8.5-3.63,3.63,8.5,8.5,3.63-3.63ZM191.21,281.88l-14.33,14.33c-1.54,1.54-1.54,4.09,0,5.63l38.75,38.75c1.54,1.54,4.09,1.54,5.63,0l14.33-14.33c1.54-1.54,1.54-4.09,0-5.63l-38.74-38.75c-1.54-1.54-4.11-1.54-5.65,0h0ZM93.49,198.48c-19.06,19.06-19.06,49.96,0,69.01,19.06,19.06,49.96,19.06,69.01,0,19.06-19.06,19.06-49.96,0-69.01-19.04-19.06-49.95-19.06-69.01,0h0ZM294.96,0c30.96,0,56.04,25.1,56.04,56.04,0,10.33-2.58,19.12-7.64,28.08l-37.9,67.1c-4.64,8.23-16.38,8.17-20.99,0l-37.93-67.09c-5.07-8.96-7.63-17.76-7.63-28.08,0-30.96,25.1-56.06,56.04-56.06h0ZM328.06,22.96c-18.28-18.28-47.91-18.28-66.19,0-11.54,11.54-16.6,29.09-12.12,45.27,1.08,3.87,2.68,7.6,4.83,11.39l37.93,67.09c1.11,1.96,3.87,1.89,4.95,0l37.91-67.09c4.28-7.58,6.41-14.77,6.41-23.57-.01-12.92-5.24-24.62-13.71-33.09h0ZM4.63,243.49c-2.55,0-4.63-2.07-4.63-4.63s2.07-4.63,4.63-4.63h53.26c2.55.01,4.63,2.08,4.63,4.64s-2.07,4.63-4.63,4.63H4.63ZM198.11,243.49h16.14c26.76,0,49.51-21.02,49.51-47.68s-22.76-47.68-49.51-47.68H49.51c-21.71,0-40.26-16.87-40.26-38.42s18.54-38.42,40.26-38.42h169.78c2.56,0,4.63-2.07,4.63-4.63s-2.07-4.63-4.63-4.63l-169.77.03C22.76,62.04.02,83.06.02,109.72s22.76,47.68,49.51,47.68h164.73c21.71,0,40.26,16.87,40.26,38.42s-18.55,38.42-40.26,38.42h-16.14c-2.56,0-4.63,2.07-4.63,4.63-.01,2.53,2.05,4.6,4.62,4.6h0ZM97.69,243.49h60.62c2.55,0,4.63-2.07,4.63-4.63s-2.07-4.63-4.63-4.63h-60.62c-2.55,0-4.63,2.07-4.63,4.63s2.08,4.63,4.63,4.63h0Z" style="fill:#6a4322; fill-rule:evenodd;"/><path d="M296.1,59.63c-.74-1.99-1.21-3.14-2.17-4.66-2.56-4.03-5.37-4.98-5.85-9.82-.53-5.4,2.48-9.09,4.16-12.96.82-1.88-.62-3.98-2.73-3.98-.01,0-.03,0-.04,0-11.88,0-21.51,12.7-21.51,28.37s9.63,28.37,21.51,28.37h.03c2.63,0,4.61-2.15,5.32-2.9,3.39-3.65,4.34-14.19,1.29-22.41Z" style="fill:#6a4322;"/><path d="M300.18,28.96c-2.47.97-3.54,3.21-5.04,6.37-.4.84-2.49,5.36-2.03,9.69.15,1.41.51,2.3.65,2.59.53,1.18,1.32,2.07,2.27,3.15.84.95,1.8,2.03,2.73,3.49,1.07,1.68,1.58,2.98,2.3,4.91,1.51,4.06,2.17,8.84,1.85,13.47-.23,3.41-.99,6.38-2.14,8.5-.19.35-.67.98-1.17,1.57-.67.81-.23,2.03.82,2.23,0,0,.02,0,.03,0,7.8,1.41,21.51-13.15,21.51-28.37s-11.26-26.46-17.21-27.8c-.73-.16-2.61-.59-4.57.18Z" style="fill:#6a4322;"/></g></svg>